<svg width="24" height="28" viewBox="0 0 24 28" fill="none" xmlns="http://www.w3.org/2000/svg">
<path d="M23.4126 17.4125L13.4126 27.4125C13.0251 27.8062 12.5126 28 12.0001 28C11.4876 28 10.9764 27.8047 10.5864 27.414L0.586365 17.414C-0.194885 16.6328 -0.194885 15.3672 0.586365 14.5859C1.36761 13.8047 2.63324 13.8047 3.41449 14.5859L10.0001 21.175V1.99996C10.0001 0.894338 10.8957 0.0562134 11.9439 0.0562134C12.992 0.0562134 14.0001 0.894338 14.0001 1.99996V21.175L20.5876 14.5875C21.3689 13.8062 22.6345 13.8062 23.4157 14.5875C24.197 15.3687 24.1939 16.6312 23.4126 17.4125Z" fill="#252525"/>
</svg>
