<svg width="32" height="29" viewBox="0 0 32 29" fill="none" xmlns="http://www.w3.org/2000/svg">
<path d="M31.1111 24.8347H28.4444V6.2918C28.4444 4.78121 27.25 3.54778 25.7778 3.54778L19.5556 3.54834V7.09561H24.8889V28.3826H31.1111C31.6042 28.3826 32 27.9876 32 27.5455V25.8215C32 25.2283 31.6056 24.8347 31.1111 24.8347ZM15.5722 0.0557796L4.90556 2.81366C4.06111 3.02171 3.55556 3.75622 3.55556 4.59439V24.8347H0.888889C0.395833 24.8347 0 25.2297 0 25.6718V27.3958C0 27.989 0.395833 28.3826 0.888889 28.3826H17.7778V1.83651C17.7778 0.644663 16.6944 -0.235253 15.5722 0.0557796ZM12.8889 15.9652C12.1528 15.9652 11.5556 15.1686 11.5556 14.2412C11.5556 13.2644 12.1528 12.5171 12.8889 12.5171C13.625 12.5171 14.2222 13.2156 14.2222 14.1913C14.2222 15.1669 13.6278 15.9652 12.8889 15.9652Z" fill="#252525"/>
</svg>
