<svg width="22" height="32" viewBox="0 0 22 32" fill="none" xmlns="http://www.w3.org/2000/svg">
<path d="M20.5 12C19.6688 12 19 12.6688 19 13.4438V16C19 20.6719 14.9688 24.4312 10.2 23.9625C6.05 23.5562 3 19.8188 3 15.6375V13.4438C3 12.6688 2.32812 12 1.5 12C0.671875 12 0 12.6688 0 13.4438V15.4531C0 21.055 4 26.0531 9.5 26.8094V29H6.44375C5.66875 29 5 29.6688 5 30.4438C5 31.2188 5.66875 32 6.44375 32H15.4438C16.3313 32 17 31.3312 17 30.5C17 29.6688 16.3312 29 15.5 29H12.5V26.8894C17.8625 26.1562 22 21.5562 22 16V13.4438C22 12.6688 21.3312 12 20.5 12ZM11 22C14.3125 22 17 19.3125 17 16V6C17 2.74375 14.3125 0 11 0C7.6875 0 5 2.6875 5 6V16C5 19.3125 7.6875 22 11 22ZM8 6C8 4.34375 9.34375 3 11 3C12.6562 3 14 4.34375 14 6V16C14 17.6562 12.6562 19 11 19C9.34375 19 8 17.6562 8 16V6Z" fill="#252525"/>
</svg>
