<svg width="20" height="32" viewBox="0 0 20 32" fill="none" xmlns="http://www.w3.org/2000/svg">
<path d="M12.4998 7C14.4311 7 15.9998 5.43 15.9998 3.5C15.9998 1.57 14.4311 0 12.4998 0C10.5686 0 8.99984 1.57 8.99984 3.5C8.99984 5.43 10.5686 7 12.4998 7ZM12.4998 2C13.3248 2 13.9998 2.67313 13.9998 3.5C13.9998 4.32687 13.3248 5 12.4998 5C11.6748 5 10.9998 4.32687 10.9998 3.5C10.9998 2.67313 11.6748 2 12.4998 2ZM19.5561 17.1688L17.1286 15.5506C16.943 15.4276 16.8043 15.243 16.7341 15.0331L15.6853 11.8856C15.117 10.1881 13.6753 8.91556 11.9216 8.56494L10.7147 8.32375C9.48734 8.08125 8.22484 8.3 7.16234 8.9375L3.87109 10.9125C3.49234 11.1375 3.16172 11.45 2.91797 11.8188L1.16797 14.445C0.861094 14.9062 0.986094 15.525 1.44547 15.8313C1.90247 16.1349 2.52359 16.0139 2.83234 15.5539L4.58234 12.9276C4.66434 12.8056 4.77372 12.7001 4.89872 12.6249L7.73809 10.923L6.63109 15.3625C6.17016 17.2119 6.78147 19.1313 8.22859 20.3706L12.8948 24.3719C13.0433 24.4998 13.1527 24.6688 13.2073 24.8563L15.0411 31.2812C15.1623 31.7125 15.5623 32 15.9998 32C16.0897 32 16.1835 31.9873 16.2752 31.9619C16.8065 31.8095 17.1133 31.2569 16.9608 30.7257L15.1271 24.3007C14.9611 23.7333 14.6388 23.2313 14.1933 22.8507L9.52484 18.85C8.66234 18.1063 8.29359 16.9562 8.56859 15.8438L9.95984 10.2794C10.0802 10.2884 10.1986 10.2605 10.3188 10.2839L11.5276 10.5251C12.5811 10.7375 13.4436 11.5 13.7873 12.5188L14.8361 15.665C15.047 16.2938 15.4648 16.8425 16.018 17.2131L18.448 18.8325C18.6123 18.9438 18.8061 19 18.9998 19C19.3221 19 19.6386 18.8438 19.8317 18.5547C20.1373 18.0938 20.0123 17.475 19.5561 17.1688ZM7.44984 22.1063C6.95572 21.8631 6.35609 22.0584 6.10797 22.5535L4.24984 26.2625C4.20297 26.3563 4.14047 26.4432 4.06234 26.5203L0.292969 30.2909C-0.0976562 30.6816 -0.0976562 31.3147 0.292969 31.7047C0.488156 31.9 0.744219 32 0.999844 32C1.25547 32 1.51159 31.9024 1.70672 31.707L5.47609 27.9364C5.70659 27.7059 5.89603 27.4432 6.03859 27.157L7.89422 23.447C8.14359 22.9563 7.94359 22.35 7.44984 22.1063Z" fill="#252525"/>
</svg>
