<svg width="24" height="28" viewBox="0 0 24 28" fill="none" xmlns="http://www.w3.org/2000/svg">
<path d="M23.5875 16.5375L13.0875 27.5375C12.8 27.8312 12.4125 28 12 28C11.5875 28 11.1975 27.832 10.9138 27.5351L0.413752 16.5351C-0.156248 15.8812 -0.134748 14.9875 0.464877 14.4125C1.05863 13.8402 2.01175 13.8617 2.58613 14.4633L10.5 22.7562V1.50123C10.5 0.67311 11.1719 0.000610352 11.9438 0.000610352C12.7156 0.000610352 13.5 0.67311 13.5 1.50123V22.7575L21.4125 14.4637C21.9848 13.8622 22.9381 13.8407 23.5338 14.4129C24.1375 14.9875 24.1563 15.8812 23.5875 16.5375Z" fill="#252525"/>
</svg>
