<svg width="25" height="23" viewBox="0 0 25 23" fill="none" xmlns="http://www.w3.org/2000/svg">
<path d="M1.4052 1.5603C1.58868 1.5603 1.77216 1.6337 1.91894 1.78048L23.606 18.7705C24.0096 19.064 24.083 19.6145 23.7527 19.9814C23.4592 20.3851 22.9088 20.4585 22.5418 20.1282L0.854769 3.13821C0.451119 2.84465 0.377728 2.29421 0.707987 1.92726C0.854769 1.70709 1.11164 1.5603 1.4052 1.5603Z" fill="white"/>
<path d="M18.8704 9.06111C18.6516 8.92979 18.4765 8.75469 18.3014 8.53583C18.1263 8.75469 17.9512 8.92979 17.7323 9.06111C17.0757 9.54262 16.2878 9.80526 15.4561 9.80526C14.5806 9.80526 13.7927 9.54262 13.1799 9.06111C12.961 8.92979 12.7422 8.75469 12.5671 8.53583C12.392 8.75469 12.2169 8.92979 11.998 9.06111C11.3852 9.54262 10.5973 9.80526 9.72178 9.80526C8.89009 9.80526 8.10217 9.54262 7.44556 9.06111C7.2267 8.92979 7.0516 8.75469 6.87651 8.53583C6.70141 8.75469 6.52632 8.92979 6.30745 9.06111C5.65085 9.54262 4.86293 9.80526 4.03123 9.80526C3.85614 9.80526 3.68104 9.80526 3.50595 9.80526C1.05464 9.45507 -0.0834745 6.60979 1.22973 4.55244L3.72482 0.612829C3.94369 0.218867 4.33765 0 4.77538 0H20.4025C20.8402 0 21.2342 0.218867 21.4531 0.612829L23.9482 4.55244C25.2614 6.60979 24.1233 9.45507 21.6719 9.80526C21.4968 9.80526 21.3218 9.80526 21.1467 9.80526C20.2712 9.80526 19.4833 9.54262 18.8704 9.06111ZM20.315 1.40075H4.86293L2.41161 5.29659C1.57992 6.60979 2.41161 8.22941 3.68104 8.40451C3.81236 8.40451 3.89991 8.40451 4.03123 8.40451C4.73161 8.40451 5.38821 8.09809 5.82594 7.61658C6.08859 7.31017 6.48255 7.13508 6.87651 7.13508C7.27047 7.13508 7.66443 7.31017 7.92707 7.61658C8.36481 8.09809 9.02141 8.40451 9.72178 8.40451C10.4659 8.40451 11.0788 8.09809 11.5603 7.61658C11.8229 7.31017 12.1731 7.13508 12.5671 7.13508C12.961 7.13508 13.355 7.31017 13.6176 7.61658C14.0554 8.09809 14.712 8.40451 15.4561 8.40451C16.1565 8.40451 16.8131 8.09809 17.2508 7.61658C17.5135 7.31017 17.9074 7.13508 18.3014 7.13508C18.6953 7.13508 19.0455 7.31017 19.3082 7.61658C19.7897 8.09809 20.4025 8.40451 21.1467 8.40451C21.278 8.40451 21.3655 8.40451 21.4968 8.40451C22.7663 8.22941 23.598 6.60979 22.7663 5.29659L20.315 1.40075ZM4.20633 11.9064V15.4083H21.0153V11.9064C21.0153 11.5562 21.3218 11.206 21.7157 11.206C22.0659 11.206 22.4161 11.5562 22.4161 11.9064V19.6105C22.4161 21.1864 21.1467 22.412 19.6146 22.412H5.60708C4.03123 22.412 2.80557 21.1864 2.80557 19.6105V11.9064C2.80557 11.5562 3.11199 11.206 3.50595 11.206C3.85614 11.206 4.20633 11.5562 4.20633 11.9064ZM4.20633 19.6105C4.20633 20.3984 4.81915 21.0113 5.60708 21.0113H19.6146C20.3587 21.0113 21.0153 20.3984 21.0153 19.6105V16.809H4.20633V19.6105Z" fill="white"/>
</svg>
