<svg width="32" height="32" viewBox="0 0 32 32" fill="none" xmlns="http://www.w3.org/2000/svg">
<path d="M22 16C22 19.3125 19.3125 22 16 22C12.6313 22 10 19.3125 10 16C10 12.6313 12.6313 10 16 10C19.3125 10 22 12.6313 22 16ZM16 13C14.3438 13 13 14.3438 13 16C13 17.6562 14.3438 19 16 19C17.6562 19 19 17.6562 19 16C19 14.3438 17.6562 13 16 13ZM16 0C16.8312 0 17.5 0.671875 17.5 1.5V4.09312C22.925 4.77 27.2313 9.075 27.9062 14.5H30.5C31.3312 14.5 32 15.1687 32 16C32 16.8312 31.3312 17.5 30.5 17.5H27.9062C27.2313 22.925 22.925 27.2313 17.5 27.9062V30.5C17.5 31.3312 16.8312 32 16 32C15.1687 32 14.5 31.3312 14.5 30.5V27.9062C9.075 27.2313 4.77 22.925 4.09312 17.5H1.5C0.671875 17.5 0 16.8312 0 16C0 15.1687 0.671875 14.5 1.5 14.5H4.09312C4.77 9.075 9.075 4.77 14.5 4.09312V1.5C14.5 0.671875 15.1687 0 16 0ZM7 16C7 20.9688 11.0312 25 16 25C20.9688 25 25 20.9688 25 16C25 11.0312 20.9688 7 16 7C11.0312 7 7 11.0312 7 16Z" fill="#252525"/>
</svg>
