<svg width="28" height="32" viewBox="0 0 28 32" fill="none" xmlns="http://www.w3.org/2000/svg">
<path d="M21 14.9438H7C6.44987 14.9438 6 15.394 6 15.9438C6 16.4938 6.45 16.9431 7 16.9431H21C21.5501 16.9431 21.9438 16.4936 21.9438 15.9438C22 15.45 21.55 14.9438 21 14.9438ZM21 20.9438H7C6.44987 20.9438 6 21.3941 6 21.9444C6 22.4946 6.45 22.9438 7 22.9438H21C21.5501 22.9438 21.9438 22.4944 21.9438 21.9444C21.9438 21.3944 21.55 20.9438 21 20.9438ZM26.1375 0C25.7702 0 25.395 0.109375 25.0513 0.359375L22.3312 2.3125L19.9244 0.578125C19.393 0.203125 18.7831 0.0078125 18.1663 0.0078125C17.5494 0.0078125 16.9394 0.139062 16.4156 0.578125L14.0006 2.3125L11.5856 0.578125C11.0621 0.203125 10.4444 0.0078125 9.8275 0.0078125C9.21794 0.0078125 8.60812 0.139062 8.07687 0.578125L5.67375 2.3125L2.95375 0.359375C2.61 0.109375 2.235 0 1.8675 0C0.89875 0.0078125 0 0.765625 0 1.8675V30.1425C0 31.2187 0.890625 32 1.8675 32C2.23481 32 2.61 31.8906 2.95375 31.6406L5.67375 29.6875L8.08062 31.4219C8.612 31.7969 9.22187 31.9922 9.83875 31.9922C10.4561 31.9922 11.0656 31.8047 11.5894 31.4219L14.0044 29.6875L16.4194 31.4219C16.9429 31.7969 17.5606 31.9922 18.1775 31.9922C18.7871 31.9922 19.3969 31.8047 19.9281 31.4219L22.335 29.6875L25.0544 31.6406C25.4 31.8875 25.775 32 26.1375 32C27.1063 32 27.9975 31.2344 27.9975 30.1406V1.8675C28.0062 0.78125 27.1188 0 26.1375 0ZM26.0063 29.8625L22.3331 27.2219L18.7537 29.8C18.5818 29.925 18.3786 29.9875 18.1754 29.9875C17.9566 29.9875 17.7612 29.925 17.5815 29.8L14.0021 27.2219L10.4228 29.8C10.243 29.925 10.0476 29.9875 9.82881 29.9875C9.61781 29.9875 9.42244 29.925 9.24269 29.8L5.66563 27.2188L2.00062 29.9V2.14062L5.67375 4.78125L9.25313 2.20312C9.42506 2.07812 9.62819 2.01562 9.83144 2.01562C10.0502 2.01562 10.2456 2.07812 10.4254 2.20312L14.0048 4.78125L17.5841 2.20312C17.7639 2.07812 17.9592 2.01562 18.1781 2.01562C18.3891 2.01562 18.5844 2.07812 18.7642 2.20312L22.3436 4.78125L26.0086 2.14062V29.8625H26.0063ZM21 8.94375H7C6.44987 8.94375 6 9.39388 6 9.94375C6 10.4938 6.45 10.9431 7 10.9431H21C21.5501 10.9431 21.9438 10.4934 21.9438 9.94375C21.9438 9.39406 21.55 8.94375 21 8.94375Z" fill="#252525"/>
</svg>
