<svg width="24" height="32" viewBox="0 0 24 32" fill="none" xmlns="http://www.w3.org/2000/svg">
<path d="M16.5 9C17.3312 9 18 9.66875 18 10.5C18 11.3313 17.3312 12 16.5 12H7.5C6.66875 12 6 11.3313 6 10.5C6 9.66875 6.66875 9 7.5 9H16.5ZM16.5 20C17.3312 20 18 20.6688 18 21.5C18 22.3312 17.3312 23 16.5 23H7.5C6.66875 23 6 22.3312 6 21.5C6 20.6688 6.66875 20 7.5 20H16.5ZM6 16C6 15.1687 6.66875 14.5 7.5 14.5H16.5C17.3312 14.5 18 15.1687 18 16C18 16.8312 17.3312 17.5 16.5 17.5H7.5C6.66875 17.5 6 16.8312 6 16ZM5 2.52437L7.525 0.361125C8.0875 -0.120375 8.9125 -0.120375 9.475 0.361125L12 2.52437L14.525 0.361125C15.0875 -0.120375 15.9125 -0.120375 16.475 0.361125L19 2.52437L21.525 0.361125C21.9688 -0.0200875 22.5938 -0.1075 23.125 0.13725C23.6562 0.382062 24 0.914375 24 1.5V30.5C24 31.0875 23.6562 31.6187 23.125 31.8625C22.5938 32.1063 21.9688 32.0187 21.525 31.6375L19 29.475L16.475 31.6375C15.9125 32.1188 15.0875 32.1188 14.525 31.6375L12 29.475L9.475 31.6375C8.9125 32.1188 8.0875 32.1188 7.525 31.6375L5 29.475L2.47625 31.6375C2.03125 32.0187 1.40563 32.1063 0.873125 31.8625C0.341 31.6187 0 31.0875 0 30.5V1.5C0 0.914375 0.341 0.382 0.873125 0.13725C1.40563 -0.1075 2.03125 -0.0200875 2.47625 0.361125L5 2.52437ZM4.02375 26.3625C4.58562 25.8812 5.41438 25.8812 5.97625 26.3625L8.5 28.525L11.025 26.3625C11.5875 25.8812 12.4125 25.8812 12.975 26.3625L15.5 28.525L18.025 26.3625C18.5875 25.8812 19.4125 25.8812 19.975 26.3625L21 27.2375V4.76125L19.975 5.63875C19.4125 6.12063 18.5875 6.12063 18.025 5.63875L15.5 3.47563L12.975 5.63875C12.4125 6.12063 11.5875 6.12063 11.025 5.63875L8.5 3.47563L5.97625 5.63875C5.41438 6.12063 4.58562 6.12063 4.02375 5.63875L3 4.76125V27.2375L4.02375 26.3625Z" fill="#252525"/>
</svg>
