<svg width="32" height="32" viewBox="0 0 32 32" fill="none" xmlns="http://www.w3.org/2000/svg">
<path d="M20.9375 10.9375L14 17.8813L11.0063 14.9375C10.4203 14.3516 9.47125 14.3516 8.885 14.9375C8.29875 15.5234 8.29906 16.4725 8.885 17.0588L12.885 21.0588C13.2312 21.3563 13.6125 21.5 14 21.5C14.3875 21.5 14.7675 21.3535 15.0606 21.0606L23.0606 13.0606C23.6466 12.4746 23.6466 11.5256 23.0606 10.9393C22.4747 10.3531 21.525 10.3562 20.9375 10.9375ZM16 0C7.1625 0 0 7.1625 0 16C0 24.8375 7.1625 32 16 32C24.8375 32 32 24.8375 32 16C32 7.1625 24.8375 0 16 0ZM16 29C8.83125 29 3 23.1681 3 16C3 8.83187 8.83125 3 16 3C23.1688 3 29 8.83187 29 16C29 23.1681 23.1688 29 16 29Z" fill="#252525"/>
</svg>
