<svg width="32" height="26" viewBox="0 0 32 26" fill="none" xmlns="http://www.w3.org/2000/svg">
<path d="M26 20.2132C24.4535 20.2132 23.2 21.469 23.2 23.0184C23.2 24.5677 24.4535 25.8235 26 25.8235C27.5465 25.8235 28.8 24.5677 28.8 23.0184C28.8 21.469 27.545 20.2132 26 20.2132ZM26 24.2206C25.3385 24.2206 24.8 23.6811 24.8 23.0184C24.8 22.3556 25.3385 21.8162 26 21.8162C26.662 21.8162 27.2 22.3556 27.2 23.0184C27.2 23.6796 26.66 24.2206 26 24.2206ZM31.695 4.0195C31.395 3.62027 30.91 3.38234 30.4 3.38234H8.565L7.98 0.801099C7.895 0.434727 7.575 0.176453 7.2 0.176453H4C3.558 0.176453 3.2 0.53491 3.2 0.977923C3.2 1.42094 3.558 1.77939 4 1.77939H6.561L10.4205 18.7856C10.505 19.1513 10.825 19.4117 11.2 19.4117H28C28.4422 19.4117 28.8 19.0533 28.8 18.6103C28.8 18.1673 28.4422 17.8088 28 17.8088H11.84L11.4762 16.2059H27.0112C28.0892 16.2059 29.0427 15.5106 29.3267 14.5153L31.9407 5.34343C32.07 4.8866 31.98 4.40471 31.695 4.0195ZM27.79 14.0719C27.7 14.3875 27.38 14.6029 27.01 14.6029H11.2C11.17 14.6029 11.1445 14.6167 11.1154 14.6199L8.93 4.98177L30.405 4.90368L27.79 14.0719ZM12.4 20.2132C10.8535 20.2132 9.6 21.469 9.6 23.0184C9.6 24.5677 10.855 25.8235 12.4 25.8235C13.945 25.8235 15.2 24.5677 15.2 23.0184C15.2 21.469 13.945 20.2132 12.4 20.2132ZM12.4 24.2206C11.7385 24.2206 11.2 23.6811 11.2 23.0184C11.2 22.3556 11.7385 21.8162 12.4 21.8162C13.0615 21.8162 13.6 22.3556 13.6 23.0184C13.6 23.6796 13.06 24.2206 12.4 24.2206ZM0.8 11.397H6.4C6.8419 11.397 7.2 11.0382 7.2 10.5956C7.2 10.1548 6.84 9.7941 6.4 9.7941H0.8C0.3582 9.7941 0 10.1548 0 10.5956C0 11.0364 0.3582 11.397 0.8 11.397ZM0.8 8.19116H5.6C6.04 8.19116 6.4 7.8305 6.4 7.38969C6.4 6.94888 6.04 6.58822 5.6 6.58822H0.8C0.3582 6.58822 0 6.94888 0 7.38969C0 7.8305 0.3582 8.19116 0.8 8.19116ZM7.2 13H0.8C0.3582 13 0 13.3606 0 13.8015C0 14.2423 0.3582 14.6029 0.8 14.6029H7.2C7.64 14.6029 8 14.2423 8 13.8015C8 13.3606 7.64 13 7.2 13Z" fill="#252525"/>
</svg>
