<svg width="32" height="28" viewBox="0 0 32 28" fill="none" xmlns="http://www.w3.org/2000/svg">
<path d="M16.0008 0C7.1326 0 0.00164376 5.80896 0.00164376 12.9739C0.00164376 15.9442 1.25034 18.6656 3.32002 20.8519C2.38741 23.3157 0.443173 25.3977 0.411815 25.4208C-0.00356177 25.8574 -0.113317 26.4968 0.121873 27.0425C0.309962 27.6445 0.847073 28 1.45041 28C5.3069 28 8.29287 26.3939 10.1744 25.1152C11.9367 25.6765 13.9475 26.004 16.0008 26.004C24.869 26.004 32 20.1951 32 13.0862C32 5.97737 24.869 0 16.0008 0ZM16.0008 24.008C14.2291 24.008 12.4736 23.7429 10.7802 23.2127C10.1834 23.0214 9.53091 23.1216 9.01976 23.4833C7.63371 24.4969 5.34829 25.6845 2.5787 25.9571C3.27486 25.014 4.44454 23.4309 5.1338 21.614L5.14188 21.5928C5.4105 20.8898 5.25421 20.1519 4.73861 19.5456C2.9249 17.5897 1.95591 15.3754 1.95591 13.0301C1.95591 6.97973 8.259 2.05213 15.9481 2.05213C23.6937 2.05213 29.9404 6.97973 29.9404 13.0301C29.9404 19.0804 23.7464 24.008 16.0008 24.008ZM15.9444 15.9679C16.5527 15.9679 17.0043 15.575 17.0043 15.0261V6.04411C17.0043 5.49247 16.5555 5.04611 16.0008 5.04611C15.4462 5.04611 14.9973 5.49521 14.9973 6.04411V15.0261C14.9973 15.575 15.4426 15.9679 15.9444 15.9679ZM16.0008 17.5211C15.1698 17.5211 14.4956 18.191 14.4956 19.018C14.4956 19.8445 15.1698 20.515 16.0008 20.515C16.8318 20.515 17.506 19.8445 17.506 19.018C17.506 18.1885 16.835 17.5211 16.0008 17.5211Z" fill="#252525"/>
</svg>
