<svg width="20" height="20" viewBox="0 0 20 20" fill="none" xmlns="http://www.w3.org/2000/svg">
<path d="M6.83984 9.0625C7.39453 9.0625 7.8125 8.64453 7.8125 8.125C7.8125 7.60547 7.39453 7.1875 6.83984 7.1875C6.35547 7.1875 5.9375 7.60547 5.9375 8.125C5.9375 8.64453 6.35547 9.0625 6.83984 9.0625ZM13.0898 9.0625C13.6445 9.0625 14.0625 8.64453 14.0625 8.125C14.0625 7.60547 13.6445 7.1875 13.125 7.1875C12.6055 7.1875 12.1875 7.60547 12.1875 8.125C12.1875 8.64453 12.6055 9.0625 13.0898 9.0625ZM14.8125 11.9062C13.6289 12.2852 11.8398 12.5 10 12.5C8.16016 12.5 6.37109 12.2852 5.1875 11.9062C4.98438 11.8437 4.75781 11.8867 4.58984 12.0273C4.42578 12.1758 4.34766 12.3867 4.38281 12.6094C4.74219 14.7578 7.62891 16.25 10 16.25C12.3633 16.25 15.2578 14.7578 15.6172 12.6094C15.6562 12.3945 15.5742 12.1758 15.4141 12.0273C15.2461 11.8867 15.0156 11.8359 14.8125 11.9062ZM10 15C8.66797 15 6.99219 14.3672 6.15625 13.4297C8.39844 13.8516 11.6055 13.8516 13.8516 13.4297C13.0078 14.3672 11.332 15 10 15ZM10 0C4.47656 0 0 4.47656 0 10C0 15.5234 4.47656 20 10 20C15.5234 20 20 15.5234 20 10C20 4.47656 15.5234 0 10 0ZM10 18.75C5.17578 18.75 1.25 14.8242 1.25 10C1.25 5.17578 5.17578 1.25 10 1.25C14.8242 1.25 18.75 5.17578 18.75 10C18.75 14.8242 14.8242 18.75 10 18.75Z" fill="#2B2B2B"/>
</svg>
