<svg width="32" height="26" viewBox="0 0 32 26" fill="none" xmlns="http://www.w3.org/2000/svg">
<path d="M5.33333 18.7778C5.33333 18.0389 5.92778 17.4444 6.66667 17.4444H9.33333C10.0722 17.4444 10.6667 18.0389 10.6667 18.7778C10.6667 19.5167 10.0722 20.1111 9.33333 20.1111H6.66667C5.92778 20.1111 5.33333 19.5167 5.33333 18.7778ZM12.4444 18.7778C12.4444 18.0389 13.0389 17.4444 13.7778 17.4444H20C20.7389 17.4444 21.3333 18.0389 21.3333 18.7778C21.3333 19.5167 20.7389 20.1111 20 20.1111H13.7778C13.0389 20.1111 12.4444 19.5167 12.4444 18.7778ZM5.33333 14.3333C5.33333 13.5944 5.92778 13 6.66667 13H25.3333C26.0722 13 26.6667 13.5944 26.6667 14.3333C26.6667 15.0722 26.0722 15.6667 25.3333 15.6667H6.66667C5.92778 15.6667 5.33333 15.0722 5.33333 14.3333ZM25.3333 5.88888C26.0722 5.88888 26.6667 6.48332 26.6667 7.22221V9.88888C26.6667 10.6278 26.0722 11.2222 25.3333 11.2222H20.8889C20.15 11.2222 19.5556 10.6278 19.5556 9.88888V7.22221C19.5556 6.48332 20.15 5.88888 20.8889 5.88888H25.3333ZM0 4.1111C0 2.14721 1.59167 0.555542 3.55556 0.555542H28.4444C30.4056 0.555542 32 2.14721 32 4.1111V21.8889C32 23.85 30.4056 25.4444 28.4444 25.4444H3.55556C1.59167 25.4444 0 23.85 0 21.8889V4.1111ZM2.66667 4.1111V21.8889C2.66667 22.3778 3.06444 22.7778 3.55556 22.7778H28.4444C28.9333 22.7778 29.3333 22.3778 29.3333 21.8889V4.1111C29.3333 3.61999 28.9333 3.22221 28.4444 3.22221H3.55556C3.06444 3.22221 2.66667 3.61999 2.66667 4.1111Z" fill="#252525"/>
</svg>
