 <svg version="1.0" xmlns="http://www.w3.org/2000/svg" width="700.000000pt" height="700.000000pt" viewBox="0 0 700.000000 700.000000" preserveAspectRatio="xMidYMid meet">
<metadata>
Created by potrace 1.12, written by Peter Selinger 2001-2015
</metadata>
<g transform="translate(0.000000,700.000000) scale(0.100000,-0.100000)" fill="#000000" stroke="none">
<path d="M3300 6993 c-267 -26 -518 -86 -730 -175 -726 -304 -1258 -918 -1451
-1671 -53 -209 -63 -299 -63 -567 -1 -279 9 -369 66 -620 207 -915 879 -2114
1912 -3410 98 -124 222 -276 275 -338 53 -62 113 -134 135 -160 21 -26 42 -49
47 -50 5 -2 9 768 9 1837 l0 1841 -57 0 c-143 0 -366 88 -496 195 -144 119
-258 303 -297 480 -27 122 -27 282 0 395 27 111 104 268 174 352 149 180 371
297 601 317 l70 6 3 788 2 787 -82 -2 c-46 0 -99 -3 -118 -5z"></path>
</g>
</svg>