<svg width="24" height="29" viewBox="0 0 24 29" fill="none" xmlns="http://www.w3.org/2000/svg">
<path d="M23.7375 13.1062C23.5438 13.3312 23.2688 13.4437 23 13.4437C22.7598 13.4437 22.5186 13.3546 22.3269 13.1744L13 4.38248V27.9637C13 28.5369 12.5528 29.0006 12.0563 29.0006C11.5598 29.0006 11 28.5375 11 27.9625V4.38248L1.675 13.1762C1.26563 13.5062 0.633753 13.5312 0.259753 13.1062C-0.111309 12.6812 -0.0810591 12.025 0.327128 11.6375L11.3271 1.26873C11.708 0.908227 12.2921 0.908227 12.6728 1.26873L23.6728 11.6375C24.0813 12.025 24.1125 12.6812 23.7375 13.1062Z" fill="#252525"/>
</svg>
