<svg width="25" height="24" viewBox="0 0 25 24" fill="none" xmlns="http://www.w3.org/2000/svg">
<path d="M10.25 7.5C9.8375 7.5 9.5 7.8375 9.5 8.25V15.75C9.5 16.1625 9.8375 16.5 10.25 16.5C10.6625 16.5 11 16.1625 11 15.75V8.25C11 7.8375 10.6625 7.5 10.25 7.5ZM14.75 7.5C14.3375 7.5 14 7.8375 14 8.25V15.75C14 16.1646 14.3354 16.5 14.75 16.5C15.1646 16.5 15.5 16.1646 15.5 15.75V8.25C15.5 7.8375 15.1625 7.5 14.75 7.5ZM12.5 0C5.87188 0 0.5 5.37188 0.5 12C0.5 18.6281 5.87188 24 12.5 24C19.1281 24 24.5 18.6281 24.5 12C24.5 5.37188 19.1281 0 12.5 0ZM12.5 22.5C6.71094 22.5 2 17.7891 2 12C2 6.21094 6.71094 1.5 12.5 1.5C18.2891 1.5 23 6.21094 23 12C23 17.7891 18.2891 22.5 12.5 22.5Z" fill="white"/>
</svg>
