<svg width="32" height="26" viewBox="0 0 32 26" fill="none" xmlns="http://www.w3.org/2000/svg">
<path d="M4.74599 2.6545L5.88499 0.856503C6.13999 0.449003 6.59499 0.200053 7.07999 0.200053H24.92C25.405 0.200053 25.86 0.448953 26.115 0.856503L28.98 5.39C30.465 7.735 29.15 10.99 26.375 11.36C26.18 11.385 25.98 11.4 25.77 11.4C24.79 11.4 23.89 11.075 23.165 10.54C22.925 10.365 22.71 10.17 22.515 9.95C22.32 10.165 22.105 10.36 21.87 10.535C21.145 11.075 20.24 11.4 19.255 11.4C18.275 11.4 17.38 11.08 16.655 10.505C16.415 10.37 16.195 10.17 15.995 9.95C15.795 10.17 15.575 10.37 15.335 10.505C15.245 10.615 15.15 10.68 15.06 10.735L23.005 17H24.8V12.92C25.115 12.975 25.44 13 25.77 13C26.05 13 26.32 12.98 26.585 12.945C26.755 12.92 27 12.88 27.2 12.83V20.255L31.54 23.655C32.06 24.065 32.155 24.82 31.745 25.34C31.335 25.86 30.58 25.955 30.06 25.545L0.459791 2.3445C-0.061809 1.9355 -0.153259 1.1815 0.255591 0.659803C0.664491 0.138203 1.41849 0.0467532 1.94049 0.455603L4.74599 2.6545ZM6.64499 4.143L12.84 8.995C13.39 8.97 13.87 8.72 14.215 8.34C14.67 7.84 15.315 7.55 15.995 7.55C16.675 7.55 17.32 7.84 17.775 8.34C18.14 8.745 18.665 9 19.255 9C19.845 9 20.365 8.745 20.73 8.34C21.185 7.84 21.83 7.55 22.51 7.55C23.185 7.55 23.835 7.835 24.29 8.34C24.66 8.745 25.185 9 25.77 9C25.87 9 25.965 8.995 26.065 8.98C26.515 8.92 26.87 8.64 27.065 8.18C27.27 7.655 27.245 7.135 26.955 6.675L24.38 2.6H7.61999L6.64499 4.143ZM2.44499 6.925L7.76499 11.12C7.28499 11.3 6.76499 11.4 6.21999 11.4C6.01499 11.4 5.80999 11.385 5.60999 11.36C3.41799 11.065 2.14099 8.955 2.44499 6.925ZM7.19999 19.4V22.6C7.19999 23.04 7.55999 23.4 7.99999 23.4H23.355L25.745 25.285C25.24 25.61 24.645 25.8 24 25.8H7.99999C6.23499 25.8 4.79999 24.365 4.79999 22.6V12.83C4.99349 12.88 5.19499 12.92 5.35499 12.945H5.40499C5.66499 12.98 5.93999 13 6.21999 13C6.55499 13 6.87999 12.975 7.19999 12.92V17H15.23L18.275 19.4H7.19999Z" fill="#252525"/>
</svg>
