<svg width="32" height="26" viewBox="0 0 32 26" fill="none" xmlns="http://www.w3.org/2000/svg">
<path d="M3.2 2.60001C3.2 1.27451 4.2745 0.200012 5.6 0.200012H18.4C19.725 0.200012 20.8 1.27451 20.8 2.60001V13H30.4V17.8C31.285 17.8 32 18.515 32 19.4C32 20.285 31.285 21 30.4 21H28.8C28.8 23.65 26.65 25.8 24 25.8C21.305 25.8 19.2 23.65 19.2 21H12.8C12.8 23.65 10.65 25.8 8 25.8C5.305 25.8 3.2 23.65 3.2 21V14.6H10.4C10.84 14.6 11.2 14.24 11.2 13.8C11.2 13.36 10.84 13 10.4 13H0.8C0.3582 13 0 12.64 0 12.2C0 11.76 0.3582 11.4 0.8 11.4H12C12.44 11.4 12.8 11.04 12.8 10.6C12.8 10.16 12.44 9.80001 12 9.80001H2.4C1.958 9.80001 1.6 9.44001 1.6 9.00001C1.6 8.56001 1.958 8.20001 2.4 8.20001H13.6C14.04 8.20001 14.4 7.84001 14.4 7.40001C14.4 6.96001 14.04 6.60001 13.6 6.60001H0.8C0.3582 6.60001 0 6.24001 0 5.80001C0 5.36001 0.3582 5.00001 0.8 5.00001H3.2V2.60001ZM8 23.4C9.325 23.4 10.4 22.325 10.4 21C10.4 19.675 9.325 18.6 8 18.6C6.675 18.6 5.6 19.675 5.6 21C5.6 22.325 6.675 23.4 8 23.4ZM24 18.6C22.675 18.6 21.6 19.675 21.6 21C21.6 22.325 22.675 23.4 24 23.4C25.325 23.4 26.4 22.325 26.4 21C26.4 19.675 25.325 18.6 24 18.6ZM23.335 8.20001H20V5.00001H23.335C24.185 5.00001 24.955 5.33501 25.6 5.93501L29.465 9.80001C30.065 10.4 30.4 11.215 30.4 12.065V14.6H27.2V12.065L23.335 8.20001Z" fill="#252525"/>
</svg>
