<svg width="32" height="32" viewBox="0 0 32 32" fill="none" xmlns="http://www.w3.org/2000/svg">
<path d="M16 7C12.9625 7 10.5 9.4625 10.5 12.5C10.5 15.5375 12.9625 18 16 18C19.0375 18 21.5 15.5375 21.5 12.5C21.5 9.4625 19.0375 7 16 7ZM16 15C14.6213 15 13.5 13.8781 13.5 12.5C13.5 11.1187 14.6187 10 16 10C17.3813 10 18.5 11.1213 18.5 12.5C18.5 13.8813 17.3813 15 16 15ZM16 0C7.1625 0 0 7.1625 0 16C0 24.8375 7.1625 32 16 32C24.8375 32 32 24.8375 32 16C32 7.1625 24.8375 0 16 0ZM16 29C13.0794 29 10.39 28.02 8.21875 26.3881C9.3 24.3125 11.4 23 13.7625 23H18.2431C20.6025 23 22.7 24.3131 23.7856 26.3881C21.6125 28.0187 18.9188 29 16 29ZM26.0125 24.2812C24.325 21.6437 21.45 20 18.2375 20H13.7625C10.5525 20 7.67813 21.6406 5.9875 24.28C4.1225 22.0312 3 19.1437 3 16C3 8.83125 8.83187 3 16 3C23.1681 3 29 8.83187 29 16C29 19.1437 27.875 22.0312 26.0125 24.2812Z" fill="#252525"/>
</svg>
