<svg width="32" height="26" viewBox="0 0 32 26" fill="none" xmlns="http://www.w3.org/2000/svg">
<path d="M4.74599 2.6545L5.88499 0.856503C6.13999 0.449003 6.59499 0.200038 7.07999 0.200038H24.92C25.405 0.200038 25.86 0.448953 26.115 0.856503L28.98 5.39C30.465 7.735 29.15 10.99 26.375 11.36C26.18 11.385 25.98 11.4 25.77 11.4C24.47 11.4 23.31 10.83 22.515 9.95C21.72 10.83 20.56 11.4 19.255 11.4C17.95 11.4 16.79 10.83 15.995 9.95C15.72 10.255 15.405 10.52 15.06 10.735L24 17.745V12.735C24.56 12.905 25.155 13 25.77 13C26.05 13 26.32 12.98 26.585 12.945C26.755 12.92 27 12.88 27.2 12.83V20.255L31.54 23.655C32.06 24.065 32.155 24.82 31.745 25.34C31.335 25.86 30.58 25.955 30.06 25.545L0.459791 2.3445C-0.061809 1.9355 -0.153259 1.1815 0.255591 0.659803C0.664491 0.138203 1.41849 0.0467532 1.94049 0.455603L4.74599 2.6545ZM5.60999 11.36C3.41799 11.065 2.14099 8.955 2.44499 6.925L7.76499 11.12C7.28499 11.3 6.76499 11.4 6.21999 11.4C6.01499 11.4 5.80999 11.385 5.60999 11.36ZM7.99999 19.4H18.275L25.745 25.285C25.24 25.61 24.645 25.8 24 25.8H7.99999C6.23499 25.8 4.79999 24.365 4.79999 22.6V12.83C4.99349 12.88 5.19499 12.92 5.35499 12.945H5.40499C5.66499 12.98 5.93999 13 6.21999 13C6.83999 13 7.43999 12.905 7.99999 12.73V19.4Z" fill="#252525"/>
</svg>
