<svg width="32" height="28" viewBox="0 0 32 28" fill="none" xmlns="http://www.w3.org/2000/svg">
<path d="M6 9.94372H2C0.895625 9.94372 0 10.8393 0 11.8875V25.8312C0 26.9356 0.895625 27.775 2 27.775H6C7.10438 27.775 8 26.8794 8 25.8312V11.9437C8 10.8937 7.10625 9.94372 6 9.94372ZM32 12.1875C32 9.88185 30.1219 8.00497 27.8144 8.00497H21.5731C22.1688 6.44372 22.5 5.09372 22.5 4.29997C22.5 2.18747 20.8625 0.0012207 18.1213 0.0012207C15.2081 0.0012207 14.4113 2.02872 13.7706 3.65747C11.7919 8.68872 10 7.80685 10 9.49935C10 10.3018 10.6475 10.9987 11.5013 10.9987C11.8298 10.9987 12.1606 10.8912 12.4369 10.67C17.2344 6.83435 16.06 3.00122 18.1213 3.00122C19.1263 3.00122 19.5 3.7981 19.5 4.3006C19.5 4.76335 19.0254 6.77247 17.9031 8.77497C17.7753 9.00285 17.7115 9.25535 17.7115 9.50747C17.7115 10.3775 18.4259 10.9512 19.2115 10.9512H27.8115C28.4688 11.0062 29 11.5375 29 12.1875C29 12.8005 28.5146 13.3144 27.8956 13.3569C27.1044 13.4106 26.4981 14.0694 26.4981 14.8531C26.4981 15.82 27.21 15.85 27.21 16.66C27.21 18.2456 25.0206 17.4312 25.0206 19.2944C25.0206 19.9956 25.4201 20.1087 25.4201 20.685C25.4201 22.1012 23.5595 21.545 23.5595 23.225C23.5595 23.5072 23.6289 23.5975 23.6289 23.816C23.6289 24.4691 23.0966 25.0004 22.4433 25.0004H19.1601C17.5589 25.0004 15.9714 24.4712 14.6914 23.5122L12.4001 21.7929C12.1304 21.59 11.8145 21.4922 11.5014 21.4922C10.6358 21.4922 9.9995 22.2034 9.9995 22.9947C9.9995 23.4501 10.2065 23.8959 10.5992 24.1903L12.8911 25.9103C14.6875 27.2562 16.9125 28 19.1625 28H22.4456C24.6538 28 26.4681 26.2819 26.6206 24.1125C27.7312 23.3481 28.4225 22.0806 28.4225 20.6856C28.4225 20.4952 28.4088 20.3039 28.3825 20.1155C29.4975 19.3561 30.2125 18.0792 30.2125 16.6605C30.2125 16.3285 30.1724 16.0017 30.0953 15.683C31.2438 14.8812 32 13.6375 32 12.1875Z" fill="#252525"/>
</svg>
