<svg width="32" height="26" viewBox="0 0 32 26" fill="none" xmlns="http://www.w3.org/2000/svg">
<path d="M15.95 9.39445C16.4889 9.39445 16.8889 9.84445 16.8889 10.2833V14.7278H17.3333C17.8222 14.7278 18.2222 15.1778 18.2222 15.6167C18.2222 16.1556 17.8222 16.5056 17.3333 16.5056H14.6167C14.1778 16.5056 13.7278 16.1556 13.7278 15.6167C13.7278 15.1778 14.1778 14.7278 14.6167 14.7278H15.0611V11.1722C14.6222 11.1722 14.1722 10.8222 14.1722 10.2833C14.1722 9.84445 14.6222 9.39445 15.0611 9.39445H15.95ZM22.2222 12.95C22.2222 16.5611 19.7278 20.1111 15.95 20.1111C12.2722 20.1111 9.72778 16.5611 9.72778 12.95C9.72778 9.38889 12.2722 5.8389 15.95 5.8389C19.7278 5.8389 22.2222 9.38889 22.2222 12.95ZM15.95 18.3333C18.4556 18.3333 20.4444 15.9444 20.4444 12.95C20.4444 10.0056 18.4556 7.61667 15.95 7.61667C13.5444 7.61667 11.5056 10.0056 11.5056 12.95C11.5056 15.9444 13.5444 18.3333 15.95 18.3333ZM2.70333 3.1739C7.13333 4.38334 11.5667 3.25501 16 2.12501C20.8333 0.893343 25.6667 -0.338879 30.5 1.46556C31.4389 1.81612 32 2.75668 32 3.7589V20.9722C32 22.3 30.5778 23.1778 29.2944 22.8278C24.8667 21.6167 20.4333 22.7444 16 23.8722C11.1167 25.1056 6.28333 26.3389 1.49833 24.5333C0.558889 24.1833 0 23.2444 0 22.2389V5.02779C0 3.69945 1.42278 2.8239 2.70333 3.1739ZM1.72778 5.02779V8.95001C3.74167 8.95001 5.28333 7.40556 5.28333 5.39445V5.41667C4.30556 5.3389 3.27111 5.17223 2.235 4.8389C2.11444 4.85556 1.96389 4.87779 1.85222 4.95556C1.80278 4.9889 1.78278 5.01667 1.77833 5.02223L1.72778 5.02779ZM2.12 22.8667C3.18333 23.2667 4.25167 23.45 5.28333 23.6V23.2222C5.28333 21.2611 3.74167 19.6667 1.72778 19.6667V22.2389C1.72778 22.6222 1.98111 22.8167 2.12 22.8667ZM7.06111 23.6611C9.59444 23.5611 12.1722 23.0111 14.9611 22.3056C15.2 22.2444 15.4389 22.1833 15.6833 22.1222C18.5611 21.3833 21.6778 20.5889 24.8889 20.5333C24.9 17.6 27.2833 15.1722 30.2222 15.1722V8.06112C27.2278 8.06112 24.8889 5.72223 24.8889 2.72779V2.33612C22.4056 2.38945 19.8278 2.98779 17.0389 3.69501C16.8 3.75556 16.5611 3.81723 16.3167 3.8789C13.4389 4.61667 10.3222 5.41112 7.06111 5.46667C7.1 8.40001 4.71556 10.7278 1.72778 10.7278V17.8889C4.72333 17.8889 7.06111 20.2278 7.06111 23.2222V23.6611ZM26.6667 20.5833C27.6944 20.6611 28.7278 20.8278 29.7667 21.1111C29.8833 21.1444 30.0333 21.1222 30.15 21.0444C30.2 21.0111 30.2167 20.9833 30.1722 20.9778C30.2222 20.9778 30.1722 20.9778 30.1722 20.9778C30.1722 20.9778 30.2222 20.9778 30.2222 20.9722V17C28.2611 17 26.6667 18.5944 26.6667 20.5556V20.5833ZM26.6667 2.39834V2.72779C26.6667 4.7389 28.2611 6.28334 30.2222 6.28334V3.7589C30.2222 3.3789 30.0167 3.18279 29.8778 3.13112C28.8167 2.7339 27.75 2.50223 26.6667 2.39834Z" fill="#252525"/>
</svg>
