<svg width="32" height="26" viewBox="0 0 32 26" fill="none" xmlns="http://www.w3.org/2000/svg">
<path d="M31.8056 12.0055C28.7944 5.19443 22.8278 0.555542 16 0.555542C9.17222 0.555542 3.205 5.19999 0.192722 12.0055C0.0868333 12.3 0 12.7222 0 13C0 13.2765 0.0867778 13.7 0.192722 13.9461C3.20667 20.8055 9.17222 25.4444 16 25.4444C22.8278 25.4444 28.7944 20.8011 31.8056 13.9944C31.9111 13.7 32 13.2278 32 13C32 12.7222 31.9111 12.3 31.8056 12.0055ZM16 22.7778C10.4733 22.7778 5.37778 19.0278 2.68889 13.05C5.38944 6.96665 10.4778 3.22221 16 3.22221C21.5267 3.22221 26.6222 6.97221 29.3111 12.95C26.5611 19.0333 21.5222 22.7778 16 22.7778ZM16 5.88888C12.0722 5.88888 8.88889 9.07221 8.88889 13C8.88889 16.9278 12.0739 20.1111 16 20.1111C19.9244 20.1111 23.1111 16.9267 23.1111 13.0055C23.1111 9.07776 19.9278 5.88888 16 5.88888ZM16 17.4444C13.5494 17.4444 11.5556 15.4505 11.5556 13C11.5556 12.9584 11.5666 12.9199 11.5678 12.8787C11.85 12.95 12.1389 13 12.4444 13C14.4083 13 16 11.4083 16 9.44443C16 9.13999 15.9514 8.84888 15.8787 8.56776C15.9222 8.56665 15.9611 8.55554 16 8.55554C18.4506 8.55554 20.4444 10.5494 20.4444 13.0028C20.4444 15.45 18.45 17.4444 16 17.4444Z" fill="#252525"/>
</svg>
