<svg width="12" height="16" viewBox="0 0 12 16" fill="none" xmlns="http://www.w3.org/2000/svg">
<path d="M10.75 6C10.3344 6 10 6.33438 10 6.72188V8C10 10.3359 7.98438 12.2156 5.6 11.9812C3.525 11.7781 2 9.90938 2 7.81875V6.72188C2 6.33438 1.66406 6 1.25 6C0.835938 6 0.5 6.33438 0.5 6.72188V7.72656C0.5 10.5275 2.5 13.0266 5.25 13.4047V14.5H3.72187C3.33437 14.5 3 14.8344 3 15.2219C3 15.6094 3.33437 16 3.72187 16H8.22188C8.66563 16 9 15.6656 9 15.25C9 14.8344 8.66562 14.5 8.25 14.5H6.75V13.4447C9.43125 13.0781 11.5 10.7781 11.5 8V6.72188C11.5 6.33438 11.1656 6 10.75 6ZM6 11C7.65625 11 9 9.65625 9 8V3C9 1.37188 7.65625 0 6 0C4.34375 0 3 1.34375 3 3V8C3 9.65625 4.34375 11 6 11ZM4.5 3C4.5 2.17188 5.17188 1.5 6 1.5C6.82812 1.5 7.5 2.17188 7.5 3V8C7.5 8.82812 6.82812 9.5 6 9.5C5.17188 9.5 4.5 8.82812 4.5 8V3Z" fill="#7F8695"/>
</svg>
