<svg width="24" height="32" viewBox="0 0 24 32" fill="none" xmlns="http://www.w3.org/2000/svg">
<path d="M22.4 0.205585L20 3.0019L16.6012 0.205648C16.2419 -0.067727 15.7575 -0.067727 15.3981 0.205648L12 3.0019L8.6 0.205585C8.24063 -0.0677895 7.75625 -0.0677895 7.39688 0.205585L4 3.0019L1.60188 0.205585C0.9375 -0.294352 0 0.174336 0 1.00252V30.9963C0 31.8244 0.9375 32.2931 1.60125 31.7931L4 28.9438L7.39875 31.74C7.75813 32.0134 8.2425 32.0134 8.60188 31.74L12 28.9438L15.3988 31.74C15.7581 32.0134 16.2425 32.0134 16.6019 31.74L20 28.9438L22.3988 31.74C23.0562 32.2938 24 31.825 24 30.9438V1.00252C24 0.174336 23.0625 -0.294352 22.4 0.205585ZM19 22.9438H5C4.44775 22.9438 4 22.4965 4 21.9444C4 21.3921 4.44794 20.9438 5 20.9438H19C19.5524 20.9438 19.9438 21.3919 19.9438 21.9444C20 22.55 19.5562 22.9438 19 22.9438ZM19 16.9438H5C4.44775 16.9438 4 16.4964 4 15.9444C4 15.3921 4.44794 14.9444 5 14.9444H19C19.5524 14.9444 19.9438 15.3923 19.9438 15.9444C20 16.55 19.5562 16.9438 19 16.9438ZM19 10.9438H5C4.44775 10.9438 4 10.4963 4 9.9444C4 9.39209 4.44794 8.9444 5 8.9444H19C19.5524 8.9444 19.9438 9.39221 19.9438 9.9444C20 10.55 19.5562 10.9438 19 10.9438Z" fill="#252525"/>
</svg>
