<svg width="318" height="115" viewBox="0 0 318 115" fill="none" xmlns="http://www.w3.org/2000/svg">
<g clip-path="url(#clip0_1_50)">
<path d="M37.79 5L32.69 14.65C27.07 11.77 22.43 10.32 19.16 10.32C17.26 10.32 16.04 11 16.04 12.32C16 17 37.63 14.9 37.63 29C37.63 37.52 30.26 42.69 19.46 42.69C12.5236 42.8381 5.71612 40.8021 0 36.87L4.71 27.22C9.88 30.56 15.13 32.31 19.71 32.31C21.71 32.31 23.13 31.7 23.13 30.41C23.11 25.7 2 28 2 13.84C2 5.17 9.2 0 19.62 0C26.0106 0.0422527 32.2775 1.76675 37.79 5Z" fill="white"/>
<path d="M83.86 15.81V42H68.51V20.22C68.51 16.12 66.15 13.53 62.58 13.53C58.39 13.61 55.81 16.88 55.81 21.59V42H40.45V0.679999H55.81V7.07C57.1868 4.83509 59.1351 3.00809 61.4537 1.77757C63.7724 0.54704 66.3774 -0.0424293 69 0.0699992C77.78 0.0799992 83.86 6.23 83.86 15.81Z" fill="white"/>
<path d="M129 15.21V42H114V37.48C111.49 40.83 107.38 42.73 101.91 42.73C93.09 42.73 87.91 37.48 87.91 29.73C87.91 21.73 93.46 17.33 103.91 17.18H114V17C114 13.58 111.56 11.53 106.85 11.53C102.539 11.7213 98.3059 12.7398 94.38 14.53L90.56 4.33C96.8669 1.65172 103.629 0.208946 110.48 0.0800018C122.11 0.0800018 129 5.63 129 15.21ZM114 28.44V24.71H107C104 24.71 102.36 26 102.36 28.59C102.36 31.18 104.04 32.69 107 32.69C108.453 32.735 109.888 32.3575 111.13 31.6031C112.373 30.8487 113.37 29.7499 114 28.44V28.44Z" fill="white"/>
<path d="M179.6 21.59C179.6 34.29 172.22 42.59 160.82 42.59C158.591 42.6535 156.377 42.2062 154.347 41.2824C152.318 40.3585 150.526 38.9827 149.11 37.26V56.79H133.75V0.680001H149.11V5.47C150.461 3.77023 152.186 2.40566 154.152 1.48282C156.117 0.559985 158.269 0.103842 160.44 0.150001C172 0.150001 179.6 8.67 179.6 21.59ZM164.08 21.21C164.08 15.74 161.08 12.01 156.56 12.01C152.04 12.01 149.11 15.74 149.11 21.21C149.11 26.68 152.11 30.41 156.56 30.41C161.01 30.41 164.08 26.69 164.08 21.21V21.21Z" fill="white"/>
<path d="M228.11 21.59C228.11 34.29 220.73 42.59 209.33 42.59C207.101 42.6535 204.887 42.2062 202.857 41.2824C200.828 40.3585 199.036 38.9827 197.62 37.26V56.79H182.26V0.679998H197.62V5.47C198.976 3.7634 200.71 2.39471 202.684 1.47158C204.659 0.548449 206.821 0.0960614 209 0.149998C220.51 0.149998 228.11 8.67 228.11 21.59ZM212.6 21.21C212.6 15.74 209.6 12.01 205.07 12.01C200.54 12.01 197.62 15.74 197.62 21.21C197.62 26.68 200.62 30.41 205.07 30.41C209.52 30.41 212.6 26.69 212.6 21.21V21.21Z" fill="white"/>
<path d="M253.81 45.54C250.54 53.68 244.91 57.48 236.63 57.48C231.798 57.5514 227.093 55.9392 223.32 52.92L229.71 42.65C230.435 43.3871 231.299 43.9741 232.251 44.3773C233.203 44.7806 234.226 44.9922 235.26 45C236.188 45.0588 237.111 44.8363 237.911 44.3618C238.71 43.8872 239.348 43.1826 239.74 42.34L240.5 40.89L223.4 0.68H239.14L248.14 26L255.86 0.68H271.14L253.81 45.54Z" fill="white"/>
<path d="M37.79 63L32.69 72.66C27.07 69.77 22.43 68.32 19.16 68.32C17.26 68.32 16.04 69.01 16.04 70.32C16 74.91 37.63 72.85 37.63 87C37.63 95.52 30.26 100.69 19.46 100.69C12.5201 100.82 5.71404 98.7707 0 94.83L4.71 85.17C9.88 88.52 15.13 90.26 19.71 90.26C21.71 90.26 23.13 89.66 23.13 88.36C23.11 83.65 2 85.93 2 71.79C2 63.12 9.2 58 19.62 58C26.0106 58.0423 32.2775 59.7667 37.79 63V63Z" fill="white"/>
<path d="M84.24 73.77V100H68.89V78.18C68.89 74.07 66.61 71.49 62.96 71.49C58.78 71.56 56.19 74.83 56.19 79.54V100H40.83V43.58H56.19V65C57.5634 62.7712 59.5054 60.9481 61.8164 59.7179C64.1273 58.4877 66.7241 57.8948 69.34 58C78.24 58 84.24 64.19 84.24 73.77Z" fill="white"/>
<path d="M131.39 79.32C131.39 92.09 122.39 100.53 108.39 100.53C94.39 100.53 85.39 92.09 85.39 79.32C85.39 66.55 94.51 58.1 108.39 58.1C122.27 58.1 131.39 66.47 131.39 79.32ZM100.9 79.47C100.9 85.02 103.9 88.67 108.43 88.67C112.96 88.67 115.88 85.02 115.88 79.47C115.88 73.92 112.88 70.27 108.43 70.27C103.98 70.27 100.9 74 100.9 79.47V79.47Z" fill="white"/>
<path d="M179.9 79.54C179.9 92.24 172.53 100.54 161.12 100.54C158.892 100.602 156.679 100.156 154.65 99.2338C152.621 98.3119 150.829 96.9391 149.41 95.22V114.76H134.05V58.64H149.41V63.43C150.76 61.729 152.486 60.3629 154.451 59.4384C156.416 58.5138 158.569 58.0558 160.74 58.1C172.3 58.1 179.9 66.62 179.9 79.54ZM164.39 79.16C164.39 73.69 161.39 69.96 156.86 69.96C152.33 69.96 149.41 73.69 149.41 79.16C149.41 84.63 152.41 88.36 156.86 88.36C161.31 88.36 164.39 84.64 164.39 79.16V79.16Z" fill="white"/>
<path d="M228.41 79.54C228.41 92.24 221.04 100.54 209.63 100.54C207.402 100.599 205.191 100.151 203.162 99.2297C201.133 98.308 199.341 96.9368 197.92 95.22V114.76H182.57V58.64H197.92V63.43C199.274 61.7324 200.999 60.3688 202.964 59.4446C204.928 58.5204 207.079 58.0604 209.25 58.1C220.81 58.1 228.41 66.62 228.41 79.54ZM212.9 79.16C212.9 73.69 209.9 69.96 205.37 69.96C200.84 69.96 197.92 73.69 197.92 79.16C197.92 84.63 200.97 88.36 205.37 88.36C209.94 88.36 212.9 84.64 212.9 79.16Z" fill="white"/>
<path d="M270.84 83H243C244.22 87 247.11 89.16 251.06 89.16C254.5 89.0292 257.762 87.5999 260.19 85.16L268.19 92.99C263.86 97.78 257.62 100.44 249.79 100.44C235.95 100.44 227.51 92.08 227.51 79.38C227.51 66.45 236.26 58.01 249.33 58.01C263.85 58.1 271.75 67.84 270.84 83ZM255.71 75.47C255.79 71.37 253.2 68.47 249.48 68.47C245.76 68.47 243.48 71.28 242.71 75.47H255.71Z" fill="white"/>
<path d="M288.56 65.17C289.906 62.9407 291.818 61.1064 294.1 59.8527C296.383 58.5989 298.956 57.9702 301.56 58.03V71.86C293.66 70.86 288.56 74.22 288.56 80.23V100H273.2V58.64H288.56V65.17Z" fill="white"/>
<path d="M279.05 8.86C279.39 7.42 280.63 5.66 282.1 5.66H286.17C286.17 9.81 286.88 9.81 287.73 9.81H297.1C297.96 9.81 298.67 9.81 298.67 5.66H302.74C304.21 5.66 305.45 7.42 305.79 8.86L308.06 19.67H311.28L308.82 7.9C308.19 5 305.67 2 302.74 2H282.1C279.17 2 276.65 5 276.02 7.88L273.55 19.65H276.78L279.05 8.86Z" fill="white"/>
<path d="M283.62 39.52C282.25 39.522 280.911 39.9301 279.773 40.6928C278.634 41.4555 277.748 42.5385 277.225 43.8049C276.702 45.0714 276.566 46.4645 276.834 47.8081C277.103 49.1517 277.764 50.3856 278.733 51.3538C279.703 52.322 280.938 52.981 282.282 53.2476C283.626 53.5142 285.019 53.3763 286.284 52.8515C287.55 52.3267 288.632 51.4385 289.393 50.2991C290.154 49.1596 290.56 47.8202 290.56 46.45C290.56 45.5391 290.38 44.6371 290.032 43.7957C289.683 42.9543 289.171 42.1899 288.527 41.5462C287.882 40.9026 287.117 40.3923 286.275 40.0446C285.433 39.697 284.531 39.5187 283.62 39.52V39.52ZM286 46.45C286 46.9148 285.862 47.3691 285.604 47.7556C285.346 48.142 284.979 48.4433 284.549 48.6211C284.12 48.799 283.647 48.8455 283.192 48.7548C282.736 48.6642 282.317 48.4404 281.988 48.1117C281.66 47.783 281.436 47.3643 281.345 46.9085C281.254 46.4526 281.301 45.9801 281.479 45.5507C281.657 45.1213 281.958 44.7543 282.344 44.496C282.731 44.2378 283.185 44.1 283.65 44.1C283.959 44.1 284.264 44.1608 284.549 44.2789C284.834 44.397 285.093 44.5701 285.312 44.7883C285.53 45.0065 285.703 45.2656 285.821 45.5507C285.939 45.8358 286 46.1414 286 46.45V46.45Z" fill="white"/>
<path d="M301.21 39.52C299.839 39.52 298.5 39.9264 297.36 40.6879C296.22 41.4494 295.332 42.5317 294.808 43.798C294.283 45.0643 294.146 46.4577 294.413 47.802C294.681 49.1463 295.341 50.3811 296.31 51.3503C297.279 52.3194 298.514 52.9794 299.858 53.2468C301.202 53.5142 302.596 53.377 303.862 52.8525C305.128 52.328 306.211 51.4397 306.972 50.3001C307.734 49.1605 308.14 47.8206 308.14 46.45V46.45C308.14 44.6121 307.41 42.8494 306.11 41.5498C304.811 40.2501 303.048 39.52 301.21 39.52V39.52ZM303.56 46.45C303.56 46.9148 303.422 47.3691 303.164 47.7556C302.906 48.142 302.539 48.4433 302.109 48.6211C301.68 48.799 301.207 48.8455 300.752 48.7548C300.296 48.6642 299.877 48.4404 299.548 48.1117C299.22 47.783 298.996 47.3643 298.905 46.9085C298.814 46.4526 298.861 45.9801 299.039 45.5507C299.217 45.1213 299.518 44.7543 299.904 44.496C300.291 44.2378 300.745 44.1 301.21 44.1C301.833 44.1 302.431 44.3476 302.872 44.7883C303.312 45.229 303.56 45.8267 303.56 46.45V46.45Z" fill="white"/>
<path d="M314.29 19.67H270.55C270.139 19.6438 269.727 19.6992 269.338 19.833C268.948 19.9668 268.589 20.1763 268.281 20.4494C267.973 20.7226 267.722 21.054 267.543 21.4246C267.364 21.7952 267.26 22.1976 267.237 22.6087C267.213 23.0197 267.272 23.4313 267.409 23.8196C267.545 24.208 267.757 24.5654 268.033 24.8714C268.308 25.1773 268.642 25.4257 269.014 25.6023C269.386 25.7788 269.789 25.88 270.2 25.9C270.316 25.9102 270.434 25.9102 270.55 25.9H270.92L273.72 42.55C273.934 43.6308 274.567 44.5832 275.48 45.2C275.727 43.16 276.726 41.2855 278.281 39.9424C279.837 38.5994 281.837 37.8842 283.891 37.9367C285.945 37.9892 287.906 38.8055 289.391 40.2262C290.875 41.6469 291.777 43.5701 291.92 45.62H292.92C293.075 43.5772 293.983 41.6646 295.467 40.2527C296.952 38.8409 298.907 38.0303 300.955 37.978C303.003 37.9257 304.998 38.6354 306.552 39.9697C308.107 41.304 309.111 43.1678 309.37 45.2C310.28 44.5821 310.909 43.6296 311.12 42.55L313.93 25.9H314.3C315.122 25.94 315.927 25.6533 316.539 25.1023C317.151 24.5513 317.52 23.7808 317.567 22.9587C317.613 22.1366 317.332 21.3295 316.786 20.7135C316.239 20.0975 315.472 19.7224 314.65 19.67C314.534 19.6598 314.416 19.6598 314.3 19.67H314.29ZM278.14 27.67H278.24C278.363 27.65 278.487 27.65 278.61 27.67H278.14ZM306.23 27.67C306.353 27.65 306.477 27.65 306.6 27.67H306.23Z" fill="white"/>
<path d="M278.14 27.72H278.61C278.487 27.7 278.363 27.7 278.24 27.72H278.14Z" fill="white"/>
<path d="M306.23 27.72H306.6C306.477 27.7 306.353 27.7 306.23 27.72V27.72Z" fill="white"/>
</g>
<defs>
<clipPath id="clip0_1_50">
<rect width="318" height="115" fill="white"/>
</clipPath>
</defs>
</svg>
