<svg width="32" height="32" viewBox="0 0 32 32" fill="none" xmlns="http://www.w3.org/2000/svg">
<path d="M31.5062 19.6938C31.5062 19.153 31.2183 18.6412 30.7337 18.3569L28.6768 17.1712C28.7187 16.8187 28.7375 16.4062 28.7375 16C28.7375 15.5938 28.7173 15.1813 28.6769 14.7738L30.7338 13.5881C31.2183 13.3039 31.5063 12.7919 31.5063 12.2513C31.5063 10.9219 28.4238 4.23875 26.2238 4.23875C25.9586 4.23875 25.6919 4.30713 25.4507 4.44856L23.4019 5.63419C22.7326 5.15031 22.0226 4.73919 21.2726 4.40044V2.03063C21.2726 1.32875 20.8048 0.715625 20.1269 0.538125C18.7812 0.179438 17.3937 0 16 0C14.6125 0 13.2187 0.179438 11.8687 0.538313C11.1937 0.715625 10.725 1.32875 10.725 2.03063V4.40187C9.97496 4.74062 9.26496 5.15187 8.59559 5.63562L6.54684 4.45C6.30621 4.30875 6.03934 4.24063 5.77371 4.24063C3.74496 4.24063 0.491211 10.5969 0.491211 12.2531C0.491211 12.7939 0.779148 13.3056 1.26371 13.59L3.32059 14.7756C3.28059 15.1813 3.26059 15.5938 3.26059 16C3.26059 16.4062 3.28076 16.8187 3.3211 17.2262L1.26434 18.4125C0.779336 18.6938 0.491648 19.2063 0.491648 19.6938C0.491648 21.0231 3.57415 27.7062 5.77415 27.7062C6.0394 27.7062 6.30602 27.6379 6.54727 27.4964L8.59602 26.3108C9.2654 26.7947 9.9754 27.2058 10.7254 27.5446V29.9158C10.7254 30.6177 11.1931 31.2308 11.871 31.4083C13.2187 31.8187 14.6062 32 15.9437 32C17.3343 32 18.7231 31.8206 20.0737 31.4617C20.7512 31.2842 21.2193 30.6711 21.2193 29.9692V27.5979C21.9693 27.2592 22.6793 26.8479 23.3487 26.3642L25.3975 27.5498C25.6384 27.6913 25.9052 27.7596 26.1706 27.7596C28.2562 27.7625 31.5062 21.4 31.5062 19.6938ZM25.95 24.3187L23.2212 22.74C20.5925 24.6394 21.2006 24.2856 18.2731 25.6081V28.7481C17.4425 28.8944 16.6743 28.9469 15.9956 28.9469C15.0318 28.9469 14.2487 28.8411 13.7231 28.7484V25.6084C10.7887 24.2828 11.3993 24.6371 8.77496 22.7402L6.04746 24.3184C5.06371 23.1502 4.29309 21.8153 3.77184 20.374L6.44371 18.8563C6.33746 17.2563 6.25621 16.6313 6.25621 16C6.25621 15.3737 6.33546 14.745 6.49434 13.14L3.77309 11.575C4.29309 10.1313 5.06559 8.79375 6.04809 7.625L8.77684 9.20375C11.4056 7.30438 10.7975 7.65812 13.725 6.33562V3.19875C14.5556 3.05244 15.3237 3 16.0025 3C16.9662 3 17.7493 3.10581 18.275 3.1985V6.3385C21.2093 7.66413 20.5987 7.30975 23.2231 9.20662L25.9506 7.6285C26.9343 8.79663 27.705 10.1316 28.2256 11.5729L25.5 13.1437C25.6586 14.7462 25.7381 15.3712 25.7381 15.9987C25.7381 16.625 25.6588 17.2537 25.5 18.8587L28.2237 20.4287C27.7062 21.8687 26.9312 23.2062 25.95 24.3187ZM16 9.94375C12.695 9.94375 9.99996 12.6394 9.99996 15.9438C9.99996 19.2481 12.6937 21.9438 16 21.9438C19.3062 21.9438 22 19.2481 22 15.9438C22 12.6394 19.3062 9.94375 16 9.94375ZM16 19C14.3438 19 13 17.6562 13 16C13 14.3438 14.3438 13 16 13C17.6562 13 19 14.3456 19 16C19 17.6544 17.6562 19 16 19Z" fill="#252525"/>
</svg>
