<svg width="32" height="32" viewBox="0 0 32 32" fill="none" xmlns="http://www.w3.org/2000/svg">
<path d="M16 0C7.1625 0 0 7.1625 0 16C0 24.8375 7.1625 32 16 32C24.8375 32 32 24.8375 32 16C32 7.1625 24.8375 0 16 0ZM16 30C8.28125 30 2 23.7188 2 16C2 8.28125 8.28125 2 16 2C23.7188 2 30 8.28125 30 16C30 23.7188 23.7188 30 16 30ZM22 9H19L18.6382 8.27625C18.5562 8.10625 18.3813 8 18.1938 8H13.8062C13.6187 8 13.4438 8.10625 13.3625 8.275L13 9H10C9.45 9 9 9.45 9 10C9 10.5523 9.44775 11 10 11H10.023L10.5537 21.8937C10.6313 23.075 11.6125 24 12.8 24H19.2C20.3838 24 21.37 23.0744 21.4463 21.8769L21.975 11H22C22.5524 11 23 10.5523 23 10C23 9.45 22.55 9 22 9ZM19.45 21.7625C19.4438 21.8875 19.3188 22 19.2 22H12.8C12.6799 22 12.5588 21.8857 12.5519 21.7793L12.025 11H19.975L19.45 21.7625Z" fill="#252525"/>
</svg>
