<svg width="32" height="30" viewBox="0 0 32 30" fill="none" xmlns="http://www.w3.org/2000/svg">
<path d="M26.856 13.2C25.7671 13.2 24.7671 12.8344 23.9615 12.2325C23.6949 12.0356 23.456 11.8162 23.2393 11.5687C23.0227 11.8106 22.7838 12.03 22.5227 12.2269C21.7171 12.8344 20.7115 13.2 19.6171 13.2C18.5282 13.2 17.5338 12.84 16.7282 12.1931C16.4615 12.0412 16.2171 11.8162 15.9949 11.5687C15.7727 11.8162 15.5282 12.0412 15.2615 12.1931C14.456 12.84 13.4615 13.2 12.3727 13.2C11.2893 13.2 10.2893 12.84 9.48376 12.1931C9.21709 12.0412 8.97265 11.8162 8.75598 11.5687C8.53376 11.8162 8.28376 12.0412 8.01709 12.1931C7.21709 12.84 6.17265 13.1494 5.13432 13.2C5.1332 13.2 5.13265 13.2 5.13154 13.2C4.90598 13.2 4.67876 13.1831 4.4582 13.155C1.38487 12.7387 -0.0692967 9.07123 1.57431 6.43873L4.75932 1.33854C5.04265 0.880044 5.54876 0.599976 6.08932 0.599976H25.9115C26.4504 0.599976 26.956 0.879988 27.2393 1.33854L30.4227 6.43873C32.0727 9.07685 30.6115 12.7387 27.5282 13.155C27.3115 13.1831 27.0893 13.1494 26.8615 13.2C26.8615 13.2 26.8615 13.2 26.856 13.2ZM25.3115 3.29998H6.68932L3.82876 7.88435C3.50709 8.39623 3.47654 9.03185 3.7032 9.57748C3.92098 10.095 4.31543 10.41 4.80932 10.4775C4.92098 10.4944 5.03043 10.5 5.13154 10.5C5.78932 10.5 6.36709 10.2131 6.77265 9.75748C7.27821 9.19498 7.95043 8.86873 8.75598 8.86873C9.50598 8.86873 10.2282 9.19498 10.7338 9.75748C11.1393 10.2131 11.7171 10.5 12.3727 10.5C13.0338 10.5 13.5615 10.2131 14.0171 9.75748C14.5227 9.19498 15.2393 8.86873 15.9949 8.86873C16.7504 8.86873 17.4671 9.19498 17.9727 9.75748C18.3782 10.2131 18.9615 10.5 19.6171 10.5C20.2727 10.5 20.8504 10.2131 21.256 9.75748C21.7615 9.19498 22.4782 8.86873 23.2338 8.86873C23.9838 8.86873 24.706 9.18935 25.2115 9.75748C25.6227 10.2131 26.206 10.5 26.856 10.5C26.9671 10.5 27.0727 10.4944 27.1838 10.4775C27.6838 10.41 28.0782 10.095 28.2949 9.57748C28.5227 8.98685 28.4949 8.40185 28.1727 7.88435L25.3115 3.29998ZM25.7782 19.5V14.91C26.1282 14.9718 26.4893 15 26.856 15C27.1671 15 27.4671 14.9775 27.7615 14.9381C27.9504 14.91 28.2227 14.865 28.4449 14.8087V25.8C28.4449 27.7856 26.8504 29.4 24.8893 29.4H7.11154C5.1482 29.4 3.55598 27.7856 3.55598 25.8V14.8087C3.77098 14.865 3.99265 14.91 4.22098 14.9381H4.22765C4.51987 14.9775 4.82432 15 5.13154 15C5.50376 15 5.86709 14.9662 6.22265 14.91V19.5H25.7782ZM25.7782 22.2H6.22265V25.8C6.22265 26.295 6.62265 26.7 7.11154 26.7H24.8893C25.3782 26.7 25.7782 26.295 25.7782 25.8V22.2Z" fill="#252525"/>
</svg>
