<svg width="32" height="32" viewBox="0 0 32 32" fill="none" xmlns="http://www.w3.org/2000/svg">
<path d="M30.0187 20.0187L23.8813 17.3874C22.5431 16.8074 20.9662 17.1931 20.0562 18.3218L18.3412 20.4156C15.5425 18.8062 13.1981 16.4624 11.5913 13.7218L13.6881 12.0043C14.8075 11.0906 15.1937 9.52306 14.6269 8.18869L11.9812 1.97056C11.3462 0.520558 9.7725 -0.270692 8.23938 0.0836831L2.53625 1.39993C1.04375 1.74118 0 3.05181 0 4.58681C0 19.7056 12.2938 31.9993 27.4125 31.9993C28.9475 31.9993 30.2581 30.9562 30.5438 29.4662L31.86 23.7574C32.275 22.2187 31.475 20.6437 30.0187 20.0187ZM28.9937 23.0812L27.6756 28.7943C27.6463 28.8631 27.5438 28.9994 27.4119 28.9994C13.9494 28.9994 2.99944 18.0494 2.99944 4.58687C2.99944 4.456 3.0805 4.3535 3.20844 4.32418L8.91719 3.00668C8.93672 3.0018 8.95722 2.99985 8.97676 2.99985C9.08513 2.99985 9.18669 3.06528 9.22969 3.16291L11.8634 9.30854C11.9103 9.41891 11.8791 9.54779 11.7853 9.62491L8.7375 12.0687C8.19844 12.5101 8.03437 13.2649 8.341 13.8899C10.4041 18.0918 13.8572 21.5462 18.0597 23.6087C18.6285 23.9153 19.4404 23.7513 19.8822 23.2122L22.3829 20.1578C22.4522 20.0699 22.5821 20.0367 22.6905 20.0875L28.8318 22.7181C28.95 22.8249 29.0187 22.9562 28.9937 23.0812Z" fill="#252525"/>
</svg>
