<svg width="32" height="32" viewBox="0 0 32 32" fill="none" xmlns="http://www.w3.org/2000/svg">
<path d="M16 0C7.1625 0 0 7.1625 0 16C0 24.8375 7.1625 32 16 32C24.8375 32 32 24.8375 32 16C32 7.1625 24.8375 0 16 0ZM16 29C8.83125 29 3 23.1681 3 16C3 8.83187 8.83125 3 16 3C23.1687 3 29 8.83187 29 16C29 23.1681 23.1687 29 16 29ZM16 19C16.8281 19 17.5 18.3281 17.5 17.5V9.5C17.5 8.675 16.8313 8 16 8C15.1687 8 14.5 8.675 14.5 9.5V17.5C14.5 18.3313 15.175 19 16 19ZM16 21.0688C14.915 21.0688 14.035 21.9488 14.035 23.0338C14.0375 24.1188 14.9125 25 16 25C17.0875 25 17.965 24.12 17.965 23.035C17.9625 21.95 17.0875 21.0688 16 21.0688Z" fill="#252525"/>
</svg>
