<svg width="32" height="32" viewBox="0 0 32 32" fill="none" xmlns="http://www.w3.org/2000/svg">
<path d="M22 14.5H17.5V10C17.5 9.17125 16.8287 8.5 16.0562 8.5C15.2837 8.5 14.5 9.16875 14.5 10V14.5H10C9.16875 14.5 8.5 15.1687 8.5 16C8.5 16.8281 9.17188 17.5 10 17.5H14.5V22C14.5 22.8281 15.1719 23.5 16 23.5C16.8281 23.5 17.5 22.8313 17.5 22V17.5H22C22.8313 17.5 23.5 16.8313 23.5 16C23.5 15.1687 22.8313 14.5 22 14.5ZM16 0C7.1625 0 0 7.1625 0 16C0 24.8375 7.1625 32 16 32C24.8375 32 32 24.8375 32 16C32 7.1625 24.8375 0 16 0ZM16 29C8.83125 29 3 23.1681 3 16C3 8.83187 8.83125 3 16 3C23.1687 3 29 8.83187 29 16C29 23.1681 23.1687 29 16 29Z" fill="#252525"/>
</svg>
