<svg width="28" height="32" viewBox="0 0 28 32" fill="none" xmlns="http://www.w3.org/2000/svg">
<path d="M26 8H20L20.0001 6C20.0001 2.69125 17.3088 0 14.0563 0C10.6938 0 8 2.69125 8 6V8H2C0.895625 8 0 8.89375 0 10V26C0 29.3138 2.68625 32 6 32H22C25.3138 32 28 29.3138 28 26V10C28 8.89375 27.1063 8 26 8ZM10 6C10 3.79375 11.7938 2 14 2C16.2056 2 17.9438 3.79375 17.9438 6V8H10V6ZM26 26C26 28.2056 24.2056 30 22 30H6C3.79437 30 2 28.2056 2 26V10H8V15C8 15.55 8.45 16 9 16C9.55 16 10 15.55 10 15V10H17.9438V15C17.9438 15.5527 18.391 16 18.9438 16C19.4965 16 19.9438 15.5527 19.9438 15V10H26V26Z" fill="#252525"/>
</svg>
