<svg width="22" height="21" viewBox="0 0 22 21" fill="none" xmlns="http://www.w3.org/2000/svg">
<path d="M20.706 20.7063C20.3152 21.0971 19.6829 21.0971 19.2916 20.7063L10.9998 12.4125L2.70602 20.7063C2.31521 21.0971 1.68289 21.0971 1.29164 20.7063C0.900832 20.3155 0.900832 19.6831 1.29164 19.2919L9.58727 11L1.29289 2.70626C0.902082 2.31545 0.902082 1.68314 1.29289 1.29189C1.68371 0.901076 2.31602 0.901076 2.70727 1.29189L10.9998 9.58751L19.2935 1.29376C19.6843 0.902951 20.3166 0.902951 20.7079 1.29376C21.0987 1.68458 21.0987 2.31689 20.7079 2.70814L12.4123 11L20.706 19.2938C21.0998 19.6813 21.0998 20.3188 20.706 20.7063Z" fill="#252525"/>
</svg>
