<svg width="28" height="24" viewBox="0 0 28 24" fill="none" xmlns="http://www.w3.org/2000/svg">
<path d="M26 10H1.94375C0.895625 10 0 10.8937 0 12C0 13.1063 0.895625 14 1.94375 14H25.9438C27.1063 14 28 13.1063 28 12C28 10.8937 27.1063 10 26 10ZM26 20H1.94375C0.895625 20 0 20.8938 0 21.9438C0 22.9938 0.895625 24 1.94375 24H25.9438C27.1063 24 28 23.1063 28 22C28 20.8937 27.1063 20 26 20ZM26 0H1.94375C0.895625 0 0 0.895625 0 1.94375C0 2.99187 0.895625 4 1.94375 4H25.9438C27.1063 4 28 3.10625 28 2C28 0.89375 27.1063 0 26 0Z" fill="#252525"/>
</svg>
