<svg width="22" height="32" viewBox="0 0 22 32" fill="none" xmlns="http://www.w3.org/2000/svg">
<path d="M6.86894 21.7188C6.86894 21.7188 6.86894 21.725 6.86894 21.7188L5.57061 24.9013C5.50094 25.2136 5.31094 25.5026 5.00853 25.7369L1.31176 29.3913C1.01466 29.6313 0.866211 30.0687 0.866211 30.4562C0.866211 30.8812 1.20618 31.9487 2.38051 31.9487C2.76843 31.9487 3.16394 31.8082 3.44894 31.5114L7.15394 27.8571C7.69228 27.3261 8.04694 26.7014 8.38071 26.0139L9.23571 23.9133L6.93988 21.8202L6.86894 21.7188ZM14.0332 5.99937C15.7115 5.99937 17.0162 4.65562 17.0162 3C17.0162 1.34438 15.7115 0 14.0332 0C12.3549 0 10.9945 1.34375 10.9945 2.99938C10.9945 4.655 12.3549 5.99937 14.0332 5.99937ZM19.5369 19.5125C20.3665 19.5125 21.1329 18.775 21.1329 17.9625C21.1329 17.6139 20.9932 17.2506 20.6595 16.9231L18.8085 15.1187C18.7452 15.0641 18.7056 14.9938 18.7389 14.9157L17.9725 12.4951C17.0624 9.80069 14.5291 7.99694 11.655 7.99694C9.45421 7.99694 8.35538 8.54356 5.59088 9.62131C4.15384 10.1437 3.07718 11.125 2.42801 12.4187L1.51728 14.3625C1.40644 14.5938 1.35717 14.825 1.35717 15.0312C1.35717 15.8831 2.1577 16.4969 2.95254 16.4969C3.46744 16.4969 3.98044 16.2397 4.2724 15.6237L5.15894 13.7312C5.5468 12.9562 6.05131 12.4269 9.34528 11.3494L8.09444 16.2925C8.07988 16.5812 8.04188 16.8188 8.04188 17.1625C8.04188 18.0663 8.39369 18.9575 9.09384 19.7013L14.0402 24.2619C14.4123 24.6055 14.6165 25.0425 14.7919 25.535L16.0269 30.8375C16.2245 31.4625 16.8072 32 17.5545 32C18.471 32 19.0695 31.2525 19.0695 30.5025C19.0695 30.3893 19.0565 30.2741 19.0296 30.1588L17.7946 24.8719C17.5982 23.7863 17.0282 22.8182 16.2049 22.0682L12.8007 18.9682L14.4632 12.4182C15.5139 13.7888 15.3936 15.9676 16.7116 17.2676L18.5717 19.0794C18.8339 19.3812 19.1949 19.5125 19.5369 19.5125Z" fill="#252525"/>
</svg>
