<svg width="24" height="28" viewBox="0 0 24 28" fill="none" xmlns="http://www.w3.org/2000/svg">
<path d="M23.675 17.3625L12.675 27.7313C12.4813 27.9125 12.2438 28 12 28C11.7563 28 11.5176 27.9109 11.3269 27.7306L0.326889 17.3619C-0.0810486 16.975 -0.111299 16.3187 0.259764 15.8937C0.631826 15.4664 1.26539 15.4401 1.67289 15.8229L11 24.6187V1.03688C11 0.463688 11.4473 0 11.9438 0C12.4403 0 13 0.46375 13 1.03688V24.6181L22.325 15.8244C22.7323 15.4416 23.3663 15.4679 23.7381 15.8953C24.1125 16.3188 24.0813 16.975 23.675 17.3625Z" fill="#252525"/>
</svg>
