<svg width="20" height="21" viewBox="0 0 20 21" fill="none" xmlns="http://www.w3.org/2000/svg">
<path d="M19.5062 18.4375C20.0918 19.0231 20.0918 19.9731 19.5062 20.5588C18.9207 21.1444 17.9706 21.1443 17.385 20.5588L9.99999 13.1188L2.56249 20.5563C1.97692 21.1418 1.02686 21.1418 0.441235 20.5563C-0.144391 19.9707 -0.144328 19.0206 0.441235 18.435L7.88124 11L0.439172 3.50625C-0.146391 2.92068 -0.146391 1.97062 0.439172 1.385C1.02473 0.799371 1.9748 0.799434 2.56042 1.385L9.99999 8.88125L17.4375 1.44375C18.0231 0.858183 18.9731 0.858183 19.5587 1.44375C20.1444 2.02931 20.1443 2.97937 19.5587 3.565L12.1187 11L19.5062 18.4375Z" fill="#252525"/>
</svg>
