<svg width="28" height="24" viewBox="0 0 28 24" fill="none" xmlns="http://www.w3.org/2000/svg">
<path d="M27.9439 12C27.9439 13.1063 27.1064 14 26.0001 14H6.83137L13.4189 20.5875C14.2001 21.3687 14.2001 22.6344 13.4189 23.4156C13.0251 23.8062 12.5126 24 12.0001 24C11.4876 24 10.9764 23.8047 10.5864 23.4141L0.586365 13.4141C-0.194885 12.6328 -0.194885 11.3672 0.586365 10.5859L10.5864 0.585938C11.3676 -0.195312 12.6332 -0.195312 13.4145 0.585938C14.1957 1.36719 14.1957 2.63281 13.4145 3.41406L6.83137 10H26.0001C27.1064 10 27.9439 10.8937 27.9439 12Z" fill="#252525"/>
</svg>
