<svg width="24" height="28" viewBox="0 0 24 28" fill="none" xmlns="http://www.w3.org/2000/svg">
<path d="M0.414075 11.4687L10.9141 0.468721C11.2 0.168721 11.5875 0.0012207 12 0.0012207C12.4125 0.0012207 12.8025 0.169221 13.0863 0.466096L23.5863 11.4661C24.1566 12.0657 24.1351 13.0148 23.5355 13.5873C22.9417 14.1596 21.9886 14.1381 21.4142 13.5366L13.5 5.24372V26.5C13.5 27.3281 12.8281 27.9437 12.0563 27.9437C11.2844 27.9437 10.5 27.3312 10.5 26.5V5.24372L2.58751 13.5375C2.01376 14.1375 1.06064 14.1562 0.464888 13.5875C-0.134738 13.0125 -0.156238 12.0625 0.414075 11.4687Z" fill="#252525"/>
</svg>
