<svg width="32" height="30" viewBox="0 0 32 30" fill="none" xmlns="http://www.w3.org/2000/svg">
<path d="M31.1111 11.4166L25.4667 11.4167L20.2939 1.46674C19.9571 0.815626 19.1489 0.557292 18.4961 0.898959C17.8417 1.23751 17.5883 2.04285 17.9283 2.69563L22.4622 11.4123H9.53889L14.0728 2.69563C14.4111 2.04551 14.1611 1.24007 13.5056 0.901514C12.85 0.561237 12.0444 0.818181 11.7056 1.4694L6.53278 11.4194L0.888889 11.4166C0.398 11.4166 0 11.8146 0 12.2555V14.0333C0 14.5242 0.398 14.8722 0.888889 14.8722H2.17278L4.71444 26.3111C5.07611 28.0388 6.51667 29.1944 8.18333 29.1944H23.8111C25.4278 29.1944 26.9206 28.0372 27.2822 26.41L29.8239 14.9711H31.1111C31.6021 14.9711 32 14.5731 32 14.1322V12.3544C32 11.8166 31.6 11.4166 31.1111 11.4166ZM10.6667 24.75C10.6667 25.2407 10.2686 25.5888 9.77778 25.5888C9.28711 25.5888 8.88889 25.1907 8.88889 24.75V17.6388C8.88889 17.1481 9.28711 16.8 9.77778 16.8C10.2686 16.8 10.6667 17.1981 10.6667 17.6388V24.75ZM16.8889 24.75C16.8889 25.2407 16.4908 25.5888 16 25.5888C15.5093 25.5888 15.1111 25.1908 15.1111 24.75V17.6388C15.1111 17.1481 15.5093 16.8 16 16.8C16.4908 16.8 16.8889 17.1981 16.8889 17.6388V24.75ZM23.1111 24.75C23.1111 25.2407 22.713 25.5888 22.2222 25.5888C21.7316 25.5888 21.3333 25.1907 21.3333 24.75V17.6388C21.3333 17.1481 21.7316 16.8 22.2222 16.8C22.713 16.8 23.1111 17.1981 23.1111 17.6388V24.75Z" fill="#252525"/>
</svg>
