<svg width="32" height="32" viewBox="0 0 32 32" fill="none" xmlns="http://www.w3.org/2000/svg">
<path d="M28.2428 16.0049C27.7251 16.0049 27.2957 16.4225 27.2957 16.8932V21.6523H4.70069V16.8932C4.70069 16.4225 4.28007 16.0049 3.7618 16.0049C3.24353 16.0049 2.8235 16.4225 2.8235 16.8932L2.82409 28.241C2.82409 29.8005 4.08829 31.0647 5.59486 31.0647H26.308C27.8675 31.0647 29.0788 29.8005 29.0788 28.241L29.0808 16.9461C29.1841 16.4225 28.7134 16.0049 28.2428 16.0049ZM27.3016 28.241C27.3016 28.7599 26.8793 29.1822 26.3603 29.1822H5.64722C5.12954 29.1822 4.70598 28.7586 4.70598 28.241V23.5348H27.3016V28.241ZM31.2724 7.05133L27.9004 1.71686C27.6001 1.23742 27.0645 0.944458 26.4927 0.944458H5.50603C4.93441 0.944458 4.3989 1.23736 4.09829 1.71686L0.72513 7.05133C-1.01557 9.80622 0.524529 13.6341 3.77827 14.0753C4.01241 14.1047 4.25301 14.1224 4.49185 14.1224C6.0296 14.1224 7.39145 13.4529 8.32681 12.4182C9.25922 13.4517 10.6299 14.1224 12.1594 14.1224C13.6972 14.1224 15.059 13.4529 15.9944 12.4182C16.9303 13.4517 18.2951 14.1224 19.8305 14.1224C21.37 14.1224 22.7301 13.4529 23.6655 12.4182C24.6014 13.4517 25.9662 14.1224 27.4957 14.1224C27.7393 14.1224 27.973 14.1063 28.2069 14.0757C31.4724 13.64 33.0196 9.81033 31.2724 7.05133ZM29.8488 10.7928C29.6314 11.2575 29.0976 12.0599 27.9675 12.2099C27.8134 12.2281 27.6604 12.2399 27.5016 12.2399C26.5639 12.2399 25.6968 11.8536 25.0597 11.1522L23.6625 9.61444L22.2695 11.1557C21.6365 11.8575 20.7717 12.2399 19.8305 12.2399C18.9046 12.2399 18.0163 11.8448 17.3933 11.1557L15.995 9.61032L14.6007 11.1575C13.9654 11.8575 13.1006 12.2399 12.1594 12.2399C11.1829 12.2399 10.3475 11.8458 9.72396 11.1575L8.32386 9.61032L6.92966 11.1575C6.3002 11.8575 5.42956 12.2399 4.49126 12.2399C4.33454 12.2399 4.17783 12.2292 4.03123 12.21C2.90351 12.0575 2.37112 11.2575 2.15464 10.7928C1.73755 9.89857 1.79814 8.87498 2.31523 8.05728L5.62369 2.82752H26.378L29.6847 8.05787C30.2018 8.88086 30.2665 9.89857 29.8488 10.7928Z" fill="#252525"/>
</svg>
