<svg width="28" height="32" viewBox="0 0 28 32" fill="none" xmlns="http://www.w3.org/2000/svg">
<path d="M27 2H20L19.2763 0.5525C19.1063 0.214 18.7625 0 18.3813 0H9.61875C9.2375 0 8.89375 0.214 8.725 0.55275L8 2H1C0.44775 2 0 2.4475 0 3V5C0 5.5525 0.44775 6 1 6H27C27.55 6 28 5.5525 28 5V3C28 2.4475 27.55 2 27 2ZM3.32562 29.1875C3.42312 30.7375 4.76437 32 6.31875 32H21.6812C23.2362 32 24.5769 30.74 24.675 29.1875L26 8H2L3.32562 29.1875ZM8.9375 16.0063C8.35156 15.4203 8.35156 14.4713 8.9375 13.885C9.52344 13.2988 10.4725 13.2991 11.0588 13.885L13.9981 16.8244L16.9375 13.885C17.5234 13.2991 18.4725 13.2991 19.0588 13.885C19.645 14.4709 19.6447 15.42 19.0588 16.0063L16.1187 19L19.0581 21.9394C19.6441 22.5253 19.6441 23.4744 19.0581 24.0606C18.4718 24.6468 17.5231 24.6463 16.9369 24.0606L13.9975 21.1213L11.0581 24.0606C10.4718 24.6468 9.52313 24.6463 8.93688 24.0606C8.35094 23.4747 8.35094 22.5256 8.93688 21.9394L11.8813 19L8.9375 16.0063Z" fill="#252525"/>
</svg>
