<svg width="28" height="28" viewBox="0 0 28 28" fill="none" xmlns="http://www.w3.org/2000/svg">
<path d="M14.875 14C14.875 14.4812 14.4812 14.875 14 14.875H7.875C7.39375 14.875 7 14.4812 7 14C7 13.5188 7.39375 13.125 7.875 13.125H13.125V6.125C13.125 5.64375 13.5188 5.25 14 5.25C14.4812 5.25 14.875 5.64375 14.875 6.125V14ZM28 14C28 21.7328 21.7328 28 14 28C6.26719 28 0 21.7328 0 14C0 6.26719 6.26719 0 14 0C21.7328 0 28 6.26719 28 14ZM14 1.75C7.23516 1.75 1.75 7.23516 1.75 14C1.75 20.7648 7.23516 26.25 14 26.25C20.7648 26.25 26.25 20.7648 26.25 14C26.25 7.23516 20.7648 1.75 14 1.75Z" fill="#252525"/>
</svg>
