<svg width="24" height="24" viewBox="0 0 24 24" fill="none" xmlns="http://www.w3.org/2000/svg">
<path d="M6.33281 9.93281L6.77555 9.13594C7.13883 8.4975 7.67789 8.1225 8.25117 8.1225C8.83008 8.1225 9.36961 8.4975 9.7268 9.13594L10.1752 9.93281C10.3682 10.2785 10.9074 10.1203 10.8732 9.72187C10.7203 7.74844 9.36094 6.375 8.20781 6.375C7.08938 6.375 5.73703 7.74609 5.58375 9.72094C5.59688 10.1203 6.13594 10.2797 6.33281 9.93281ZM13.8328 9.93281L14.277 9.13594C14.6346 8.4975 15.1737 8.1225 15.7526 8.1225C16.3259 8.1225 16.8697 8.4975 17.2329 9.13594L17.6757 9.93281C17.8687 10.2785 18.4079 10.1203 18.3736 9.72187C18.2203 7.74844 16.8609 6.375 15.75 6.375C14.6316 6.375 13.2811 7.74609 13.1222 9.72094C13.0922 10.125 13.5984 10.2797 13.8328 9.93281ZM18.3281 12.75H5.62969C5.18128 12.75 4.82953 13.1426 4.88625 13.5938C5.30156 16.9219 8.17969 19.5 11.5828 19.5H12.3347C15.7744 19.5 18.6159 16.9219 19.0331 13.5938C19.1297 13.1438 18.7781 12.75 18.3281 12.75ZM12.3328 18H11.625C9.26953 18 7.24313 16.4414 6.59063 14.25H17.4094C16.7578 16.4438 14.7281 18 12.3328 18ZM12 0C5.37188 0 0 5.37188 0 12C0 18.6281 5.37188 24 12 24C18.6281 24 24 18.6281 24 12C24 5.37188 18.6281 0 12 0ZM12 22.5C6.21094 22.5 1.5 17.7891 1.5 12C1.5 6.21094 6.21094 1.5 12 1.5C17.7891 1.5 22.5 6.21094 22.5 12C22.5 17.7891 17.7891 22.5 12 22.5Z" fill="#252525"/>
</svg>
