<svg width="22" height="32" viewBox="0 0 22 32" fill="none" xmlns="http://www.w3.org/2000/svg">
<path d="M11 22C14.3144 22 17 19.3144 17 16V6C17 2.68563 14.3144 0 11 0C7.68563 0 5 2.68563 5 6V16C5 19.3125 7.63125 22 11 22ZM20.5 12C19.6687 12 19 12.6688 19 13.4438V16C19 20.5831 15.1269 24.275 10.4812 23.9813C6.35125 23.7207 3 19.8194 3 15.6812V13.4438C3 12.6688 2.32812 12 1.5 12C0.671875 12 0 12.6688 0 13.4438V15.4531C0 21.0569 3.99813 26.0531 9.5 26.8094V29H7C5.86312 29 4.9475 29.9488 5.0025 31.0981C5.02688 31.6125 5.4875 32 6 32H16C16.5139 32 16.9731 31.6115 16.9975 31.0981C17.05 29.95 16.1375 29 15 29H12.5V26.8894C17.8562 26.1563 22 21.5563 22 16V13.4438C22 12.6688 21.3313 12 20.5 12Z" fill="#252525"/>
</svg>
