<svg width="32" height="30" viewBox="0 0 32 30" fill="none" xmlns="http://www.w3.org/2000/svg">
<path d="M31.7 14.3333C32.0667 14.6555 32.1 15.1722 31.7278 15.5889C31.4556 15.9555 30.8889 15.9889 30.5222 15.6167L28.4445 13.7833V24.7778C28.4445 27.2333 26.4556 29.2222 24 29.2222H8.00001C5.54557 29.2222 3.55557 27.2333 3.55557 24.7778V13.7833L1.47723 15.6167C1.1089 15.9889 0.547179 15.9555 0.222401 15.5889C-0.102433 15.1722 -0.0673215 14.6555 0.30079 14.3333L15.4111 1.0001C15.75 0.70366 16.25 0.70366 16.5889 1.0001L31.7 14.3333ZM8.00001 27.4444H11.5556V18.5555C11.5556 17.5722 12.35 16.7778 13.3333 16.7778H18.6667C19.65 16.7778 20.4445 17.5722 20.4445 18.5555V27.4444H24C25.4722 27.4444 26.6667 26.25 26.6667 24.7778V12.2611L16 2.85222L5.33335 12.2611V24.7778C5.33335 26.25 6.52779 27.4444 8.00001 27.4444ZM13.3333 27.4444H18.6667V18.5555H13.3333V27.4444Z" fill="#252525"/>
</svg>
