<svg width="24" height="32" viewBox="0 0 24 32" fill="none" xmlns="http://www.w3.org/2000/svg">
<path d="M12 0C5.37313 0 0 5.37313 0 12C0 16.8381 1.68563 18.1894 10.7688 31.3563C11.0625 31.7875 11.5312 32 12 32C12.4688 32 12.9344 31.7849 13.2325 31.355C22.3125 18.1875 24 16.8375 24 12C24 5.37313 18.625 0 12 0ZM12 29.6187C3.24562 16.9625 2 15.9438 2 12C2 6.48625 6.48625 2 12 2C17.5138 2 22 6.48625 22 12C22 15.9937 20.7875 16.9188 12 29.6187ZM12 6.94375C9.23875 6.94375 7 9.1825 7 11.9438C7 14.705 9.2375 16.9438 12 16.9438C14.7612 16.9438 17 14.705 17 11.9438C17 9.1825 14.7625 6.94375 12 6.94375ZM12 14.9438C10.3456 14.9438 9 13.5981 9 11.9438C9 10.2894 10.3438 8.94375 12 8.94375C13.6562 8.94375 15 10.2894 15 11.9438C15 13.5981 13.6562 14.9438 12 14.9438Z" fill="#252525"/>
</svg>
