<svg width="32" height="32" viewBox="0 0 32 32" fill="none" xmlns="http://www.w3.org/2000/svg">
<path d="M17.5 16C17.5 16.8312 16.8312 17.5 16 17.5H9.5C8.66875 17.5 8 16.8312 8 16C8 15.1687 8.66875 14.5 9.5 14.5H14.5V7.5C14.5 6.66875 15.1687 6 16 6C16.8312 6 17.5 6.66875 17.5 7.5V16ZM32 16C32 24.8375 24.8375 32 16 32C7.1625 32 0 24.8375 0 16C0 7.1625 7.1625 0 16 0C24.8375 0 32 7.1625 32 16ZM16 3C8.81875 3 3 8.81875 3 16C3 23.1812 8.81875 29 16 29C23.1812 29 29 23.1812 29 16C29 8.81875 23.1812 3 16 3Z" fill="#252525"/>
</svg>
