<svg width="20" height="20" viewBox="0 0 20 20" fill="none" xmlns="http://www.w3.org/2000/svg">
<path d="M16.332 5.78125L14.9492 5.58203L14.3359 4.32422C13.9609 3.58984 12.918 3.58594 12.543 4.32422L11.9219 5.57812L10.5352 5.77734C10.3242 5.80859 10.1445 5.91797 9.99609 6.06641C9.84766 5.91797 9.66797 5.80859 9.45312 5.77734L8.07422 5.57812L7.42188 4.32422C7.05469 3.58984 6.00391 3.58594 5.62891 4.32422L5.04688 5.57812L3.66797 5.78125C2.87891 5.89844 2.50781 6.88281 3.11328 7.49219L4.11719 8.46484L3.87891 9.85547C3.74609 10.6914 4.62891 11.2695 5.32031 10.8906L6.55859 10.2461L7.78516 10.8789C8.50781 11.2773 9.375 10.6758 9.24219 9.83984L9.00391 8.45703L10 7.5L10.9922 8.46094L10.75 9.85156C10.6172 10.6875 11.5 11.2656 12.1914 10.8867L13.4375 10.2422L14.668 10.875C15.3906 11.2734 16.2539 10.6719 16.1211 9.83594L15.8828 8.45312L16.8945 7.47266C17.4766 6.89453 17.1445 5.90234 16.332 5.78125ZM7.66406 8.02734L7.92578 9.54688L6.52734 8.83984L5.16406 9.54297L5.42578 8.02344L4.34766 6.94531L5.87891 6.72656L6.55859 5.33984L7.24609 6.72656L8.77734 6.94531L7.66406 8.02734ZM14.543 8.02734L14.8047 9.54688L13.4414 8.83984L12.0781 9.54297L12.3398 8.02344L11.2227 6.94531L12.7539 6.72656L13.4414 5.33984L14.1211 6.72656L15.6523 6.94531L14.543 8.02734ZM14.8086 12.5312C13.6289 12.9102 11.8398 13.125 10 13.125C8.16016 13.125 6.37109 12.9102 5.19141 12.5312C4.74219 12.3906 4.3125 12.7812 4.38281 13.1992C4.74219 15.3828 7.63672 16.875 10 16.875C12.3633 16.875 15.2539 15.3828 15.6172 13.2344C15.6914 12.7773 15.2656 12.3867 14.8086 12.5312ZM10 15.6211C8.66797 15.6211 6.99219 14.9883 6.15625 14.0508C8.39844 14.4727 11.6055 14.4727 13.8516 14.0508C13.0078 14.9922 11.332 15.6211 10 15.6211ZM10 0C4.47656 0 0 4.47656 0 10C0 15.5234 4.47656 20 10 20C15.5234 20 20 15.5234 20 10C20 4.47656 15.5234 0 10 0ZM10 18.75C5.17578 18.75 1.25 14.8242 1.25 10C1.25 5.17578 5.17578 1.25 10 1.25C14.8242 1.25 18.75 5.17578 18.75 10C18.75 14.8242 14.8242 18.75 10 18.75Z" fill="#2B2B2B"/>
</svg>
