<svg width="32" height="26" viewBox="0 0 32 26" fill="none" xmlns="http://www.w3.org/2000/svg">
<path d="M11.955 20.9875C10.6295 20.9875 9.6 22.062 9.6 23.3875C9.6 24.713 10.675 25.7875 11.955 25.7875C13.235 25.7875 14.31 24.713 14.31 23.3875C14.31 22.062 13.325 20.9875 11.955 20.9875ZM26.355 20.9875C25.0295 20.9875 24 22.062 24 23.3875C24 24.713 25.0745 25.7875 26.355 25.7875C27.6355 25.7875 28.755 24.713 28.755 23.3875C28.755 22.062 27.725 20.9875 26.355 20.9875ZM31.675 2.424C31.37 2.0195 30.905 1.7875 30.355 1.7875H9.255L9.18 1.163C9.07 0.59695 8.575 0.1875 8 0.1875H4.355C3.7375 0.1875 3.2 0.725 3.2 1.3425C3.2 1.96 3.7375 2.5875 4.355 2.5875H6.962L9.976 18.4125C10.13 18.9775 10.625 19.3875 11.2 19.3875H27.6C28.2625 19.3875 28.8 18.85 28.8 18.2325C28.8 17.5225 28.265 16.9875 27.6 16.9875H12.195L11.735 14.5875H27.655C28.369 14.5875 28.997 14.1138 29.193 13.427L31.936 3.872C32.075 3.34 31.98 2.829 31.675 2.424ZM1.2 7.3875H5.2C5.865 7.3875 6.4 6.8525 6.4 6.1875C6.4 5.5225 5.865 4.9875 5.2 4.9875H1.2C0.5375 4.9875 0 5.5225 0 6.1875C0 6.8525 0.5375 7.3875 1.2 7.3875ZM1.2 11.3875H6C6.665 11.3875 7.2 10.8525 7.2 10.1875C7.2 9.5245 6.663 8.9875 6 8.9875H1.2C0.5375 8.9875 0 9.5225 0 10.1875C0 10.8525 0.5375 11.3875 1.2 11.3875ZM6.8 12.9875H1.2C0.5375 12.9875 0 13.5225 0 14.1875C0 14.8525 0.5375 15.3875 1.2 15.3875H6.8C7.465 15.3875 8 14.8525 8 14.1875C8 13.5225 7.465 12.9875 6.8 12.9875Z" fill="#252525"/>
</svg>
