<svg width="32" height="30" viewBox="0 0 32 30" fill="none" xmlns="http://www.w3.org/2000/svg">
<path d="M14.1722 6.08333C14.1722 6.08333 21.8834 6.10417 22.1667 6.125C22.1667 6.11111 22.1736 6.09722 22.1736 6.08333C22.1736 3.13889 19.8347 0.75 16.8903 0.75C13.9459 0.75 11.5056 3.13889 11.5056 6.08333C11.5056 6.20139 11.5334 6.3125 11.5403 6.43056C12.4278 6.20833 13.3111 6.08333 14.1722 6.08333ZM31.0611 13.1944L29.4206 13.1946C28.9345 12.0835 28.2206 11.0985 27.3456 10.2791L28.3945 6.08333L26.6167 6.08368C24.9845 6.08368 23.54 6.83535 22.5611 7.98813C22.1889 7.93333 21.7722 7.86111 21.2834 7.86111H14.1722C9.92225 7.86111 6.34448 10.9167 5.5167 14.9722L3.11003 14.9724C2.29059 14.9724 1.63781 14.2219 1.80448 13.3747C1.93003 12.7333 2.52003 12.3056 3.16614 12.3056H3.22169C3.40224 12.3056 3.55502 12.1528 3.55502 11.9723V10.8612C3.55503 10.6833 3.40226 10.5278 3.2217 10.5278C1.63837 10.5278 0.227814 11.66 0.0267033 13.2294C-0.216352 15.1256 1.26337 16.7506 3.11059 16.7506L5.33281 16.75C5.33281 19.6528 6.7417 22.2017 8.88781 23.8222L8.83892 27.4167C8.83892 28.3944 9.63892 29.1944 10.6167 29.1944H12.3945C13.3722 29.1944 14.1722 28.3944 14.1722 27.4167L14.1724 25.6389H21.2835L21.2833 27.4167C21.2833 28.3944 22.0833 29.1944 23.0611 29.1944H24.8389C25.8166 29.1944 26.6166 28.3944 26.6166 27.4167L26.6166 23.8206C27.2694 23.3275 27.8566 22.7433 28.3566 22.0839L31.0611 22.0833C31.6 22.0833 32 21.6833 32 21.1944V14.0833C32 13.5944 31.6 13.1944 31.0611 13.1944ZM23.95 16.75C23.4639 16.75 23.0611 16.3472 23.0611 15.8611C23.0611 15.375 23.5111 14.9722 23.95 14.9722C24.3889 14.9722 24.8389 15.375 24.8389 15.8611C24.8389 16.3472 24.4833 16.75 23.95 16.75Z" fill="#252525"/>
</svg>
