<svg width="32" height="26" viewBox="0 0 32 26" fill="none" xmlns="http://www.w3.org/2000/svg">
<path d="M11.2 12.8C14.735 12.8 17.6 9.9345 17.6 6.4C17.6 2.8655 14.735 0 11.2 0C7.665 0 4.8 2.8655 4.8 6.4C4.8 9.9345 7.665 12.8 11.2 12.8ZM11.2 2.4C13.4055 2.4 15.2 4.1945 15.2 6.4C15.2 8.6055 13.4055 10.4 11.2 10.4C8.9945 10.4 7.2 8.605 7.2 6.4C7.2 4.1945 8.995 2.4 11.2 2.4ZM13.735 15.2H8.665C3.8785 15.2 0 19.08 0 23.865C0 24.825 0.776 25.6 1.733 25.6H20.665C21.625 25.6 22.4 24.825 22.4 23.865C22.4 19.08 18.52 15.2 13.735 15.2ZM2.4355 23.2C2.769 20.055 5.435 17.6 8.665 17.6H13.735C16.9655 17.6 19.59 20.0565 19.965 23.2H2.4355ZM23.955 16H20.2625C22.56 17.885 24 20.705 24 23.865C24 24.505 23.81 25.095 23.5 25.6H30.4C31.285 25.6 32 24.88 32 23.955C32 19.58 28.42 16 23.955 16ZM21.6 12.8C24.695 12.8 27.2 10.295 27.2 7.2C27.2 4.105 24.695 1.6 21.6 1.6C20.3445 1.6 19.198 2.02775 18.264 2.7255C18.84 3.8315 19.2 5.07 19.2 6.4C19.2 8.176 18.6035 9.807 17.6205 11.1355C18.635 12.16 20.04 12.8 21.6 12.8Z" fill="#252525"/>
</svg>
