<svg width="32" height="26" viewBox="0 0 32 26" fill="none" xmlns="http://www.w3.org/2000/svg">
<path d="M18.4 11.4C17.9595 11.4 17.593 11.7572 17.593 12.1975V17.8H4.793V12.2C4.793 11.7595 4.43585 11.4025 3.9955 11.4025C3.55515 11.4025 3.2 11.76 3.2 12.2L3.2 23.4C3.2 24.7255 4.2745 25.755 5.6 25.755H16.8C18.1255 25.755 19.155 24.6805 19.155 23.4L19.2 12.2C19.2 11.76 18.845 11.4 18.4 11.4ZM17.6 23.4C17.6 23.8411 17.2411 24.2 16.8 24.2H5.6C5.16 24.2 4.8 23.84 4.8 23.4V19.4H17.6V23.4ZM28 11.4C27.56 11.4 27.2 11.76 27.2 12.2V25C27.2 25.4418 27.5575 25.8 27.999 25.8C28.4406 25.8 28.799 25.4418 28.799 25L28.8 12.2C28.8 11.76 28.44 11.4 28 11.4ZM31.64 6.48501L28.085 1.15001C27.69 0.555462 27.025 0.200012 26.31 0.200012H5.69C4.975 0.200012 4.312 0.555462 3.915 1.15001L0.362002 6.48001C-0.0770484 7.13501 -0.119998 7.97501 0.251052 8.67001C0.623002 9.36501 1.345 9.80001 2.1355 9.80001H29.8655C30.652 9.80001 31.3725 9.36876 31.7445 8.67351C32.12 7.98001 32.08 7.14001 31.64 6.48501ZM29.865 8.20001H2.1355C1.709 8.20001 1.452 7.73001 1.6915 7.37001L5.244 2.03501C5.345 1.88901 5.51 1.80001 5.69 1.80001H26.31C26.4889 1.80001 26.6546 1.88906 26.7538 2.03751L30.3108 7.37251C30.545 7.72501 30.29 8.20001 29.865 8.20001Z" fill="#252525"/>
</svg>
