<svg width="28" height="28" viewBox="0 0 28 28" fill="none" xmlns="http://www.w3.org/2000/svg">
<path d="M5 7C5 5.89375 5.89562 5 7 5C8.10625 5 9 5.89375 9 7C9 8.10625 8.10625 9 7 9C5.89562 9 5 8.10625 5 7ZM12.3438 0C13.4062 0 14.4187 0.42125 15.1687 1.17188L26.1688 12.1687C27.7313 13.7312 27.7313 16.2687 26.1688 17.8312L17.8312 26.1688C16.2687 27.7313 13.7312 27.7313 12.1687 26.1688L1.17188 15.1688C0.421438 14.4188 0 13.4062 0 12.3438V3C0 1.34312 1.34312 0 3 0H12.3438ZM3.29312 13.05L14.2937 24.05C14.6812 24.4437 15.3188 24.4437 15.7063 24.05L24.05 15.7062C24.4437 15.3187 24.4437 14.6813 24.05 14.2938L13.05 3.29313C12.8625 3.10563 12.6062 3 12.3438 3H3V12.3438C3 12.6062 3.10562 12.8625 3.29312 13.05Z" fill="#252525"/>
</svg>
