<svg width="28" height="32" viewBox="0 0 28 32" fill="none" xmlns="http://www.w3.org/2000/svg">
<path d="M7 10V7C7 3.13375 10.1313 0 14 0C17.8687 0 21 3.13375 21 7V10H25C26.6562 10 28 11.3438 28 13V26C28 29.3125 25.3125 32 22 32H6C2.68625 32 0 29.3125 0 26V13C0 11.3438 1.34312 10 3 10H7ZM10 10H18V7C18 4.79063 16.2062 3 14 3C11.7937 3 10 4.79063 10 7V10ZM3 13V26C3 27.6562 4.34312 29 6 29H22C23.6562 29 25 27.6562 25 26V13H21V16.5C21 17.3312 20.3312 18 19.5 18C18.6688 18 18 17.3312 18 16.5V13H10V16.5C10 17.3312 9.33125 18 8.5 18C7.66875 18 7 17.3312 7 16.5V13H3Z" fill="#252525"/>
</svg>
