<svg width="32" height="26" viewBox="0 0 32 26" fill="none" xmlns="http://www.w3.org/2000/svg">
<path d="M13.645 7.05997L15.1905 8.28047C15.4555 8.23496 15.724 8.19857 16.002 8.19857C18.541 8.19857 20.6045 10.1856 20.77 12.6856L22.311 13.9021C22.35 13.605 22.4 13.31 22.4 13.005C22.4 9.46997 19.535 6.59997 16 6.59997C15.165 6.59997 14.375 6.76997 13.645 7.05997ZM16 22.6C10.675 22.6 5.78497 19.001 3.24997 13.235C3.22897 13.18 3.20247 13.045 3.15497 13.01C3.15771 12.9527 3.18427 12.8208 3.19345 12.7918C3.83545 11.3308 4.62845 10.0113 5.53795 8.85182L4.28545 7.86282C3.28245 9.13882 2.41845 10.5783 1.72895 12.1483C1.67797 12.37 1.55497 12.75 1.55497 13C1.55497 13.2488 1.63307 13.63 1.72842 13.8515C4.44092 20.0215 9.80842 24.1565 15.9534 24.1565C18.3599 24.1565 20.6439 23.5085 22.6984 22.3585L21.3114 21.2635C19.68 22.135 17.87 22.6 16 22.6ZM16 3.39997C21.325 3.39997 26.215 6.99897 28.75 12.765C28.7697 12.819 28.7962 12.9506 28.7989 12.9871C28.7962 13.0444 28.7696 13.1763 28.7604 13.2052C28.1184 14.6662 27.3259 15.9857 26.4164 17.1447L27.6689 18.1337C28.6719 16.8577 29.5354 15.4187 30.2254 13.8487C30.3207 13.6272 30.3989 13.2452 30.3989 12.9972C30.3989 12.7483 30.3208 12.3672 30.2254 12.1457C27.5129 5.97567 22.1454 1.84067 16.0004 1.84067C13.5939 1.84067 11.3104 2.48867 9.25542 3.63817L10.6424 4.73317C12.32 3.86647 14.13 3.39997 16 3.39997ZM16 19.4C16.834 19.4 17.628 19.229 18.3585 18.9385L16.8125 17.718C16.5471 17.7636 16.2785 17.8002 16 17.8002C13.46 17.8002 11.3955 15.8112 11.2315 13.3122L9.68998 12.095C9.60498 12.395 9.59997 12.69 9.59997 13C9.59997 16.535 12.465 19.4 16 19.4ZM31.695 24.37L1.29497 0.370966C0.904975 0.0983162 0.446775 0.158461 0.171775 0.503016C-0.101675 0.849916 -0.0422753 1.35302 0.304575 1.62752L30.7046 25.6275C30.85 25.745 31.025 25.8 31.2 25.8C31.4359 25.8 31.6703 25.6953 31.828 25.4961C32.1 25.105 32.04 24.645 31.695 24.37Z" fill="#252525"/>
</svg>
