<svg width="32" height="32" viewBox="0 0 32 32" fill="none" xmlns="http://www.w3.org/2000/svg">
<path d="M20.7062 11.2937C20.3156 10.9031 19.6825 10.9031 19.2925 11.2937L16 14.5875L12.7063 11.2937C12.3156 10.9031 11.6825 10.9031 11.2925 11.2937C10.9025 11.6844 10.9019 12.3175 11.2925 12.7075L14.5875 16L11.2937 19.2938C10.9031 19.6844 10.9031 20.3175 11.2937 20.7075C11.6841 21.0979 12.3169 21.0984 12.7075 20.7075L16 17.4125L19.2931 20.7056C19.6835 21.096 20.3162 21.0965 20.7069 20.7056C21.0975 20.315 21.0975 19.6819 20.7069 19.2919L17.4125 16L20.7056 12.7069C21.1 12.3187 21.1 11.6812 20.7062 11.2937ZM16 0C7.1625 0 0 7.1625 0 16C0 24.8375 7.1625 32 16 32C24.8375 32 32 24.8375 32 16C32 7.1625 24.8375 0 16 0ZM16 30C8.28125 30 2 23.7188 2 16C2 8.28125 8.28125 2 16 2C23.7188 2 30 8.28125 30 16C30 23.7188 23.7188 30 16 30Z" fill="#252525"/>
</svg>
