 <svg version="1.0" xmlns="http://www.w3.org/2000/svg" width="700.000000pt" height="700.000000pt" viewBox="0 0 700.000000 700.000000" preserveAspectRatio="xMidYMid meet">
<metadata>
Created by potrace 1.12, written by Peter Selinger 2001-2015
</metadata>
<g transform="translate(0.000000,700.000000) scale(0.100000,-0.100000)" fill="#000000" stroke="none">
<path d="M3300 6994 c-307 -36 -517 -86 -730 -176 -726 -304 -1258 -918 -1451
-1671 -53 -209 -63 -299 -63 -567 -1 -279 9 -369 66 -620 207 -915 879 -2114
1912 -3410 177 -223 320 -395 413 -499 l49 -54 144 170 c979 1149 1728 2326
2078 3268 97 260 163 508 208 780 27 163 25 523 -4 697 -94 555 -314 992 -692
1368 -382 382 -836 611 -1375 696 -95 14 -477 27 -555 18z m400 -1594 c257
-62 478 -242 590 -482 75 -160 99 -383 61 -555 -74 -337 -337 -596 -677 -668
-102 -22 -271 -19 -374 5 -109 26 -267 104 -353 175 -144 119 -258 303 -297
480 -27 122 -27 282 0 395 43 178 155 358 297 475 84 69 243 149 348 174 114
27 293 27 405 1z"></path>
</g>
</svg>