<svg width="32" height="32" viewBox="0 0 32 32" fill="none" xmlns="http://www.w3.org/2000/svg">
<path d="M16 0C7.1625 0 0 7.1625 0 16C0 24.8375 7.1625 32 16 32C24.8375 32 32 24.8375 32 16C32 7.1625 24.8375 0 16 0ZM21.3375 22.5938C21.2875 23.3687 20.6187 24 19.8438 24H12.1562C11.3788 24 10.7081 23.37 10.6594 22.5938L10 12H22L21.3375 22.5938ZM22 10H10C9.45 10 9 9.55 9 9C9 8.45 9.45 8 10 8H13L13.3618 7.27625C13.4438 7.10625 13.6187 7 13.8062 7H18.1881C18.3774 7 18.5507 7.10694 18.6353 7.27637L19 8H22C22.5524 8 23 8.44762 23 9C23 9.55 22.55 10 22 10Z" fill="#252525"/>
</svg>
