<svg width="32" height="32" viewBox="0 0 32 32" fill="none" xmlns="http://www.w3.org/2000/svg">
<path d="M16 0C7.1625 0 0 7.1625 0 16C0 24.8375 7.1625 32 16 32C24.8375 32 32 24.8375 32 16C32 7.1625 24.8375 0 16 0ZM16 30C13.0475 30 10.31 29.0763 8.05 27.51C8.30625 24.4312 10.8625 22 14 22H18C21.1406 22 23.6962 24.4338 23.9506 27.51C21.6875 29.075 18.95 30 16 30ZM25.7313 26.0438C24.85 22.5813 21.7313 20 18 20H14C10.2669 20 7.15 22.5812 6.26875 26.045C3.64188 23.4438 2 19.9375 2 16C2 8.28125 8.28125 2 16 2C23.7188 2 30 8.28125 30 16C30 19.9375 28.3563 23.4438 25.7313 26.0438ZM16 8C13.2375 8 11 10.2375 11 13C11 15.7625 13.2375 18 16 18C18.7625 18 21 15.7612 21 13C21 10.2375 18.7625 8 16 8ZM16 16C14.3438 16 13 14.6562 13 13C13 11.3438 14.3438 10 16 10C17.6562 10 19 11.3456 19 13C19 14.6544 17.6562 16 16 16Z" fill="#252525"/>
</svg>
