<svg width="32" height="32" viewBox="0 0 32 32" fill="none" xmlns="http://www.w3.org/2000/svg">
<path d="M21.0063 10.9375C20.4203 10.3516 19.4713 10.3516 18.885 10.9375L16 13.8813L13.0063 10.9375C12.4203 10.3516 11.4713 10.3516 10.885 10.9375C10.2987 11.5234 10.2991 12.4725 10.885 13.0588L13.8244 15.9981L10.9375 18.9375C10.3516 19.5234 10.3516 20.4725 10.9375 21.0588C11.5233 21.6446 12.4725 21.6451 13.0588 21.0588L16 18.1187L18.9394 21.0581C19.5252 21.6439 20.4744 21.6444 21.0606 21.0581C21.6466 20.4722 21.6466 19.5231 21.0606 18.9369L18.1213 15.9975L21.0606 13.0581C21.6437 12.475 21.6438 11.525 21.0063 10.9375ZM16 0C7.1625 0 0 7.1625 0 16C0 24.8375 7.1625 32 16 32C24.8375 32 32 24.8375 32 16C32 7.1625 24.8375 0 16 0ZM16 29C8.83125 29 3 23.1681 3 16C3 8.83187 8.83125 3 16 3C23.1688 3 29 8.83187 29 16C29 23.1681 23.1688 29 16 29Z" fill="#252525"/>
</svg>
