<svg width="24" height="29" viewBox="0 0 24 29" fill="none" xmlns="http://www.w3.org/2000/svg">
<path d="M23.4126 14.4125C23.0251 14.8063 22.5126 15 22.0001 15C21.4876 15 20.9764 14.8047 20.5864 14.4141L14.0001 7.83129V27C14.0001 28.1057 13.1045 28.9438 12.0564 28.9438C11.0082 28.9438 10.0001 28.1063 10.0001 27V7.83129L3.41449 14.4125C2.63324 15.1938 1.36761 15.1938 0.586365 14.4125C-0.194885 13.6313 -0.194885 12.3657 0.586365 11.5844L10.5864 1.58441C11.3676 0.803162 12.6332 0.803162 13.4145 1.58441L23.4145 11.5844C24.1939 12.3688 24.1939 13.6313 23.4126 14.4125Z" fill="#252525"/>
</svg>
