<svg width="28" height="24" viewBox="0 0 28 24" fill="none" xmlns="http://www.w3.org/2000/svg">
<path d="M27.8036 11.9997C27.8036 12.5497 27.3444 12.9997 26.7734 12.9997H3.35783L12.09 22.3312C12.4721 22.7394 12.441 23.3725 12.0206 23.7431C11.8225 23.9125 11.5743 24 11.326 24C11.0464 24 10.7669 23.8906 10.5639 23.6719L0.267738 12.6716C-0.0892458 12.2907 -0.0892458 11.7084 0.267738 11.3278L10.5639 0.327517C10.9481 -0.0826182 11.5997 -0.109994 12.0193 0.25914C12.4396 0.630275 12.4708 1.26292 12.0887 1.67105L3.35783 10.9997H26.774C27.3444 10.9997 27.8036 11.4497 27.8036 11.9997Z" fill="#252525"/>
</svg>
