<svg width="32" height="32" viewBox="0 0 32 32" fill="none" xmlns="http://www.w3.org/2000/svg">
<path d="M11 16C11 13.2375 13.2375 11 16 11C18.7625 11 21 13.2375 21 16C21 18.7625 18.7625 21 16 21C13.2375 21 11 18.7625 11 16ZM16 0C17.1063 0 18 0.895625 18 2V4.16563C23.025 5.00875 26.9937 8.975 27.8312 14H30C31.1063 14 32 14.8938 32 16C32 17.1063 31.1063 18 30 18H27.8312C26.9937 23.025 23.025 26.9937 18 27.8312V30C18 31.1063 17.1063 32 16 32C14.8938 32 14 31.1063 14 30V27.8312C8.975 26.9937 5.00875 23.025 4.16563 18H2C0.895625 18 0 17.1063 0 16C0 14.8938 0.895625 14 2 14H4.16563C5.00875 8.975 8.975 5.00875 14 4.16563V2C14 0.895625 14.8938 0 16 0ZM8 16C8 20.4188 11.5813 24 16 24C20.4188 24 24 20.4188 24 16C24 11.5813 20.4188 8 16 8C11.5813 8 8 11.5813 8 16Z" fill="#252525"/>
</svg>
