<svg width="32" height="26" viewBox="0 0 32 26" fill="none" xmlns="http://www.w3.org/2000/svg">
<path d="M9.77778 18.3333H6.22222C5.73333 18.3333 5.33333 18.7333 5.33333 19.2222C5.33333 19.7111 5.73333 20.1111 6.22222 20.1111H9.77778C10.2667 20.1111 10.6667 19.7111 10.6667 19.2222C10.6667 18.7333 10.2667 18.3333 9.77778 18.3333ZM9.77778 14.7778H6.22222C5.73333 14.7778 5.33333 15.1778 5.33333 15.6667C5.33333 16.1555 5.73333 16.5555 6.22222 16.5555H9.72778C10.2187 16.5555 10.6167 16.1575 10.6167 15.6667C10.6167 15.1778 10.2667 14.7778 9.77778 14.7778ZM20.4444 18.3333H13.3333C12.8444 18.3333 12.4444 18.7333 12.4444 19.2222C12.4444 19.7111 12.8444 20.1111 13.3333 20.1111H20.4444C20.9353 20.1111 21.3333 19.7131 21.3333 19.2222C21.3333 18.7333 20.9333 18.3333 20.4444 18.3333ZM28.4444 0.555542H3.55556C1.59167 0.555542 0 2.14721 0 4.1111V21.8889C0 23.8528 1.59167 25.4444 3.55556 25.4444H28.4444C30.4083 25.4444 32 23.8528 32 21.8889V4.1111C32 2.14721 30.4056 0.555542 28.4444 0.555542ZM30.2222 21.8889C30.2222 22.8689 29.4244 23.6667 28.4444 23.6667H3.55556C2.57556 23.6667 1.77778 22.8689 1.77778 21.8889V4.1111C1.77778 3.1311 2.57556 2.33332 3.55556 2.33332H28.4444C29.4244 2.33332 30.2222 3.1311 30.2222 4.1111V21.8889ZM27.5556 4.1111H20.4444C19.9556 4.1111 19.5556 4.5111 19.5556 4.99999V10.3333C19.5556 10.8222 19.9556 11.2222 20.4444 11.2222H27.5556C28.0444 11.2222 28.4444 10.8222 28.4444 10.3333V4.99999C28.4444 4.5111 28.0444 4.1111 27.5556 4.1111ZM26.6667 9.44443H21.3333V5.88888H26.6667V9.44443ZM25.7778 14.7778H24C23.5111 14.7778 23.1111 15.1778 23.1111 15.6667C23.1111 16.1575 23.5091 16.5555 24 16.5555H25.7778C26.2687 16.5555 26.6667 16.1575 26.6667 15.6667C26.6667 15.1778 26.2667 14.7778 25.7778 14.7778ZM20.4444 14.7778H13.3333C12.8444 14.7778 12.3944 15.1778 12.3944 15.6667C12.3944 16.1555 12.8444 16.5555 13.3333 16.5555H20.4444C20.9353 16.5555 21.3333 16.1575 21.3333 15.6667C21.3333 15.1778 20.9333 14.7778 20.4444 14.7778Z" fill="#252525"/>
</svg>
