<svg width="29" height="24" viewBox="0 0 29 24" fill="none" xmlns="http://www.w3.org/2000/svg">
<path d="M16.5375 0.414401L27.5375 10.9144C27.8344 11.1976 28.0024 11.59 28.0024 12.0007C28.0024 12.4113 27.8344 12.8032 27.5375 13.0869L16.5375 23.5869C15.9379 24.1572 14.9888 24.1357 14.4163 23.5361C13.844 22.9424 13.8655 21.9893 14.467 21.4149L22.7608 13.5024H1.50063C0.6725 13.5024 0 12.8299 0 12.0018C0 11.1736 0.6725 10.5024 1.50063 10.5024H22.7569L14.4631 2.58987C13.8625 2.0144 13.8438 1.06128 14.4125 0.465651C14.9875 -0.134349 15.8813 -0.155599 16.5375 0.414401Z" fill="#252525"/>
</svg>
