<svg width="32" height="26" viewBox="0 0 32 26" fill="none" xmlns="http://www.w3.org/2000/svg">
<path d="M31.5401 23.655L26.3652 19.5995C27.9326 18.0025 29.2546 16.0605 30.2256 13.8945C30.3209 13.673 30.3991 13.291 30.3991 13.043C30.3991 12.7942 30.321 12.413 30.2256 12.1915C27.5132 6.02151 22.1457 1.88651 16.0007 1.88651C12.8672 1.88651 9.94066 2.98401 7.46067 4.86751L1.94067 0.455812C1.72067 0.283962 1.45967 0.200012 1.20167 0.200012C0.845672 0.200012 0.492122 0.357912 0.256222 0.659462C-0.153177 1.18146 -0.0622774 1.93596 0.459622 2.34446L30.0146 25.4995C30.5396 25.9096 31.2931 25.8161 31.6991 25.2958C32.1551 24.82 32.0601 24.065 31.5401 23.655ZM19.7202 14.39L15.6377 11.235C15.8052 10.765 15.9552 10.31 15.9552 9.80001C15.9552 9.52601 15.9114 9.26351 15.846 9.01101C15.9302 9.01001 15.9652 9.00001 16.0002 9.00001C18.2057 9.00001 20.0002 10.7945 20.0002 13.0025C20.0002 13.495 19.8852 13.955 19.7202 14.39ZM21.6602 15.91C22.1202 15.04 22.4002 14.06 22.4002 13.005C22.4002 9.47001 19.5352 6.60001 16.0002 6.60001C14.3902 6.60001 12.9352 7.21001 11.8152 8.19501L9.41516 6.31501C11.4002 4.95151 13.6552 4.20001 16.0002 4.20001C20.9742 4.20001 25.5602 7.57501 27.9801 12.955C27.0771 14.974 25.8596 16.6765 24.4497 18.05L21.6602 15.91ZM16.0002 19.4C16.6712 19.4 17.3082 19.2679 17.9157 19.0762L15.1402 16.9C13.9552 16.64 12.9752 15.845 12.4402 14.785L9.64016 12.59C9.63016 12.73 9.60016 12.86 9.60016 13C9.60016 16.535 12.4652 19.4 16.0002 19.4ZM16.0002 21.8C11.0262 21.8 6.44017 18.425 4.02017 13.045C4.56167 11.834 5.22467 10.7435 5.96067 9.75201L4.06417 8.22001C3.17567 9.40701 2.40067 10.722 1.77367 12.1495C1.67817 12.37 1.55517 12.75 1.55517 13C1.55517 13.2489 1.63327 13.63 1.72862 13.8515C4.44112 20.0215 9.80861 24.1565 15.9536 24.1565C18.2266 24.1565 20.3921 23.582 22.3586 22.5495L20.2151 20.87C18.9002 21.47 17.4752 21.8 16.0002 21.8Z" fill="#252525"/>
</svg>
