<svg width="32" height="26" viewBox="0 0 32 26" fill="none" xmlns="http://www.w3.org/2000/svg">
<path d="M31.8056 12.0055C28.7944 5.19443 22.8278 0.555542 16 0.555542C9.17222 0.555542 3.205 5.19999 0.192722 12.0055C0.0868333 12.3 0 12.7222 0 13C0 13.2765 0.0867778 13.7 0.192722 13.9461C3.20667 20.8055 9.17222 25.4444 16 25.4444C22.8278 25.4444 28.7944 20.8011 31.8056 13.9944C31.9111 13.7 32 13.2278 32 13C32 12.7222 31.9111 12.3 31.8056 12.0055ZM24 13C24 17.4139 20.4183 21 16.0056 21C11.5889 21 8 17.4167 8 13C8 8.58332 11.5833 4.99999 16 4.99999C20.4167 4.99999 24 8.58332 24 13ZM16 7.66665C15.8722 7.66665 15.6889 7.68888 15.5278 7.7111C15.8222 8.22221 16 8.8111 16 9.44443C16 11.4083 14.4083 13 12.4444 13C11.8111 13 11.1722 12.8167 10.7056 12.5278C10.6889 12.6944 10.6667 12.8667 10.6667 13C10.6667 15.8944 13.0556 18.3333 16 18.3333C18.9444 18.3333 21.3333 15.945 21.3333 13.0005C21.3333 10.0561 18.8944 7.66665 16 7.66665Z" fill="#252525"/>
</svg>
