<svg width="32" height="22" viewBox="0 0 32 22" fill="none" xmlns="http://www.w3.org/2000/svg">
<path d="M29.3333 0.333313H2.66667C1.19389 0.333313 0 1.5272 0 2.99998V19C0 20.4722 1.19389 21.6666 2.66667 21.6666H29.3333C30.8061 21.6666 32 20.4728 32 19V2.99998C32 1.5272 30.8056 0.333313 29.3333 0.333313ZM2.66667 19V15.4444C4.63222 15.4444 6.22222 17.0344 6.22222 19H2.66667ZM2.66667 6.55553V2.99998H6.22222C6.22222 4.96665 4.63222 6.55553 2.66667 6.55553ZM16 16.3333C13.5456 16.3333 11.5556 13.9455 11.5556 11C11.5556 8.05442 13.5456 5.66665 16 5.66665C18.4544 5.66665 20.4444 8.05442 20.4444 11C20.4444 13.9444 18.4556 16.3333 16 16.3333ZM29.3333 19H25.7778C25.7778 17.0344 27.3678 15.4444 29.3333 15.4444V19ZM29.3333 6.55553C27.3678 6.55553 25.7778 4.96553 25.7778 2.99998H29.3333V6.55553Z" fill="#252525"/>
</svg>
