<svg width="32" height="26" viewBox="0 0 32 26" fill="none" xmlns="http://www.w3.org/2000/svg">
<path d="M15.955 19.4H6.35501V11.4H3.19901L3.19851 24.2C3.19851 25.0875 3.91101 25.8 4.79851 25.8H17.5985C18.486 25.8 19.1985 25.0875 19.1985 24.2L19.1991 11.4H15.955V19.4ZM31.73 7.31001L27.461 0.91001C27.161 0.46001 26.661 0.19751 26.1295 0.19751H5.86501C5.33351 0.19751 4.83351 0.46001 4.53351 0.91001L0.271006 7.31001C-0.438994 8.37501 0.323506 9.80001 1.60501 9.80001H30.4C31.675 9.80001 32.435 8.37501 31.73 7.31001ZM25.555 25C25.555 25.4375 25.9175 25.8 26.355 25.8H27.9555C28.393 25.8 28.7555 25.4375 28.7555 25L28.755 11.4H25.5545L25.555 25Z" fill="#252525"/>
</svg>
