<svg width="32" height="26" viewBox="0 0 32 26" fill="none" xmlns="http://www.w3.org/2000/svg">
<path d="M21.3333 13C21.3333 16.4341 18.9444 19.2135 16 19.2135C13.0056 19.2135 10.6667 16.4341 10.6667 13C10.6667 9.56596 13.0056 6.78654 16 6.78654C18.9444 6.78654 21.3333 9.56596 21.3333 13ZM15.1111 11.2247V14.7753H14.6667C14.1778 14.7753 13.7778 15.1747 13.7778 15.6629C13.7778 16.1511 14.1778 16.5506 14.6667 16.5506H17.3333C17.8222 16.5506 18.2222 16.1511 18.2222 15.6629C18.2222 15.1747 17.8222 14.7753 17.3333 14.7753H16.8889V10.3371C16.8889 9.8489 16.4889 9.44946 16 9.44946H15.1111C14.6222 9.44946 14.2222 9.8489 14.2222 10.3371C14.2222 10.8253 14.6222 11.2247 15.1111 11.2247ZM0 22.1816V5.06674C0 3.72363 1.41 2.83266 2.68611 3.18272C7.12222 4.35108 11.5611 3.26982 16 2.1403C20.8278 0.91147 25.6556 -0.317357 30.4833 1.47512C31.4333 1.82685 32 2.78994 32 3.81849V20.8834C32 22.2759 30.5889 23.1691 29.3167 22.7696C24.8778 21.599 20.4389 22.7308 16 23.857C11.1722 25.0886 6.34444 26.3146 1.51611 24.5227C0.567222 24.1732 0 23.2079 0 22.1816ZM15.5111 21.2329C18.6167 20.4396 22.1444 19.5408 25.8056 19.6407C26.0333 17.8987 27.5278 16.5506 29.3333 16.5506V6.78654C27.3722 6.78654 25.7833 5.19988 25.7778 3.24375C23.1667 3.14943 20.4 3.77189 17.2389 4.57299C16.9944 4.63401 16.7444 4.70059 16.4889 4.76716C13.3833 5.56049 9.85556 6.45922 6.19444 6.35936C5.96667 8.10136 4.47389 9.44946 2.66667 9.44946V19.2135C4.62778 19.2135 6.21667 20.8002 6.22222 22.7585C8.78333 22.8528 11.6 22.2259 14.7611 21.4271C15.0056 21.366 15.2556 21.2995 15.5111 21.2329Z" fill="#252525"/>
</svg>
