<svg width="28" height="25" viewBox="0 0 28 25" fill="none" xmlns="http://www.w3.org/2000/svg">
<path d="M27.4124 14.4125L17.4124 24.4125C17.0249 24.8062 16.5124 25 15.9999 25C15.4874 25 14.9762 24.8047 14.5862 24.414C13.8049 23.6328 13.8049 22.3672 14.5862 21.5859L21.1749 15H1.9999C0.895525 15 0 14.1062 0 13C0 11.8937 0.895525 11 1.9999 11H21.1749L14.5874 4.41248C13.8061 3.63123 13.8061 2.3656 14.5874 1.58435C15.3686 0.803101 16.6343 0.803101 17.4155 1.58435L27.4155 11.5844C28.1937 12.3687 28.1937 13.6312 27.4124 14.4125Z" fill="#252525"/>
</svg>
