<svg width="20" height="20" viewBox="0 0 20 20" fill="none" xmlns="http://www.w3.org/2000/svg">
<path d="M10 0C4.47656 0 0 4.47656 0 10C0 15.5234 4.47656 20 10 20C15.5234 20 20 15.5234 20 10C20 4.47656 15.5234 0 10 0ZM10 18.75C5.17578 18.75 1.25 14.8242 1.25 10C1.25 5.17578 5.17578 1.25 10 1.25C14.8242 1.25 18.75 5.17578 18.75 10C18.75 14.8242 14.8242 18.75 10 18.75ZM6.83984 9.0625C7.39453 9.0625 7.8125 8.64453 7.8125 8.125C7.8125 7.60547 7.39453 7.1875 6.83984 7.1875C6.35547 7.1875 5.9375 7.60547 5.9375 8.125C5.9375 8.64453 6.35547 9.0625 6.83984 9.0625ZM13.125 9.0625C13.6445 9.0625 14.0625 8.64453 14.0625 8.125C14.0625 7.60547 13.6445 7.1875 13.125 7.1875C12.6055 7.1875 12.1875 7.60547 12.1875 8.125C12.1875 8.64453 12.6055 9.0625 13.125 9.0625ZM13.75 11.875C8.55078 11.875 5.91797 14.4492 5.80859 14.5586C5.56641 14.8008 5.56641 15.1953 5.80859 15.4414C5.92969 15.5625 6.08984 15.5938 6.25 15.5938C6.41016 15.5938 6.57031 15.5352 6.69141 15.4141C6.71484 15.4258 9.09766 13.1289 13.75 13.1289C14.0938 13.1289 14.375 12.8477 14.375 12.5039C14.375 12.1602 14.0938 11.875 13.75 11.875Z" fill="#303843"/>
</svg>
