<svg width="24" height="32" viewBox="0 0 24 32" fill="none" xmlns="http://www.w3.org/2000/svg">
<path d="M17 12C17 14.7625 14.7625 17 12 17C9.2375 17 7 14.7625 7 12C7 9.2375 9.2375 7 12 7C14.7625 7 17 9.2375 17 12ZM12 10C10.8938 10 10 10.8938 10 12C10 13.1062 10.8938 14 12 14C13.1062 14 14 13.1062 14 12C14 10.8938 13.1062 10 12 10ZM24 12C24 17.4625 16.6875 27.1875 13.4812 31.2C12.7125 32.1562 11.2875 32.1562 10.5188 31.2C7.25625 27.1875 0 17.4625 0 12C0 5.3725 5.3725 0 12 0C18.625 0 24 5.3725 24 12ZM12 3C7.03125 3 3 7.03125 3 12C3 12.775 3.28062 13.975 3.95625 15.575C4.61125 17.125 5.54125 18.8375 6.6125 20.5688C8.3875 23.4563 10.45 26.1938 12 28.2313C13.55 26.1938 15.6125 23.4563 17.3875 20.5688C18.4563 18.8375 19.3875 17.125 20.0438 15.575C20.7188 13.975 21 12.775 21 12C21 7.03125 16.9688 3 12 3Z" fill="#252525"/>
</svg>
