<svg width="28" height="32" viewBox="0 0 28 32" fill="none" xmlns="http://www.w3.org/2000/svg">
<path d="M24 12H22V7.94375C22 3.5325 18.4113 0 14 0C9.58875 0 6 3.58875 6 7.94375V12H4C1.79063 12 0 13.7937 0 16V27.9438C0 30.1531 1.79063 31.9438 4 31.9438H24C26.2094 31.9438 28 30.1531 28 27.9438V16C28 13.7937 26.2062 12 24 12ZM9 8C9 5.24312 11.2431 3 14 3C16.7569 3 19 5.24312 19 8V12H9V8ZM25 28C25 28.5514 24.5514 29 24 29H4C3.44863 29 3 28.5514 3 28V16C3 15.4486 3.44863 15 4 15H24C24.5514 15 25 15.4486 25 16V28Z" fill="#252525"/>
</svg>
