<svg width="132" height="124" viewBox="0 0 132 124" fill="none" xmlns="http://www.w3.org/2000/svg">
<rect width="132" height="124" rx="8" fill="#EBEBEB"/>
<path d="M48.0544 36.691C48.5114 34.7555 50.1781 32.39 52.1539 32.39H57.6242C57.6242 37.9678 58.5785 37.9678 59.7209 37.9678H72.3148C73.4706 37.9678 74.4249 37.9678 74.4249 32.39H79.8952C81.871 32.39 83.5377 34.7555 83.9946 36.691L87.0456 51.2203H91.3735L88.0671 35.4007C87.2204 31.5029 83.8333 27.4707 79.8952 27.4707H52.1539C48.2158 27.4707 44.8287 31.5029 43.9819 35.3738L40.6621 51.1934H45.0034L48.0544 36.691Z" fill="#C7CAD1"/>
<path d="M54.1974 77.8984C52.3558 77.9011 50.5562 78.4496 49.0263 79.4747C47.4963 80.4998 46.3046 81.9554 45.6016 83.6576C44.8987 85.3598 44.7162 87.2322 45.0771 89.0381C45.438 90.8441 46.3262 92.5025 47.6293 93.8038C48.9325 95.105 50.5922 95.9908 52.3986 96.3491C54.2051 96.7074 56.0772 96.5222 57.7784 95.8168C59.4796 95.1114 60.9334 93.9176 61.9563 92.3862C62.9792 90.8547 63.5252 89.0544 63.5252 87.2128C63.5252 85.9885 63.2838 84.7762 62.8149 83.6452C62.3459 82.5143 61.6586 81.4869 60.7923 80.6218C59.926 79.7567 58.8976 79.0709 57.7659 78.6036C56.6343 78.1363 55.4217 77.8967 54.1974 77.8984V77.8984ZM57.3963 87.2128C57.3963 87.8375 57.211 88.4482 56.8639 88.9676C56.5169 89.487 56.0236 89.8918 55.4464 90.1309C54.8693 90.37 54.2342 90.4325 53.6215 90.3106C53.0088 90.1888 52.446 89.8879 52.0043 89.4462C51.5626 89.0045 51.2617 88.4417 51.1399 87.829C51.018 87.2163 51.0805 86.5812 51.3196 86.0041C51.5587 85.4269 51.9635 84.9336 52.4829 84.5866C53.0024 84.2395 53.613 84.0542 54.2377 84.0542C54.6525 84.0542 55.0632 84.1359 55.4464 84.2947C55.8297 84.4534 56.1778 84.6861 56.4711 84.9794C56.7644 85.2727 56.9971 85.6209 57.1558 86.0041C57.3145 86.3873 57.3963 86.798 57.3963 87.2128V87.2128Z" fill="#C7CAD1"/>
<path d="M77.8397 77.8984C75.9975 77.8984 74.1967 78.4447 72.665 79.4682C71.1332 80.4917 69.9394 81.9464 69.2344 83.6483C68.5294 85.3503 68.345 87.2231 68.7044 89.0299C69.0638 90.8367 69.9509 92.4964 71.2535 93.799C72.5561 95.1016 74.2158 95.9887 76.0226 96.3481C77.8294 96.7075 79.7022 96.5231 81.4042 95.8181C83.1062 95.1131 84.5608 93.9193 85.5843 92.3875C86.6078 90.8558 87.1541 89.055 87.1541 87.2128V87.2128C87.1541 84.7425 86.1728 82.3733 84.426 80.6265C82.6792 78.8798 80.31 77.8984 77.8397 77.8984V77.8984ZM80.9983 87.2128C80.9983 87.8375 80.813 88.4481 80.466 88.9676C80.1189 89.487 79.6256 89.8918 79.0485 90.1309C78.4713 90.37 77.8362 90.4325 77.2235 90.3106C76.6108 90.1888 76.0481 89.8879 75.6063 89.4462C75.1646 89.0045 74.8638 88.4417 74.7419 87.829C74.62 87.2163 74.6826 86.5812 74.9216 86.0041C75.1607 85.4269 75.5655 84.9336 76.085 84.5865C76.6044 84.2395 77.215 84.0542 77.8397 84.0542C78.6774 84.0542 79.4808 84.387 80.0732 84.9794C80.6655 85.5717 80.9983 86.3751 80.9983 87.2128V87.2128Z" fill="#C7CAD1"/>
<path d="M95.4193 51.2212H36.63C36.0778 51.1861 35.5241 51.2605 35.0008 51.4403C34.4775 51.6201 33.9949 51.9017 33.5809 52.2689C33.1669 52.636 32.8297 53.0815 32.5887 53.5796C32.3476 54.0777 32.2076 54.6185 32.1765 55.171C32.1455 55.7235 32.2241 56.2766 32.4078 56.7986C32.5916 57.3205 32.8767 57.801 33.247 58.2122C33.6173 58.6234 34.0652 58.9573 34.5651 59.1946C35.065 59.4319 35.607 59.5679 36.1596 59.5947C36.3162 59.6085 36.4735 59.6085 36.63 59.5947H37.1274L40.8907 81.9734C41.179 83.426 42.0291 84.706 43.2563 85.5351C43.5887 82.7933 44.9311 80.2737 47.0215 78.4686C49.1119 76.6634 51.8 75.7023 54.5611 75.7728C57.3221 75.8434 59.9577 76.9405 61.9532 78.8501C63.9486 80.7596 65.1607 83.3444 65.3526 86.0996H66.6967C66.9049 83.354 68.1248 80.7833 70.1201 78.8857C72.1153 76.9881 74.7439 75.8986 77.4966 75.8283C80.2492 75.758 82.93 76.7119 85.0195 78.5053C87.109 80.2986 88.4584 82.8037 88.8065 85.5351C90.0296 84.7046 90.875 83.4244 91.1586 81.9734L94.9354 59.5947H95.4327C96.5381 59.6485 97.62 59.2631 98.4424 58.5226C99.2649 57.7821 99.7612 56.7464 99.8233 55.6414C99.8854 54.5365 99.5081 53.4518 98.7738 52.6238C98.0395 51.7958 97.0076 51.2916 95.9031 51.2212C95.7466 51.2075 95.5892 51.2075 95.4327 51.2212H95.4193ZM46.8315 61.9737H46.9659C47.1305 61.9469 47.2985 61.9469 47.4632 61.9737H46.8315Z" fill="#C7CAD1"/>
</svg>
