<svg width="32" height="26" viewBox="0 0 32 26" fill="none" xmlns="http://www.w3.org/2000/svg">
<path d="M4.8 3.40001V5.00001H12C12.44 5.00001 12.8 5.36001 12.8 5.80001C12.8 6.24001 12.44 6.60001 12 6.60001H0.8C0.3582 6.60001 0 6.24001 0 5.80001C0 5.36001 0.3582 5.00001 0.8 5.00001H3.2V3.40001C3.2 1.63251 4.6325 0.200012 6.4 0.200012H17.6C19.365 0.200012 20.8 1.63251 20.8 3.40001V5.00001H24.065C24.765 5.00001 25.43 5.30501 25.885 5.84001L29.82 10.43C30.195 10.865 30.4 11.42 30.4 11.99V19.4H31.2C31.64 19.4 32 19.76 32 20.2C32 20.64 31.64 21 31.2 21H28.8C28.8 23.65 26.65 25.8 24 25.8C21.305 25.8 19.2 23.65 19.2 21H12.755C12.755 23.65 10.65 25.8 7.955 25.8C5.305 25.8 3.155 23.65 3.155 21V14.6H4.755V17.42C5.605 16.66 6.77 16.2 7.955 16.2C10.09 16.2 11.87 17.535 12.525 19.4H19.2V3.40001C19.2 2.51651 18.485 1.80001 17.6 1.80001H6.355C5.515 1.80001 4.755 2.51651 4.755 3.40001H4.8ZM24.67 6.88001C24.52 6.70001 24.255 6.60001 24.065 6.60001H20.8V11.4H28.545L24.67 6.88001ZM20.8 13V17.42C21.605 16.66 22.77 16.2 24 16.2C26.09 16.2 27.87 17.535 28.525 19.4H28.8V13H20.8ZM8 17.8C6.235 17.8 4.8 19.235 4.8 21C4.8 22.765 6.235 24.2 8 24.2C9.765 24.2 11.2 22.765 11.2 21C11.2 19.235 9.765 17.8 8 17.8ZM24 24.2C25.765 24.2 27.2 22.765 27.2 21C27.2 19.235 25.765 17.8 24 17.8C22.235 17.8 20.8 19.235 20.8 21C20.8 22.765 22.235 24.2 24 24.2ZM13.6 8.20001C14.04 8.20001 14.4 8.56001 14.4 9.00001C14.4 9.44001 14.04 9.80001 13.6 9.80001H2.4C1.958 9.80001 1.6 9.44001 1.6 9.00001C1.6 8.56001 1.958 8.20001 2.4 8.20001H13.6ZM12 11.4C12.44 11.4 12.8 11.76 12.8 12.2C12.8 12.64 12.44 13 12 13H0.8C0.3582 13 0 12.64 0 12.2C0 11.76 0.3582 11.4 0.8 11.4H12Z" fill="#252525"/>
</svg>
