<svg width="18" height="19" viewBox="0 0 18 19" fill="none" xmlns="http://www.w3.org/2000/svg">
<path d="M9 0.25C4.00781 0.25 0 4.29297 0 9.25C0 14.1719 4.00781 18.25 8.96484 18.25C13.8867 18.25 18 14.2422 18 9.25C18 4.29297 13.957 0.25 9 0.25ZM7.38281 13.2227C6.60938 13.3984 4.88672 13.75 4.88672 13.75C4.85156 13.75 4.81641 13.75 4.81641 13.75C4.60547 13.75 4.46484 13.5742 4.5 13.3633L5.0625 10.8672C5.09766 10.6211 5.23828 10.4102 5.41406 10.2344L8.96484 6.68359L11.6016 9.28516L8.01562 12.8711C7.83984 13.0469 7.62891 13.1523 7.38281 13.2227ZM13.1133 7.77344L12.375 8.51172L9.73828 5.875L10.4766 5.13672C10.7227 4.89062 11.0742 4.75 11.3906 4.75C11.7422 4.75 12.0586 4.89062 12.3398 5.13672L13.1133 5.91016C13.6055 6.4375 13.6055 7.24609 13.1133 7.77344Z" fill="white"/>
</svg>
