<svg width="32" height="26" viewBox="0 0 32 26" fill="none" xmlns="http://www.w3.org/2000/svg">
<path d="M13.735 15.4H8.665C3.8785 15.4 0 19.28 0 24.065C0 25.025 0.776 25.8 1.733 25.8H20.665C21.625 25.8 22.4 25.025 22.4 24.065C22.4 19.28 18.52 15.4 13.735 15.4ZM20.665 24.2H1.733C1.66 24.2 1.6 24.14 1.6 24.065C1.6 20.17 4.77 17 8.665 17H13.735C17.63 17 20.8 20.17 20.8 24.065C20.8 24.14 20.74 24.2 20.665 24.2ZM11.2 13C14.735 13 17.6 10.1345 17.6 6.60001C17.6 3.06551 14.735 0.200012 11.2 0.200012C7.665 0.200012 4.8 3.06551 4.8 6.60001C4.8 10.1345 7.665 13 11.2 13ZM11.2 1.80001C13.847 1.80001 16 3.95301 16 6.60001C16 9.24651 13.847 11.4 11.2 11.4C8.553 11.4 6.4 9.24501 6.4 6.60001C6.4 3.95301 8.555 1.80001 11.2 1.80001ZM18.755 12.25C19.645 12.74 20.615 13 21.6 13C24.69 13 27.2 10.49 27.2 7.40001C27.2 4.31001 24.69 1.80001 21.6 1.80001C20.9585 1.80001 20.3305 1.90781 19.733 2.11956C19.3166 2.26721 19.0985 2.72406 19.2463 3.14056C19.394 3.55776 19.8523 3.77356 20.2673 3.62726C20.695 3.47651 21.14 3.40001 21.6 3.40001C23.805 3.40001 25.6 5.19451 25.6 7.40001C25.6 9.60551 23.805 11.4 21.6 11.4C20.896 11.4 20.2045 11.2149 19.601 10.8655C19.2182 10.6429 18.729 10.7741 18.508 11.1569C18.285 11.54 18.415 12.03 18.755 12.25ZM24.535 16.2H22.4C21.9578 16.2 21.6 16.5578 21.6 17C21.6 17.4422 21.96 17.8 22.4 17.8H24.5335C27.77 17.8 30.4 20.43 30.4 23.665C30.4 23.96 30.16 24.2 29.865 24.2H24.8C24.3578 24.2 24 24.5578 24 25C24 25.4422 24.3578 25.8 24.8 25.8H29.865C31.045 25.8 32 24.845 32 23.665C32 19.505 28.65 16.2 24.535 16.2Z" fill="#252525"/>
</svg>
