<svg width="30" height="32" viewBox="0 0 30 32" fill="none" xmlns="http://www.w3.org/2000/svg">
<path d="M27.7818 5H23.0282L20.8553 1.45312C20.298 0.554688 19.301 0 18.2209 0H11.7788C10.7 0 9.70175 0.554688 9.14254 1.45312L6.97153 5H2.1604C1.37111 5 0.684082 5.67188 0.684082 6.44375C0.684082 7.21562 1.37111 8 2.1604 8H2.72919L4.08472 29.1875C4.18059 30.7656 5.52397 32 7.146 32H22.855C24.4771 32 25.8204 30.7656 25.9163 29.1875L27.2705 8H27.7818C28.6318 8 29.3157 7.33125 29.3157 6.5C29.3157 5.66875 28.6318 5 27.7818 5ZM11.7788 3H18.2209L19.4512 5H10.5518L11.7788 3ZM22.8544 29H7.14536L5.80517 8H24.1984L22.8544 29Z" fill="#252525"/>
</svg>
