<svg width="32" height="32" viewBox="0 0 32 32" fill="none" xmlns="http://www.w3.org/2000/svg">
<path d="M16 16.5C17.3825 16.5 18.5 15.3825 18.5 14C18.5 13.3438 18.2344 12.75 17.8125 12.305L19.9219 7.39062C20.1406 6.88281 19.8984 6.29688 19.3906 6.07812C18.8906 5.85938 18.2969 6.09375 18.0781 6.60938L15.9875 11.5C14.6125 11.5188 13.5 12.625 13.5 14C13.5 15.3813 14.6187 16.5 16 16.5ZM27.5 4H24.4856C22.4688 1.55687 19.4188 0 16 0C12.5813 0 9.53125 1.55687 7.5125 4H4.5C2.01875 4 0 6.01937 0 8.5V27.5C0 29.9813 2.01875 32 4.5 32H27.5C29.9813 32 32 29.9806 32 27.5V8.5C32 6.01937 29.9813 4 27.5 4ZM16 3C20.4113 3 24 6.58875 24 11C24 15.4113 20.4113 19 16 19C11.5887 19 8 15.4113 8 11C8 6.58875 11.5875 3 16 3ZM29 27.5C29 28.3263 28.3269 29 27.5 29H4.5C3.67313 29 3 28.3263 3 27.5V8.5C3 7.67375 3.67313 7 4.5 7H5.76125C5.27625 8.24375 5 9.5875 5 11C5 17.075 9.925 22 16 22C22.075 22 27 17.075 27 11C27 9.58687 26.7241 8.24125 26.2388 7H27.5C28.3269 7 29 7.67375 29 8.5V27.5Z" fill="#252525"/>
</svg>
