<svg width="28" height="32" viewBox="0 0 28 32" fill="none" xmlns="http://www.w3.org/2000/svg">
<path d="M25.05 8C24.5322 8 24.1 8.39525 24.0537 8.91125L22.25 29.0875C22.2125 29.6 21.775 30 21.2563 30H6.74375C6.22688 30 5.78937 29.6 5.75 29.0875L3.9475 8.9125C3.90125 8.39375 3.46937 8 2.95187 8C2.36437 8 1.90313 8.50625 1.95563 9.0875L3.75813 29.2625C3.89875 30.8125 5.1875 32 6.74375 32H21.2625C22.8175 32 24.1063 30.8125 24.2469 29.2656L26.0494 9.09062C26.0938 8.50625 25.6375 8 25.05 8ZM27 4H21L18.8981 1.20312C18.3375 0.445312 17.4438 0 16.5 0H11.5C10.5562 0 9.6625 0.445312 9.1 1.20312L7 4H1C0.45 4 0 4.45 0 5C0 5.55 0.45 6 1 6H27C27.55 6 28 5.55 28 5C28 4.45 27.55 4 27 4ZM9.5 4L10.7031 2.39875C10.8937 2.14875 11.1875 2 11.5 2H16.5C16.8125 2 17.1094 2.14844 17.2969 2.39844L18.5 4H9.5Z" fill="#252525"/>
</svg>
