<svg width="32" height="32" viewBox="0 0 32 32" fill="none" xmlns="http://www.w3.org/2000/svg">
<path d="M19.3937 6.07812C18.8937 5.85938 18.3 6.09375 18.0812 6.60938L15.9875 11.5C14.6125 11.5188 13.5 12.625 13.5 14C13.5 15.3825 14.6175 16.5 16 16.5C17.3825 16.5 18.5 15.3813 18.5 14C18.5 13.3438 18.2344 12.75 17.8125 12.305L19.9219 7.39062C20.1437 6.88125 19.9 6.3 19.3937 6.07812ZM28 4H24.4856C22.4688 1.55687 19.4188 0 16 0C12.5813 0 9.53125 1.55687 7.5125 4H4C1.79688 4 0 5.79688 0 8V28C0 30.2031 1.79688 32 4 32H28C30.2031 32 32 30.2031 32 28V8C32 5.79688 30.2062 4 28 4ZM16 19C11.5887 19 8 15.4113 8 11C8 6.58875 11.5887 3 16 3C20.4113 3 24 6.58875 24 11C24 15.4113 20.4125 19 16 19Z" fill="#252525"/>
</svg>
