<svg width="32" height="26" viewBox="0 0 32 26" fill="none" xmlns="http://www.w3.org/2000/svg">
<path d="M31.695 24.37C32.045 24.645 32.1 25.105 31.83 25.495C31.555 25.845 31.05 25.9 30.705 25.63L0.304297 1.62801C-0.0424681 1.35401 -0.101653 0.851012 0.172147 0.504312C0.445896 0.157547 0.948996 0.0983622 1.2955 0.372162L31.695 24.37ZM27.2 13.8V17.765L25.6 16.5V13.8C25.6 13.36 25.96 13 26.4 13C26.84 13 27.2 13.36 27.2 13.8ZM19.255 11.4C19.215 11.4 19.175 11.355 19.135 11.355L15.415 8.46001C15.555 8.39001 15.795 8.35001 15.995 8.35001C16.445 8.35001 16.88 8.54501 17.18 8.88001C17.69 9.44001 18.425 9.80001 19.255 9.80001C20.085 9.80001 20.815 9.44001 21.325 8.88001C21.63 8.54501 22.06 8.35001 22.51 8.35001C22.96 8.35001 23.395 8.54001 23.695 8.87501C24.21 9.44001 24.905 9.80001 25.77 9.80001C25.905 9.80001 26.035 9.79001 26.17 9.77501C27.645 9.57501 28.565 7.72501 27.63 6.24501L24.82 1.80001H7.17999L7.10999 1.90601L5.80499 0.909512L5.88499 0.856512C6.13999 0.448962 6.59499 0.200012 7.07999 0.200012H24.92C25.405 0.200012 25.86 0.448912 26.115 0.856512L28.98 5.39001C30.465 7.73501 29.15 10.99 26.375 11.36C26.18 11.385 25.98 11.4 25.77 11.4C24.79 11.4 23.89 11.075 23.165 10.54C22.925 10.365 22.71 10.17 22.515 9.95001C22.32 10.165 22.105 10.36 21.87 10.535C21.145 11.075 20.24 11.4 19.255 11.4ZM6.21999 11.4C6.01499 11.4 5.80999 11.385 5.60999 11.36C3.24699 11.04 1.9475 8.61501 2.54499 6.45501L3.99299 7.55501C4.02499 8.67001 4.78749 9.63501 5.81999 9.77501C5.95499 9.79001 6.08999 9.80001 6.21999 9.80001C6.38999 9.80001 6.55999 9.78501 6.72499 9.75501L8.20499 10.925C7.61499 11.225 6.93999 11.4 6.21999 11.4ZM6.35499 19.4V22.6C6.35499 23.485 7.11499 24.2 7.95499 24.2H24C24.28 24.2 24.545 24.13 24.77 24L26.08 25.035C25.52 25.51 24.795 25.8 24 25.8H7.95499C6.23499 25.8 4.75499 24.365 4.75499 22.6V13.8C4.75499 13.36 5.15999 13 5.55499 13C6.03999 13 6.35499 13.36 6.35499 13.8V17.8H16.915L18.94 19.4H6.35499Z" fill="#252525"/>
</svg>
