<svg width="32" height="32" viewBox="0 0 32 32" fill="none" xmlns="http://www.w3.org/2000/svg">
<path d="M16 0C7.1625 0 0 7.1625 0 16C0 24.8375 7.1625 32 16 32C24.8375 32 32 24.8375 32 16C32 7.1625 24.8375 0 16 0ZM16 30C8.28125 30 2 23.7188 2 16C2 8.28125 8.28125 2 16 2C23.7188 2 30 8.28125 30 16C30 23.7188 23.7188 30 16 30ZM22 15H17V10C17 9.44725 16.5527 9 16 9C15.4473 9 15 9.45 15 10V15H10C9.45 15 9 15.45 9 16C9 16.55 9.45 17 10 17H15V22C15 22.5527 15.4473 23 16 23C16.5527 23 17 22.5527 17 22V17H22C22.5527 17 23 16.5527 23 16C23 15.4473 22.55 15 22 15Z" fill="#252525"/>
</svg>
