<svg width="32" height="29" viewBox="0 0 32 29" fill="none" xmlns="http://www.w3.org/2000/svg">
<path d="M12.4444 16C13.1806 16 13.7778 15.2017 13.7778 14.2722C13.7778 13.3428 13.1833 12.4444 12.4444 12.4444C11.7056 12.4444 11.1111 13.2444 11.1111 14.2222C11.1111 15.2 11.7111 16 12.4444 16ZM16 0C15.8611 0 15.7167 0.0212222 15.5722 0.0559444L4.90556 2.81983C4.06111 3.02833 3.55556 3.76444 3.55556 4.60444V25.7778H1.33333C0.597222 25.7778 0 26.3722 0 27.1111C0 27.85 0.597222 28.4444 1.33333 28.4444H16C16.9817 28.4444 17.7778 27.6483 17.7778 26.6667V1.84056C17.7778 0.798889 16.9611 0 16 0ZM15.1111 25.7778H6.22222V5.22944L15.1111 2.93056V25.7778ZM30.6667 25.7778H28.4444V7.11111C28.4444 5.14722 26.8528 3.55556 24.8889 3.55556L19.5556 3.55589V6.22222H24.8889C25.3798 6.22222 25.7778 6.62011 25.7778 7.11111V26.6667C25.7778 27.6483 26.5739 28.4444 27.5556 28.4444H30.6667C31.4028 28.4444 32 27.8472 32 27.1111C32 26.3722 31.4056 25.7778 30.6667 25.7778Z" fill="#252525"/>
</svg>
