<svg width="32" height="26" viewBox="0 0 32 26" fill="none" xmlns="http://www.w3.org/2000/svg">
<path d="M16.2547 17.775L11.2897 13.88C11.7048 16.108 13.6527 17.7985 16.0007 17.7985C16.0897 17.8 16.1697 17.78 16.2547 17.775ZM15.9997 20.2C12.0247 20.2 8.79966 16.974 8.79966 13.045C8.79966 12.7056 8.85416 12.381 8.85466 12.054L4.06366 8.22001C3.17516 9.40751 2.40016 10.722 1.77316 12.1495C1.67766 12.37 1.55466 12.75 1.55466 13C1.55466 13.2489 1.63281 13.63 1.72811 13.8515C4.44061 20.0215 9.80811 24.1565 15.9531 24.1565C18.2261 24.1565 20.3916 23.582 22.3581 22.5495L18.6331 19.6295C17.8047 20.005 16.9047 20.2 15.9997 20.2ZM31.5397 23.655L26.3647 19.5995C27.9332 18.0015 29.2532 16.062 30.2252 13.8945C30.3205 13.673 30.3986 13.291 30.3986 13.043C30.3986 12.7942 30.3205 12.413 30.2252 12.1915C27.5127 6.02151 22.1452 1.88651 16.0002 1.88651C12.8657 1.88651 9.94016 2.98351 7.46016 4.86751L1.94016 0.455812C1.72016 0.283962 1.45916 0.200012 1.20116 0.200012C0.845163 0.200012 0.491613 0.357912 0.255713 0.659462C-0.153637 1.18146 -0.0627869 1.93596 0.459113 2.34446L30.0141 25.4995C30.5391 25.9096 31.2926 25.8161 31.6986 25.2958C32.1547 24.82 32.0597 24.065 31.5397 23.655ZM23.1547 13C23.1547 14.2425 22.8194 15.399 22.2572 16.4135L20.3297 14.902C20.5917 14.318 20.7544 13.681 20.7544 12.998C20.7544 10.393 18.6044 8.19801 15.9994 8.19801C15.8844 8.19948 15.7207 8.22019 15.5764 8.2363C15.8397 8.70001 15.9547 9.23001 15.9547 9.80001C15.9547 10.3085 15.8266 10.7835 15.6136 11.208L11.1797 7.69501C12.4527 6.52601 14.1357 5.79851 16.0007 5.79851C19.9747 5.80001 23.1547 9.03001 23.1547 13Z" fill="#252525"/>
</svg>
