<svg width="32" height="26" viewBox="0 0 32 26" fill="none" xmlns="http://www.w3.org/2000/svg">
<path d="M11.2 13C14.735 13 17.6 10.1345 17.6 6.60001C17.6 3.06551 14.735 0.200012 11.2 0.200012C7.665 0.200012 4.8 3.06551 4.8 6.60001C4.8 10.1345 7.665 13 11.2 13ZM13.735 15.4H8.665C3.8785 15.4 0 19.28 0 24.065C0 25.025 0.776 25.8 1.733 25.8H20.665C21.625 25.8 22.4 25.025 22.4 24.065C22.4 19.28 18.52 15.4 13.735 15.4ZM23.955 16.2H20.2625C22.56 18.085 24 20.905 24 24.065C24 24.705 23.81 25.295 23.5 25.8H30.4C31.285 25.8 32 25.08 32 24.155C32 19.78 28.42 16.2 23.955 16.2ZM21.6 13C24.695 13 27.2 10.495 27.2 7.40001C27.2 4.30501 24.695 1.80001 21.6 1.80001C20.3445 1.80001 19.198 2.22776 18.264 2.92551C18.84 4.03151 19.2 5.27001 19.2 6.60001C19.2 8.37601 18.6035 10.007 17.6205 11.3355C18.635 12.36 20.04 13 21.6 13Z" fill="#252525"/>
</svg>
