<svg width="24" height="24" viewBox="0 0 24 24" fill="none" xmlns="http://www.w3.org/2000/svg">
<path d="M19.5984 6.9375L17.9391 6.69844L17.2031 5.18906C16.7531 4.30781 15.5016 4.30312 15.0516 5.18906L14.3063 6.69375L12.6422 6.93281C12.3891 6.97031 12.1734 7.10156 11.9953 7.27969C11.8172 7.10156 11.6016 6.97031 11.3438 6.93281L9.68906 6.69375L8.90625 5.18906C8.46562 4.30781 7.20469 4.30312 6.75469 5.18906L6.05625 6.69375L4.40156 6.9375C3.45469 7.07812 3.00937 8.25938 3.73594 8.99063L4.94063 10.1578L4.65469 11.8266C4.49531 12.8297 5.55469 13.5234 6.38437 13.0687L7.87031 12.2953L9.34219 13.0547C10.2094 13.5328 11.25 12.8109 11.0906 11.8078L10.8047 10.1484L12 9L13.1906 10.1531L12.9 11.8219C12.7406 12.825 13.8 13.5188 14.6297 13.0641L16.125 12.2906L17.6016 13.05C18.4688 13.5281 19.5047 12.8063 19.3453 11.8031L19.0594 10.1437L20.2734 8.96719C20.9719 8.27344 20.5734 7.08281 19.5984 6.9375ZM9.19687 9.63281L9.51094 11.4562L7.83281 10.6078L6.19687 11.4516L6.51094 9.62812L5.21719 8.33438L7.05469 8.07187L7.87031 6.40781L8.69531 8.07187L10.5328 8.33438L9.19687 9.63281ZM17.4516 9.63281L17.7656 11.4562L16.1297 10.6078L14.4938 11.4516L14.8078 9.62812L13.4672 8.33438L15.3047 8.07187L16.1297 6.40781L16.9453 8.07187L18.7828 8.33438L17.4516 9.63281ZM17.7703 15.0375C16.3547 15.4922 14.2078 15.75 12 15.75C9.79219 15.75 7.64531 15.4922 6.22969 15.0375C5.69062 14.8687 5.175 15.3375 5.25937 15.8391C5.69062 18.4594 9.16406 20.25 12 20.25C14.8359 20.25 18.3047 18.4594 18.7406 15.8812C18.8297 15.3328 18.3188 14.8641 17.7703 15.0375ZM12 18.7453C10.4016 18.7453 8.39062 17.9859 7.3875 16.8609C10.0781 17.3672 13.9266 17.3672 16.6219 16.8609C15.6094 17.9906 13.5984 18.7453 12 18.7453ZM12 0C5.37188 0 0 5.37188 0 12C0 18.6281 5.37188 24 12 24C18.6281 24 24 18.6281 24 12C24 5.37188 18.6281 0 12 0ZM12 22.5C6.21094 22.5 1.5 17.7891 1.5 12C1.5 6.21094 6.21094 1.5 12 1.5C17.7891 1.5 22.5 6.21094 22.5 12C22.5 17.7891 17.7891 22.5 12 22.5Z" fill="#252525"/>
</svg>
