<svg width="32" height="32" viewBox="0 0 32 32" fill="none" xmlns="http://www.w3.org/2000/svg">
<path d="M30.2875 20.6625L23.925 17.9337C22.7687 17.4532 21.4125 17.7853 20.6281 18.7512L18.5569 21.2806C15.2625 19.4875 12.5188 16.7437 10.725 13.45L13.2575 11.3756C14.2369 10.5681 14.5594 9.24057 14.06 8.07307L11.3375 1.71057C10.7937 0.454879 9.425 -0.233621 8.1 0.0720663L2.19812 1.44119C0.904375 1.73619 0 2.86869 0 4.19495C0 19.525 12.475 32 27.8062 32C29.1331 32 30.2694 31.0975 30.5669 29.8043L31.9294 23.9C32.2312 22.5687 31.5438 21.2062 30.2875 20.6625ZM28.6187 29.3562C28.5328 29.7293 28.191 30.0006 27.8075 30.0006C13.5763 30.0006 2.00125 18.4256 2.00125 4.19432C2.00125 3.80757 2.26588 3.47682 2.6475 3.38932L8.54813 2.01994C8.61063 2.00529 8.67312 1.99846 8.73462 1.99846C9.06175 1.99846 9.3665 2.19183 9.50025 2.50039L12.224 8.85665C12.3687 9.19995 12.275 9.5937 11.9875 9.8312L8.83125 12.4187C8.475 12.7125 8.3625 13.2125 8.56875 13.6312C10.655 17.8693 14.1381 21.35 18.375 23.4375C18.7901 23.6445 19.2956 23.5331 19.59 23.1738L22.1769 20.0175C22.4083 19.7323 22.8119 19.6386 23.1456 19.7773L29.4956 22.4998C29.8647 22.66 30.0679 23.0603 29.9781 23.451L28.6187 29.3562Z" fill="#252525"/>
</svg>
