<svg width="24" height="24" viewBox="0 0 24 24" fill="none" xmlns="http://www.w3.org/2000/svg">
<path d="M15.7078 10.875C16.3734 10.875 16.875 10.3734 16.875 9.75C16.875 9.12656 16.3734 8.625 15.75 8.625C15.1266 8.625 14.625 9.12656 14.625 9.75C14.625 10.3734 15.1266 10.875 15.7078 10.875ZM8.20781 10.875C8.87344 10.875 9.375 10.3734 9.375 9.75C9.375 9.12656 8.87344 8.625 8.20781 8.625C7.62656 8.625 7.125 9.12656 7.125 9.75C7.125 10.3734 7.62656 10.875 8.20781 10.875ZM16.5 15.75H7.45781C7.05 15.75 6.70781 16.0875 6.70781 16.5C6.70781 16.9125 7.05 17.25 7.45781 17.25H16.4578C16.8656 17.25 17.2078 16.9125 17.2078 16.5C17.2078 16.0875 16.9078 15.75 16.5 15.75ZM12 0C5.37188 0 0 5.37188 0 12C0 18.6281 5.37188 24 12 24C18.6281 24 24 18.6281 24 12C24 5.37188 18.6281 0 12 0ZM12 22.5C6.21094 22.5 1.5 17.7891 1.5 12C1.5 6.21094 6.21094 1.5 12 1.5C17.7891 1.5 22.5 6.21094 22.5 12C22.5 17.7891 17.7891 22.5 12 22.5Z" fill="#252525"/>
</svg>
