<svg width="28" height="29" viewBox="0 0 28 29" fill="none" xmlns="http://www.w3.org/2000/svg">
<path d="M27.1186 1.88C26.5498 1.30563 25.7811 0.943752 24.9436 1C24.5615 1 24.1761 1.07325 23.8098 1.224L1.8642 10.225C0.537326 10.768 -0.220799 12.1744 0.0567008 13.5806C0.333076 14.9888 1.5667 16.0025 2.99983 16.0025H12.9436V25.9463C12.9436 27.4463 14.1423 28.89 15.9448 28.89C17.143 28.89 18.2523 28.1694 18.7205 27.0269L27.7748 5.13813C28.2373 4.01875 27.9748 2.73375 27.1186 1.88ZM25.9248 4.38063L16.9811 26.3244C16.7686 26.7563 16.4061 27 15.9998 27C15.3167 27 14.9986 26.4033 14.9986 26.0563V14H3.05483C2.57826 14 2.16608 13.6606 2.07358 13.1913C1.9267 12.725 2.18045 12.2563 2.6217 12.075L24.628 3.075C24.7436 3.025 24.8686 3 24.9436 3C25.2071 3 25.4647 3.10669 25.653 3.29519C25.9936 3.58 26.0811 4.00625 25.9248 4.38063Z" fill="#252525"/>
</svg>
