<svg width="32" height="30" viewBox="0 0 32 30" fill="none" xmlns="http://www.w3.org/2000/svg">
<path d="M9.77778 18.5556C9.28889 18.5556 8.88889 18.9556 8.88889 19.4445V24.7778C8.88889 25.2686 9.28711 25.6167 9.77778 25.6167C10.2686 25.6167 10.6667 25.2186 10.6667 24.7778V19.4445C10.6667 18.9556 10.2667 18.5556 9.77778 18.5556ZM16 18.5056C15.5093 18.5056 15.1111 18.9038 15.1111 19.3945V24.7278C15.1111 25.2186 15.5093 25.5667 16 25.5667C16.4908 25.5667 16.8889 25.1686 16.8889 24.7278V19.4445C16.8889 18.9556 16.4889 18.5056 16 18.5056ZM22.2222 18.5556C21.7316 18.5556 21.3333 18.9537 21.3333 19.4445V24.7778C21.3333 25.2686 21.7316 25.6167 22.2222 25.6167C22.713 25.6167 23.1111 25.2186 23.1111 24.7778V19.4445C23.1111 18.9556 22.7111 18.5556 22.2222 18.5556ZM31.1111 11.4445H23.2833L19.4994 1.35557C19.3267 0.894624 18.8156 0.665568 18.3544 0.835624C17.8952 1.00835 17.6628 1.52062 17.8345 1.98062L21.3833 11.4445H10.6167L14.1661 1.97779C14.338 1.51774 14.1053 1.00557 13.6462 0.832791C13.1833 0.663235 12.6722 0.893235 12.5 1.35446L8.71667 11.4445H0.888889C0.398 11.4445 0 11.8423 0 12.2833C0 12.8222 0.398 13.2222 0.888889 13.2222H1.77778L4.71444 26.4389C5.07611 28.0667 6.51667 29.2222 8.18333 29.2222H23.8111C25.4278 29.2222 26.9206 28.065 27.2822 26.4378L30.2222 13.2222H31.1111C31.6 13.2222 32 12.8222 32 12.3333C32 11.8445 31.6 11.4445 31.1111 11.4445ZM25.55 26.05C25.3667 26.8722 24.6556 27.4445 23.8167 27.4445H8.18333C7.34389 27.4445 6.63 26.8722 6.44778 26.0522L3.59889 13.2222H8.05056L7.16778 15.5767C6.99589 16.0367 7.22856 16.5489 7.68772 16.7217C7.78889 16.7611 7.89444 16.7778 8 16.7778C8.35939 16.7778 8.69889 16.5582 8.83222 16.2011L9.95 13.2222H22.05L23.1672 16.2017C23.3 16.5556 23.6389 16.7778 24 16.7778C24.1042 16.7778 24.2092 16.7596 24.3125 16.7213C24.7717 16.5486 25.0042 16.0363 24.8324 15.5763L23.95 13.2222H28.4017L25.55 26.05Z" fill="#252525"/>
</svg>
