<svg width="32" height="28" viewBox="0 0 32 28" fill="none" xmlns="http://www.w3.org/2000/svg">
<path d="M5.5 10H2.5C1.12125 10 0 11.1187 0 12.5V25.5C0 26.8813 1.12125 28 2.5 28H5.5C6.88125 28 8 26.8813 8 25.5V12.5C8 11.1187 6.88125 10 5.5 10ZM6 25.5C6 25.775 5.77563 26 5.5 26H2.5C2.22438 26 2 25.775 2 25.5V12.5C2 12.225 2.22438 12 2.5 12H5.5C5.77563 12 6 12.225 6 12.5V25.5ZM32 11.8438C32 9.725 30.275 8 28.1562 8H21.75C22.4988 6.30875 22.9269 4.6575 22.9269 3.79187C22.9312 1.9275 21.475 0 19.0562 0C16.48 0 15.8875 1.81937 15.3612 3.42562C13.6313 8.69375 10 9.55 10 11C10 11.5688 10.4688 12 11 12C11.2563 12 11.5125 11.9 11.7063 11.7063C14.9988 8.39125 15.895 8.19938 17.2569 4.05C17.8312 2.30938 18.0125 2 19.0562 2C20.3475 2 20.9275 3.04812 20.9275 3.79187C20.9275 4.4225 20.3718 6.53875 19.2638 8.50937C19.1784 8.66138 19.1359 8.83006 19.1359 8.99875C19.1375 9.59375 19.625 10 20.1375 10H28.1562C29.175 10 30 10.825 30 11.8438C30 12.8019 29.245 13.6038 28.2825 13.6687C27.7536 13.7051 27.3506 14.1468 27.3506 14.6663C27.3506 15.4281 28.1044 15.47 28.1044 16.5806C28.1044 17.4644 27.4725 18.2244 26.6025 18.3862C26.2414 18.4539 25.7862 18.7873 25.7862 19.3706C25.7862 19.926 26.2091 20.0406 26.2091 20.8431C26.2091 22.7819 24.2397 22.2256 24.2397 23.5338C24.2397 23.7541 24.3137 23.8544 24.3137 24.1594C24.3125 25.175 23.4875 26 22.4688 26H18.9937C13.8681 26 12.225 21.9988 11 21.9988C10.4454 21.9988 10 22.4483 10 22.9963C9.94375 24.0187 14.0375 28 18.9937 28H22.4706C24.59 28 26.3144 26.2762 26.3144 24.1581C27.4737 23.4794 28.21 22.2206 28.21 20.8419C28.21 20.5421 28.1729 20.2423 28.1016 19.95C29.3085 19.2925 30.1054 18.0144 30.1054 16.5788C30.1054 16.1276 30.0253 15.6844 29.871 15.2675C31.1375 14.6375 32 13.3313 32 11.8438Z" fill="#252525"/>
</svg>
