<svg width="28" height="32" viewBox="0 0 28 32" fill="none" xmlns="http://www.w3.org/2000/svg">
<path d="M24 13.9438H22V7.94375C22 3.53188 18.4119 0 14 0C9.58813 0 6 3.58812 6 7.94375V13.8875L4 13.9438C1.79063 13.9438 0 15.7344 0 17.9438V27.9438C0 30.1531 1.79063 31.9438 4 31.9438H24C26.2094 31.9438 28 30.1531 28 27.9438V17.9438C28 15.7938 26.2062 13.9438 24 13.9438ZM8 8C8 4.69125 10.6913 2 14 2C17.3087 2 20 4.69125 20 8V14H8V8ZM26 28C26 29.1025 25.1025 30 24 30H4C2.8975 30 2 29.1025 2 28V18C2 16.8975 2.8975 16 4 16H24C25.1025 16 26 16.8975 26 18V28Z" fill="#252525"/>
</svg>
