<svg width="21" height="21" viewBox="0 0 21 21" fill="none" xmlns="http://www.w3.org/2000/svg">
<path d="M19.4125 17.5875C20.1938 18.3688 20.1938 19.6344 19.4125 20.4157C19.025 20.8063 18.5125 21 18 21C17.4875 21 16.9762 20.8047 16.5863 20.4141L10 13.8313L3.41438 20.4125C3.02375 20.8063 2.51187 21 2 21C1.48813 21 0.976875 20.8063 0.585938 20.4125C-0.195312 19.6313 -0.195312 18.3657 0.585938 17.5844L7.17344 10.9969L0.585938 4.41254C-0.195312 3.63129 -0.195312 2.36566 0.585938 1.58441C1.36719 0.803162 2.63281 0.803162 3.41406 1.58441L10 8.17504L16.5875 1.58754C17.3687 0.806287 18.6344 0.806287 19.4156 1.58754C20.1969 2.36879 20.1969 3.63441 19.4156 4.41566L12.8281 11.0032L19.4125 17.5875Z" fill="#252525"/>
</svg>
