<svg width="20" height="20" viewBox="0 0 20 20" fill="none" xmlns="http://www.w3.org/2000/svg">
<path fill-rule="evenodd" clip-rule="evenodd" d="M19.6 10.2274C19.6 9.51826 19.5364 8.83645 19.4182 8.1819H10V12.0501H15.3818C15.15 13.3001 14.4455 14.3592 13.3864 15.0683V17.5774H16.6182C18.5091 15.8364 19.6 13.2728 19.6 10.2274Z" fill="#4285F4"/>
<path fill-rule="evenodd" clip-rule="evenodd" d="M9.99996 20.0001C12.7 20.0001 14.9636 19.1046 16.6181 17.5773L13.3863 15.0682C12.4909 15.6682 11.3454 16.0228 9.99996 16.0228C7.39542 16.0228 5.19087 14.2637 4.40451 11.9001H1.0636V14.491C2.70905 17.7591 6.09087 20.0001 9.99996 20.0001Z" fill="#34A853"/>
<path fill-rule="evenodd" clip-rule="evenodd" d="M4.40455 11.9C4.20455 11.3 4.09091 10.6591 4.09091 9.99999C4.09091 9.3409 4.20455 8.69999 4.40455 8.09999V5.50908H1.06364C0.386364 6.85908 0 8.38635 0 9.99999C0 11.6136 0.386364 13.1409 1.06364 14.4909L4.40455 11.9Z" fill="#FBBC05"/>
<path fill-rule="evenodd" clip-rule="evenodd" d="M9.99996 3.97727C11.4681 3.97727 12.7863 4.48182 13.8227 5.47273L16.6909 2.60455C14.9591 0.990909 12.6954 0 9.99996 0C6.09087 0 2.70905 2.24091 1.0636 5.50909L4.40451 8.1C5.19087 5.73636 7.39542 3.97727 9.99996 3.97727Z" fill="#EA4335"/>
</svg>
