<svg width="32" height="32" viewBox="0 0 32 32" fill="none" xmlns="http://www.w3.org/2000/svg">
<path d="M28.4812 1.17188C27.6999 0.39075 26.6749 0 25.6562 0C24.6324 0 23.6087 0.390625 22.8274 1.17188L2.8193 21.1812C2.2838 21.7166 1.91118 22.3931 1.74555 23.1319L0.0199276 30.8069C-0.106322 31.3813 0.384865 32 0.996803 32C1.06224 32 1.12905 31.9935 1.19668 31.98C1.19668 31.98 6.4848 30.8581 8.87168 30.2969C9.59293 30.127 10.2386 29.7642 10.7623 29.2406L30.8373 9.16561C32.3992 7.60374 32.3936 5.07686 30.8317 3.51499L28.4812 1.17188ZM8.63743 27.1187C8.50524 27.2509 8.35599 27.3352 8.18068 27.3764C7.04505 27.644 5.21443 28.0458 3.63755 28.3877L4.67193 23.7889C4.71355 23.604 4.8063 23.4356 4.94043 23.3013L20.0592 8.1825L23.8173 11.9406L8.63743 27.1187Z" fill="#252525"/>
</svg>
