<svg width="32" height="28" viewBox="0 0 32 28" fill="none" xmlns="http://www.w3.org/2000/svg">
<path d="M31.7062 13.2937L22.7062 4.29375C22.3156 3.90312 21.6825 3.90312 21.2925 4.29375C20.9025 4.68437 20.9019 5.3175 21.2925 5.7075L28.5875 13H11C10.45 13 10 13.45 10 14C10 14.55 10.4473 15 11 15H28.5875L21.2938 22.2938C20.9031 22.6844 20.9031 23.3175 21.2938 23.7075C21.6844 24.0975 22.3175 24.0981 22.7075 23.7075L31.7075 14.7075C31.9 14.5125 32 14.2562 32 14C32 13.7438 31.9 13.4875 31.7062 13.2937ZM11 26H5C3.34563 26 2 24.6562 2 23V5C2 3.34563 3.34563 2 5 2H11C11.55 2 12 1.5525 12 1C12 0.4475 11.55 0 11 0H5C2.2425 0 0 2.2425 0 5V23C0 25.7562 2.2425 28 5 28H11C11.55 28 12 27.55 12 27C12 26.45 11.55 26 11 26Z" fill="#252525"/>
</svg>
