<svg width="28" height="28" viewBox="0 0 28 28" fill="none" xmlns="http://www.w3.org/2000/svg">
<path d="M5.5 7C5.5 6.16875 6.17188 5.5 7 5.5C7.83125 5.5 8.5 6.16875 8.5 7C8.5 7.83125 7.83125 8.5 7 8.5C6.17188 8.5 5.5 7.83125 5.5 7ZM1.875e-05 3C1.875e-05 1.34313 1.34313 0 3 0H12.3438C13.4063 0 14.4188 0.42125 15.1688 1.17188L26.1688 12.1688C27.7313 13.7313 27.7313 16.2688 26.1688 17.8313L17.8313 26.1688C16.2688 27.7313 13.7313 27.7313 12.1688 26.1688L1.17188 15.1688C0.421438 14.4188 0 13.4063 0 12.3438L1.875e-05 3ZM2.58563 13.7563L13.5875 24.7563C14.3688 25.5375 15.6313 25.5375 16.4125 24.7563L24.7563 16.4125C25.5375 15.6313 25.5375 14.3688 24.7563 13.5875L13.7563 2.58563C13.3813 2.21063 12.8188 2 12.3438 2H3C2.4475 2 2 2.4475 2 3V12.3438C2 12.8188 2.21063 13.3813 2.58563 13.7563Z" fill="#252525"/>
</svg>
