<svg width="32" height="32" viewBox="0 0 32 32" fill="none" xmlns="http://www.w3.org/2000/svg">
<path d="M10.6625 22.5938C10.7125 23.3687 11.3813 24 12.1562 24H19.8375C20.615 24 21.2856 23.37 21.3344 22.5938L21.9375 13H10.0625L10.6625 22.5938ZM22 9H19L18.6382 8.27625C18.5562 8.10625 18.3813 8 18.1938 8H13.8062C13.6187 8 13.4438 8.10625 13.3625 8.275L13 9H10C9.45 9 9 9.45 9 10C9 10.5523 9.44775 11 10 11H22C22.5524 11 23 10.5523 23 10C23 9.45 22.55 9 22 9ZM16 0C7.1625 0 0 7.1625 0 16C0 24.8375 7.1625 32 16 32C24.8375 32 32 24.8375 32 16C32 7.1625 24.8375 0 16 0ZM16 29C8.83125 29 3 23.1681 3 16C3 8.83187 8.83125 3 16 3C23.1687 3 29 8.83187 29 16C29 23.1681 23.1687 29 16 29Z" fill="#252525"/>
</svg>
