<svg width="32" height="28" viewBox="0 0 32 28" fill="none" xmlns="http://www.w3.org/2000/svg">
<path d="M12 26.5C12 27.3313 11.3313 28 10.5 28H6C2.68625 28 0 25.3138 0 22V6C0 2.68625 2.68625 0 6 0H10.5C11.3313 0 12 0.67125 12 1.5C12 2.32812 11.3313 3 10.5 3H6C4.35 3 3 4.35 3 6V22C3 23.65 4.35 25 6 25H10.5C11.3313 25 12 25.6687 12 26.5ZM31.5938 12.975L23.65 4.475C23.0816 3.8695 22.1325 3.8425 21.5306 4.41056C20.9271 4.97694 20.8981 5.92619 21.4662 6.52994L27.025 12.5H11.4438C10.6688 12.5 10 13.175 10 14C10 14.825 10.6719 15.5 11.4438 15.5H26.9688L21.3487 21.4725C20.7804 22.076 20.8097 23.025 21.4132 23.5919C21.7625 23.8625 22.1313 24 22.4438 24C22.8422 24 23.2406 23.8418 23.5356 23.5274L31.4794 15.0274C32.1375 14.45 32.1375 13.55 31.5938 12.975Z" fill="#252525"/>
</svg>
