<svg width="32" height="32" viewBox="0 0 32 32" fill="none" xmlns="http://www.w3.org/2000/svg">
<path d="M22 16C22 19.3125 19.3125 22 16 22C12.6313 22 10 19.3125 10 16C10 12.6313 12.6313 10 16 10C19.3125 10 22 12.6313 22 16ZM16 12C13.7937 12 12 13.7937 12 16C12 18.2062 13.7937 20 16 20C18.2062 20 20 18.2062 20 16C20 13.7937 18.2062 12 16 12ZM16 0C16.55 0 17 0.44775 17 1V4.04125C22.8312 4.52188 27.475 9.16875 27.9562 15H31C31.55 15 32 15.45 32 16C32 16.55 31.55 17 31 17H27.9562C27.475 22.8312 22.8312 27.475 17 27.9562V31C17 31.55 16.55 32 16 32C15.45 32 15 31.55 15 31V27.9562C9.16875 27.475 4.52188 22.8312 4.04125 17H1C0.44775 17 0 16.55 0 16C0 15.45 0.44775 15 1 15H4.04125C4.52188 9.16875 9.16875 4.52188 15 4.04125V1C15 0.44775 15.45 0 16 0ZM6 16C6 21.525 10.475 26 16 26C21.525 26 26 21.525 26 16C26 10.475 21.525 6 16 6C10.475 6 6 10.475 6 16Z" fill="#252525"/>
</svg>
