<svg width="20" height="32" viewBox="0 0 20 32" fill="none" xmlns="http://www.w3.org/2000/svg">
<path d="M12.9939 5.99937C14.6502 5.99937 15.9377 4.65625 15.9377 3C15.9377 1.34375 14.6502 0 12.9939 0C11.3377 0 9.94394 1.34313 9.94394 2.99938C9.94394 4.65563 11.3377 5.99937 12.9939 5.99937ZM4.60081 24.1063C4.39769 24.6141 4.10094 25.075 3.71019 25.4494L0.585813 28.5819C0.19525 28.9722 0 29.4856 0 29.9994C0.00016875 31.5687 1.43331 32 1.99956 32C2.51119 32 3.02269 31.8047 3.41331 31.4141L7.12331 27.6966C7.50612 27.3216 7.80269 26.8609 8.01394 26.3534L8.85769 24.2447C5.39769 20.4803 6.43644 21.6359 5.88956 20.8859L4.60081 24.1063ZM20.0002 17.1187C20.0002 16.3831 19.6007 15.6719 18.9021 15.3225L17.4496 14.58L16.8377 12.7437C16.4907 11.6937 14.7727 8.00062 10.4064 8.00062C8.18269 8.00062 6.94144 8.63938 4.62019 9.57938C3.27269 10.1188 2.17144 11.15 1.51519 12.4625L1.10144 13.3125C0.958313 13.6 0.890188 13.9062 0.890188 14.2063C0.890188 15.2844 1.75144 16.2044 2.86706 16.2044C3.59206 16.2044 4.29081 15.8009 4.64019 15.1025L5.06194 14.2513C5.28069 13.8138 5.63994 13.47 6.09319 13.29L7.76269 12.6125L6.81894 16.4062C6.73769 16.725 6.70019 17.0562 6.70019 17.375C6.70019 18.3619 7.06806 19.3306 7.75019 20.0775L11.4914 24.1719C11.9446 24.6641 12.2646 25.2581 12.4208 25.8981L13.5689 30.485C13.7945 31.3881 14.6121 31.9975 15.5089 31.9975C16.7158 31.9975 17.5096 30.9894 17.5096 29.9944C17.5096 29.8362 17.4905 29.6758 17.4506 29.5161L16.06 23.953C15.8959 23.3042 15.5757 22.7024 15.1306 22.218L12.2875 19.108L13.3575 14.8186L13.7011 15.8499C14.037 16.858 14.748 17.6861 15.6848 18.163L17.1373 18.8974C17.4213 19.0405 17.723 19.1083 18.0205 19.1083C19.0502 19.1125 20.0002 18.2812 20.0002 17.1187Z" fill="#252525"/>
</svg>
