<svg width="32" height="32" viewBox="0 0 32 32" fill="none" xmlns="http://www.w3.org/2000/svg">
<path d="M31.219 20.75C31.219 20.3962 31.0245 20.0544 30.7063 19.8706L27.7932 18.1887C27.9253 17.475 28.0003 16.6938 28.0003 16C28.0003 15.3062 27.9226 14.5219 27.7915 13.8112L30.7046 12.1294C31.0229 11.9456 31.2173 11.6037 31.2173 11.25C31.2173 10.3687 28.5936 5.06 27.2261 5.06C27.0491 5.06 26.8706 5.10541 26.7107 5.19769L23.7907 6.88394C22.6815 5.93625 21.4003 5.19375 20.0003 4.6975V1.33C20.0003 0.859813 19.6776 0.4375 19.2171 0.34125C18.1753 0.123562 17.1065 0 16.0003 0C14.894 0 13.8221 0.123562 12.7828 0.341312C12.3253 0.43775 12.0003 0.86 12.0003 1.33V4.6975C10.6003 5.19375 9.31902 5.93625 8.21277 6.88125L5.28964 5.1975C5.13027 5.105 4.95152 5.05937 4.77464 5.05937C3.54214 5.05937 0.783391 10.1813 0.783391 11.2494C0.783391 11.6031 0.977891 11.945 1.29608 12.1287L4.2092 13.8106C4.07777 14.525 4.00027 15.25 4.00027 16C4.00027 16.75 4.07789 17.4781 4.20902 18.1887L1.29589 19.8706C0.977641 20.0544 0.783203 20.3963 0.783203 20.75C0.783203 21.6313 3.40695 26.94 4.77445 26.94C4.95145 26.94 5.12995 26.8946 5.28983 26.8023L8.20983 25.1161C9.31902 26.0625 10.6003 26.8062 12.0003 27.3V30.6675C12.0003 31.1377 12.3229 31.56 12.7834 31.6562C13.8253 31.875 14.894 32 15.944 32C16.994 32 18.1221 31.8764 19.1615 31.6587C19.6753 31.5063 20.0003 31.1375 20.0003 30.6688V27.3013C21.4015 26.8051 22.6834 26.0625 23.7909 25.1156L26.7109 26.8019C26.8707 26.8942 27.0494 26.9396 27.2263 26.9396C28.4565 26.9375 31.219 21.8188 31.219 20.75ZM16.0003 21C13.2434 21 11.0003 18.7569 11.0003 16C11.0003 13.2431 13.244 11 16.0003 11C18.7565 11 21.0003 13.2431 21.0003 16C21.0003 18.7569 18.7565 21 16.0003 21Z" fill="#252525"/>
</svg>
