<svg width="32" height="32" viewBox="0 0 32 32" fill="none" xmlns="http://www.w3.org/2000/svg">
<path d="M27.5016 16.0049C26.7839 16.0049 26.0839 15.8872 25.4132 15.6813V23.5348H6.58257V15.6813C5.91194 15.8872 5.20601 16.0049 4.49126 16.0049C4.17065 16.0049 3.85004 15.9813 3.47649 15.9401C3.28353 15.9107 3.05999 15.8166 2.8235 15.7519L2.82409 28.241C2.82409 29.8005 4.08829 31.0647 5.59486 31.0647H26.308C27.8675 31.0647 29.0788 29.8005 29.0788 28.241L29.0808 15.7519C28.8369 15.8156 28.605 15.9113 28.3514 15.9449C28.1428 15.9813 27.8251 16.0049 27.5016 16.0049ZM31.2724 7.05133L27.9004 1.71686C27.6001 1.23742 27.0645 0.944458 26.4927 0.944458H5.50603C4.93441 0.944458 4.3989 1.23736 4.09829 1.71686L0.72513 7.05133C-1.01557 9.80622 0.524529 13.6341 3.77827 14.0753C4.01241 14.1047 4.25301 14.1224 4.49185 14.1224C6.0296 14.1224 7.39145 13.4529 8.32681 12.4182C9.25922 13.4517 10.6299 14.1224 12.1594 14.1224C13.6972 14.1224 15.059 13.4529 15.9944 12.4182C16.9303 13.4517 18.2951 14.1224 19.8305 14.1224C21.37 14.1224 22.7301 13.4529 23.6655 12.4182C24.6014 13.4517 25.9662 14.1224 27.4957 14.1224C27.7393 14.1224 27.973 14.1063 28.2069 14.0757C31.4724 13.64 33.0196 9.81033 31.2724 7.05133Z" fill="#252525"/>
</svg>
