<svg width="32" height="28" viewBox="0 0 32 28" fill="none" xmlns="http://www.w3.org/2000/svg">
<path d="M15.973 0C7.11955 0 0.000506047 5.81812 0.000506047 13C0.000506047 16.0994 1.33916 18.8813 3.56754 21.1688C2.78488 24.3181 0.167055 27.125 0.135749 27.1563C-0.00118449 27.2998 -0.0383763 27.5127 0.0418303 27.7002C0.123978 27.8877 0.300107 28 0.499653 28C4.65149 28 7.7627 26.0125 9.30297 24.7869C11.3517 25.5563 13.6239 26 16.0276 26C24.881 26 32 20.1819 32 13.0562C32 5.93062 24.8264 0 15.973 0ZM14.4703 6.55625C14.4703 5.73125 15.1465 5.05625 15.973 5.05625C16.7994 5.05625 17.4757 5.72813 17.4757 6.55625V13.5563C17.4757 14.3844 16.8026 15.0563 15.973 15.0563C15.1433 15.0563 14.4703 14.3875 14.4703 13.5563V6.55625ZM15.973 21.0563C14.8666 21.0563 13.9694 20.1606 13.9694 19.0563C13.9694 17.9519 14.8666 17.0563 15.973 17.0563C17.0793 17.0563 17.9766 17.9519 17.9766 19.0563C17.9766 20.1625 17.0812 21.0563 15.973 21.0563Z" fill="#252525"/>
</svg>
