<svg width="28" height="32" viewBox="0 0 28 32" fill="none" xmlns="http://www.w3.org/2000/svg">
<path d="M3.32562 29.1875C3.42325 30.74 4.76438 32 6.31938 32H21.6819C23.2369 32 24.5775 30.74 24.6756 29.1875L26 8.00001H2L3.32562 29.1875ZM27 2.00001H20L19.2763 0.552506C19.1069 0.213756 18.7606 -0.000244141 18.3819 -0.000244141H9.61875C9.23994 -0.000244141 8.89375 0.213756 8.72437 0.552506L8 2.00001H1C0.44775 2.00001 0 2.44763 0 3.00001V5.00001C0 5.55226 0.44775 6.00001 1 6.00001H27C27.5524 6.00001 28 5.55226 28 5.00001V3.00001C28 2.44751 27.55 2.00001 27 2.00001Z" fill="#252525"/>
</svg>
