<svg width="208" height="24" viewBox="0 0 208 24" fill="none" xmlns="http://www.w3.org/2000/svg">
<path d="M60.369 12.0126C60.369 16.2556 57.9028 19.0241 54.0947 19.0241C53.351 19.0445 52.6124 18.895 51.9351 18.5872C51.2578 18.2793 50.6596 17.8211 50.1859 17.2474V23.771H45.0519V5.02759H50.1859V6.61871C50.6362 6.05066 51.212 5.59463 51.8681 5.28637C52.5241 4.97811 53.2427 4.826 53.9674 4.84196C57.8285 4.85257 60.369 7.69536 60.369 12.0126ZM55.1873 11.8853C55.1873 10.0555 54.1955 8.81445 52.6733 8.81445C51.1512 8.81445 50.1859 10.0767 50.1859 11.8853C50.1859 13.6939 51.1989 14.9562 52.6733 14.9562C54.1478 14.9562 55.1873 13.7151 55.1873 11.8853V11.8853Z" fill="#14569E"/>
<path d="M93.5911 7.75898C93.7024 7.27634 94.1214 6.69824 94.6094 6.69824H95.9724C95.9724 8.08781 96.2058 8.08781 96.5028 8.08781H99.632C99.9184 8.08781 100.162 8.08781 100.162 6.69824H101.52C102.013 6.69824 102.427 7.28695 102.544 7.75898L103.265 11.3708H104.326L103.536 7.42485C103.323 6.47018 102.475 5.46777 101.504 5.46777H94.6094C93.6282 5.46777 92.7902 6.47018 92.578 7.42485L91.756 11.3602H92.8167L93.5911 7.75898Z" fill="#E42034"/>
<path d="M12.996 6.47584L11.2935 9.70051C9.41601 8.73523 7.86732 8.25259 6.77475 8.25259C6.13831 8.25259 5.71401 8.48065 5.71401 8.91556C5.71401 10.4642 12.9271 9.78007 12.9271 14.5004C12.9271 17.3485 10.4502 19.0934 6.85961 19.0934C4.54416 19.1315 2.27523 18.4414 0.373154 17.1204L1.96427 13.8905C3.43353 14.9143 5.16115 15.5043 6.94978 15.593C7.63926 15.593 8.09538 15.3914 8.09538 14.9565C8.09538 13.3654 1.03612 14.145 1.03612 9.42472C1.03612 6.52888 3.44401 4.79987 6.92856 4.79987C9.06312 4.81611 11.1558 5.39415 12.996 6.47584V6.47584Z" fill="#14569E"/>
<path d="M28.3872 10.0771V18.8441H23.2585V11.5568C23.2585 10.1831 22.4683 9.31862 21.2749 9.31862C19.88 9.34514 19.0155 10.4377 19.0155 12.0129V18.8441H13.8868V5.05442H19.0155V7.17592C19.4748 6.43125 20.1244 5.82248 20.8972 5.4123C21.67 5.00212 22.5382 4.80535 23.4123 4.84228C26.3612 4.82636 28.3872 6.89482 28.3872 10.0771Z" fill="#14569E"/>
<path d="M43.4764 9.88062V18.8439H38.4485V17.3218C37.6105 18.4408 36.2369 19.072 34.4124 19.072C31.4635 19.072 29.7345 17.3218 29.7345 14.7282C29.7345 12.1347 31.5908 10.5913 35.07 10.5383H38.4485V10.4906C38.4485 9.34495 37.637 8.66077 36.0618 8.66077C34.6214 8.72042 33.206 9.05716 31.8931 9.65256L30.6043 6.24757C32.7188 5.35129 34.9855 4.86878 37.2817 4.82617C41.164 4.82617 43.4764 6.67717 43.4764 9.88062ZM38.4485 14.3198V13.0523H36.1096C35.0965 13.0523 34.5609 13.4872 34.5609 14.3517C34.5609 15.2162 35.1231 15.72 36.1096 15.72C36.593 15.7376 37.0712 15.6147 37.4863 15.3662C37.9014 15.1177 38.2356 14.7543 38.4485 14.3198V14.3198Z" fill="#14569E"/>
<path d="M76.5717 12.013C76.5717 16.256 74.1108 19.0245 70.3027 19.0245C69.5582 19.0449 68.8189 18.8955 68.1407 18.5876C67.4625 18.2798 66.8633 17.8216 66.3886 17.2478V23.7713H61.2599V5.02797H66.3886V6.61909C66.8405 6.05154 67.4174 5.59596 68.0742 5.28779C68.731 4.97962 69.4501 4.82718 70.1754 4.84234C74.0366 4.85295 76.5717 7.69574 76.5717 12.013ZM71.3953 11.8857C71.3953 10.0559 70.4035 8.81483 68.876 8.81483C67.3486 8.81483 66.3886 10.0559 66.3886 11.8857C66.3886 13.7155 67.4069 14.9565 68.876 14.9565C70.3452 14.9565 71.3953 13.7155 71.3953 11.8857Z" fill="#14569E"/>
<path d="M85.1588 20.0109C84.0663 22.7317 82.1888 23.9993 79.4202 23.9993C77.8073 24.0211 76.2366 23.4832 74.9757 22.4771L77.0972 19.0456C77.5877 19.5433 78.2548 19.8273 78.9535 19.8358C79.2655 19.8588 79.577 19.7857 79.8463 19.6264C80.1155 19.4672 80.3296 19.2293 80.4597 18.9448L80.7143 18.4622L75.0022 5.02783H80.2582L83.2813 13.5138L85.8483 5.05435H90.9505L85.1588 20.0109Z" fill="#14569E"/>
<path d="M119.51 6.47578L117.808 9.70045C115.93 8.73517 114.382 8.25253 113.289 8.25253C112.653 8.25253 112.228 8.48059 112.228 8.9155C112.228 10.4642 119.441 9.78001 119.441 14.5003C119.441 17.3484 116.975 19.0721 113.369 19.0721C111.05 19.1191 108.776 18.4363 106.866 17.1204L108.457 13.8904C109.933 14.918 111.668 15.5082 113.464 15.5929C114.148 15.5929 114.604 15.3913 114.604 14.9564C114.604 13.3653 107.545 14.145 107.545 9.42466C107.545 6.52882 109.958 4.7998 113.438 4.7998C115.574 4.81537 117.669 5.39342 119.51 6.47578V6.47578Z" fill="#E42034"/>
<path d="M135.03 10.0771V18.8441H129.901V11.5568C129.901 10.1832 129.137 9.31865 127.923 9.31865C126.523 9.34517 125.658 10.4377 125.658 12.0129V18.8441H120.529V0H125.658V7.16003C126.117 6.41537 126.767 5.80659 127.54 5.39641C128.313 4.98623 129.181 4.78947 130.055 4.82639C133.025 4.82639 135.03 6.89485 135.03 10.0771Z" fill="#E42034"/>
<path d="M150.781 11.9388C150.781 16.1818 147.758 19.0246 143.112 19.0246C138.466 19.0246 135.416 16.203 135.416 11.9388C135.416 7.67461 138.46 4.85303 143.112 4.85303C147.763 4.85303 150.781 7.64279 150.781 11.9388ZM140.593 11.9865C140.593 13.8428 141.584 15.0627 143.112 15.0627C144.639 15.0627 145.599 13.8428 145.599 11.9865C145.599 10.1302 144.607 8.91568 143.112 8.91568C141.616 8.91568 140.593 10.1568 140.593 11.9865Z" fill="#E42034"/>
<path d="M166.985 12.0126C166.985 16.2556 164.524 19.0241 160.711 19.0241C159.967 19.0445 159.228 18.895 158.551 18.5872C157.874 18.2793 157.275 17.8211 156.802 17.2474V23.771H151.673V5.02759H156.802V6.61871C157.253 6.05055 157.83 5.59453 158.487 5.2863C159.144 4.97807 159.863 4.82599 160.589 4.84196C164.444 4.85257 166.985 7.69537 166.985 12.0126ZM161.803 11.8853C161.803 10.0555 160.817 8.81445 159.289 8.81445C157.762 8.81445 156.802 10.0555 156.802 11.8853C156.802 13.7151 157.82 14.9562 159.289 14.9562C160.758 14.9562 161.803 13.7151 161.803 11.8853Z" fill="#E42034"/>
<path d="M183.193 12.013C183.193 16.256 180.727 19.0245 176.919 19.0245C176.174 19.0449 175.435 18.8955 174.757 18.5876C174.079 18.2798 173.48 17.8216 173.005 17.2478V23.7713H167.876V5.02797H173.005V6.61909C173.457 6.05154 174.034 5.59596 174.69 5.28779C175.347 4.97962 176.066 4.82718 176.792 4.84234C180.653 4.85295 183.193 7.69574 183.193 12.013ZM178.011 11.8857C178.011 10.0559 177.02 8.81483 175.498 8.81483C173.975 8.81483 173.005 10.0559 173.005 11.8857C173.005 13.7155 174.023 14.9565 175.498 14.9565C176.972 14.9565 178.011 13.7155 178.011 11.8857Z" fill="#E42034"/>
<path d="M197.364 13.1799H188.072C188.215 13.7829 188.563 14.3175 189.056 14.6928C189.55 15.068 190.158 15.2606 190.777 15.2377C191.924 15.2003 193.015 14.7283 193.827 13.9171L196.479 16.5318C195.031 18.123 192.946 19.0246 190.332 19.0246C185.707 19.0246 182.906 16.2295 182.906 11.9865C182.906 7.74356 185.823 4.85303 190.194 4.85303C195.02 4.85303 197.672 8.10421 197.364 13.1799ZM192.31 10.6659C192.336 9.29755 191.472 8.33227 190.231 8.33227C188.99 8.33227 188.221 9.27103 187.966 10.6659H192.31Z" fill="#E42034"/>
<path d="M203.283 7.21308C203.733 6.46847 204.372 5.85575 205.135 5.43672C205.897 5.01769 206.757 4.80718 207.627 4.8264V9.44595C204.975 9.11712 203.283 10.2362 203.283 12.241V18.8442H198.154V5.05446H203.283V7.21308Z" fill="#E42034"/>
<path d="M95.119 18.001C94.6606 17.9999 94.2122 18.1348 93.8305 18.3886C93.4488 18.6424 93.1509 19.0037 92.9745 19.4269C92.7981 19.85 92.7511 20.3159 92.8395 20.7657C92.9279 21.2155 93.1477 21.629 93.4711 21.9538C93.7945 22.2787 94.207 22.5004 94.6564 22.5909C95.1058 22.6813 95.5719 22.6365 95.9958 22.462C96.4197 22.2876 96.7824 21.9913 97.0379 21.6108C97.2935 21.2302 97.4304 20.7824 97.4315 20.324V20.324C97.4322 20.0196 97.3729 19.7181 97.2571 19.4367C97.1412 19.1552 96.9711 18.8993 96.7564 18.6836C96.5416 18.4679 96.2865 18.2966 96.0056 18.1794C95.7247 18.0623 95.4234 18.0017 95.119 18.001V18.001ZM95.904 20.3187C95.904 20.474 95.8579 20.6257 95.7717 20.7548C95.6854 20.8839 95.5629 20.9845 95.4194 21.0439C95.276 21.1033 95.1182 21.1189 94.9659 21.0886C94.8136 21.0583 94.6738 20.9835 94.564 20.8738C94.4542 20.764 94.3794 20.6241 94.3492 20.4718C94.3189 20.3196 94.3344 20.1618 94.3938 20.0183C94.4532 19.8749 94.5538 19.7523 94.6829 19.666C94.812 19.5798 94.9638 19.5338 95.119 19.5338C95.2221 19.5338 95.3242 19.5541 95.4194 19.5935C95.5147 19.633 95.6012 19.6908 95.6741 19.7637C95.747 19.8366 95.8048 19.9231 95.8442 20.0183C95.8837 20.1136 95.904 20.2156 95.904 20.3187V20.3187Z" fill="#14569E"/>
<path d="M100.996 18.001C100.537 18.001 100.089 18.1369 99.7079 18.3916C99.3268 18.6463 99.0297 19.0082 98.8543 19.4317C98.6788 19.8553 98.6329 20.3213 98.7224 20.7709C98.8118 21.2205 99.0325 21.6334 99.3567 21.9576C99.6808 22.2817 100.094 22.5025 100.543 22.5919C100.993 22.6813 101.459 22.6354 101.883 22.46C102.306 22.2846 102.668 21.9875 102.923 21.6064C103.177 21.2252 103.313 20.7771 103.313 20.3187V20.3187C103.313 19.704 103.069 19.1145 102.634 18.6798C102.2 18.2452 101.61 18.001 100.996 18.001V18.001ZM101.781 20.3187C101.781 20.474 101.734 20.6257 101.648 20.7548C101.562 20.8839 101.439 20.9845 101.296 21.0439C101.153 21.1033 100.995 21.1189 100.842 21.0886C100.69 21.0583 100.55 20.9835 100.441 20.8738C100.331 20.764 100.256 20.6241 100.226 20.4718C100.195 20.3196 100.211 20.1618 100.27 20.0183C100.33 19.8749 100.43 19.7523 100.559 19.666C100.689 19.5798 100.84 19.5338 100.996 19.5338V19.5338C101.204 19.5338 101.403 19.6165 101.551 19.7637C101.698 19.9109 101.781 20.1105 101.781 20.3187V20.3187Z" fill="#14569E"/>
<path d="M105.387 11.371H90.7537C90.6172 11.3432 90.4765 11.3425 90.3397 11.369C90.2029 11.3955 90.0727 11.4487 89.9565 11.5255C89.8403 11.6023 89.7403 11.7013 89.6623 11.8168C89.5843 11.9322 89.5299 12.0619 89.502 12.1984C89.4741 12.3349 89.4734 12.4756 89.4999 12.6124C89.5264 12.7492 89.5796 12.8794 89.6565 12.9956C89.7333 13.1118 89.8323 13.2118 89.9477 13.2898C90.0632 13.3678 90.1929 13.4222 90.3294 13.4501C90.4696 13.4766 90.6135 13.4766 90.7537 13.4501H90.8757L91.8144 19.0137C91.8847 19.3742 92.0943 19.6925 92.3978 19.8994C92.4865 19.2221 92.823 18.6016 93.3423 18.1578C93.8615 17.7139 94.5268 17.4782 95.2097 17.496C95.8925 17.5137 96.5446 17.7839 97.0401 18.2542C97.5355 18.7245 97.8392 19.3616 97.8925 20.0426H98.2213C98.2746 19.3616 98.5783 18.7245 99.0738 18.2542C99.5692 17.7839 100.221 17.5137 100.904 17.496C101.587 17.4782 102.252 17.7139 102.772 18.1578C103.291 18.6016 103.627 19.2221 103.716 19.8994C104.029 19.6967 104.248 19.3781 104.326 19.0137L105.259 13.4501H105.387C105.523 13.478 105.664 13.4787 105.801 13.4522C105.937 13.4257 106.068 13.3725 106.184 13.2956C106.3 13.2188 106.4 13.1198 106.478 13.0044C106.556 12.8889 106.61 12.7592 106.638 12.6227C106.666 12.4862 106.667 12.3455 106.64 12.2088C106.614 12.072 106.561 11.9417 106.484 11.8255C106.407 11.7093 106.308 11.6093 106.193 11.5314C106.077 11.4534 105.947 11.3989 105.811 11.371C105.671 11.3445 105.527 11.3445 105.387 11.371V11.371ZM93.3154 14.06H93.3472C93.3877 14.0547 93.4287 14.0547 93.4692 14.06H93.3154ZM96.4605 14.06H99.5897H102.698C102.738 14.0547 102.779 14.0547 102.82 14.06H96.4605Z" fill="#E42034"/>
<path d="M93.2892 14.0601H93.443C93.4025 14.0548 93.3615 14.0548 93.321 14.0601H93.2892Z" fill="#E42034"/>
<path d="M102.671 14.0601H102.793C102.752 14.0548 102.711 14.0548 102.671 14.0601V14.0601Z" fill="#E42034"/>
</svg>
