<svg width="32" height="26" viewBox="0 0 32 26" fill="none" xmlns="http://www.w3.org/2000/svg">
<path d="M17.6 2.60001H6.4C5.96 2.60001 5.6 2.95801 5.6 3.40001V5.00001H12C12.44 5.00001 12.8 5.36001 12.8 5.80001C12.8 6.24001 12.44 6.60001 12 6.60001H0.8C0.3582 6.60001 0 6.24001 0 5.80001C0 5.36001 0.3582 5.00001 0.8 5.00001H3.2V3.40001C3.2 1.63251 4.6325 0.200012 6.4 0.200012H17.6C19.365 0.200012 20.8 1.63251 20.8 3.40001V5.00001H22.935C23.68 5.00001 24.39 5.29501 24.915 5.82001L29.58 10.485C30.105 11.01 30.4 11.72 30.4 12.465V18.6H30.8C31.465 18.6 32 19.135 32 19.8C32 20.465 31.465 21 30.8 21H28.8C28.8 23.65 26.65 25.8 24 25.8C21.305 25.8 19.2 23.65 19.2 21H12.8C12.8 23.65 10.65 25.8 8 25.8C5.305 25.8 3.2 23.65 3.2 21V14.6H5.6V16.84C6.305 16.435 7.125 16.2 8 16.2C9.775 16.2 11.33 17.165 12.16 18.6H17.6C18.04 18.6 18.4 18.24 18.4 17.8V3.40001C18.4 2.95801 18.04 2.60001 17.6 2.60001ZM23.22 7.51501C23.145 7.44001 23.045 7.40001 22.935 7.40001H20.8V12.2H27.9L27.89 12.19L27.885 12.18L23.22 7.51501ZM8 18.6C6.675 18.6 5.6 19.675 5.6 21C5.6 22.325 6.675 23.4 8 23.4C9.325 23.4 10.4 22.325 10.4 21C10.4 19.675 9.325 18.6 8 18.6ZM24 23.4C25.325 23.4 26.4 22.325 26.4 21C26.4 19.675 25.325 18.6 24 18.6C22.675 18.6 21.6 19.675 21.6 21C21.6 22.325 22.675 23.4 24 23.4ZM13.6 8.20001C14.04 8.20001 14.4 8.56001 14.4 9.00001C14.4 9.44001 14.04 9.80001 13.6 9.80001H2.4C1.958 9.80001 1.6 9.44001 1.6 9.00001C1.6 8.56001 1.958 8.20001 2.4 8.20001H13.6ZM12 11.4C12.44 11.4 12.8 11.76 12.8 12.2C12.8 12.64 12.44 13 12 13H0.8C0.3582 13 0 12.64 0 12.2C0 11.76 0.3582 11.4 0.8 11.4H12Z" fill="#252525"/>
</svg>
