<svg width="32" height="32" viewBox="0 0 32 32" fill="none" xmlns="http://www.w3.org/2000/svg">
<path d="M31.2687 27.7283L23.7874 20.2478C25.4887 17.7225 26.3281 14.5672 25.8787 11.205C25.1124 5.48627 20.4249 0.83239 14.6999 0.107654C6.18805 -0.969293 -0.969447 6.18744 0.107678 14.6984C0.832678 20.4253 5.48768 25.116 11.2077 25.8785C14.5702 26.3277 17.7264 25.4888 20.2514 23.7874L27.7327 31.2679C28.7089 32.244 30.2921 32.244 31.2683 31.2679C32.2437 30.2905 32.2437 28.7032 31.2687 27.7283ZM4.94368 12.9986C4.94368 8.58781 8.53243 4.99944 12.9437 4.99944C17.3549 4.99944 20.9437 8.58781 20.9437 12.9986C20.9437 17.4094 17.3549 20.9977 12.9437 20.9977C8.53243 20.9977 4.94368 17.4106 4.94368 12.9986Z" fill="#252525"/>
</svg>
