<svg width="32" height="32" viewBox="0 0 32 32" fill="none" xmlns="http://www.w3.org/2000/svg">
<path d="M1.5 9.49998H22.0063L21.998 14.5C21.998 15.0967 22.3521 15.6369 22.8986 15.875C23.4451 16.1131 24.083 16.0049 24.5193 15.5996L31.5193 9.0996C32.158 8.50585 32.158 7.49398 31.5193 6.90023L24.5193 0.400227C24.0831 -0.0050236 23.4455 -0.113586 22.8986 0.124726C22.3518 0.363039 21.998 0.903477 21.998 1.49973L22.0063 6.49998H1.5C0.671875 6.49998 0 7.16873 0 7.94373C0 8.71873 0.671875 9.49998 1.5 9.49998ZM30.5 22.5H9.99375L10 17.4437C10 16.847 9.64587 16.3069 9.09937 16.0687C8.55287 15.8306 7.91875 15.9937 7.48125 16.4L0.48125 22.9C-0.1575 23.4937 -0.1575 24.5056 0.48125 25.0994L7.48125 31.5994C7.91744 32.0046 8.555 32.1131 9.10188 31.8747C9.64875 31.6364 10 31.0937 10 30.5L9.99176 25.5H30.5C31.3281 25.5 32 24.8281 32 24C32 23.1719 31.3313 22.5 30.5 22.5Z" fill="#252525"/>
</svg>
