<svg width="32" height="26" viewBox="0 0 32 26" fill="none" xmlns="http://www.w3.org/2000/svg">
<path d="M1.5e-05 9.4482C1.5e-05 9.12439 0.0803 8.80564 0.2335 8.51725L4.118 1.3135C4.5385 0.533069 5.345 0.0476074 6.225 0.0476074H25.775C26.655 0.0476074 27.46 0.533069 27.88 1.3135L31.765 8.51725C31.92 8.80564 32 9.12439 32 9.4482C32 10.5158 31.145 11.3809 30.09 11.3809H28.8V24.7381C28.8 25.411 28.265 25.9524 27.6 25.9524C26.935 25.9524 26.4 25.411 26.4 24.7381V11.3809H19.2V23.9286C19.2 25.0467 18.305 25.9524 17.2 25.9524H5.155C4.0955 25.9524 3.155 25.0467 3.155 23.9286V11.3809H1.9125C0.856 11.3809 0 10.5158 0 9.4482H1.5e-05ZM5.555 11.3809V16.2381H16.8V11.3809H5.555ZM6.225 2.47618L2.734 8.95237H29.265L25.775 2.47618H6.225ZM16.8 23.5238V18.6667H5.555V23.5238H16.8Z" fill="#252525"/>
</svg>
