<svg width="32" height="32" viewBox="0 0 32 32" fill="none" xmlns="http://www.w3.org/2000/svg">
<path d="M15.944 32C12.4409 32 11.1946 31.2919 11.1946 29.7537V27.2812C10.2465 26.8828 9.36023 26.3731 8.54711 25.7556L6.40336 26.9919C6.11455 27.1608 5.77986 27.2427 5.44336 27.2427C3.14898 27.2427 0.677734 21.4383 0.677734 20.4552C0.677734 19.7771 1.04061 19.1214 1.65961 18.7633L3.79523 17.5308C3.78273 17.0063 3.74961 16.5 3.74961 15.9438C3.74961 15.3875 3.78282 14.9356 3.85117 14.4144L1.71398 13.2375C1.09586 12.8813 0.733359 12.225 0.733359 11.5437C0.733359 10.7575 3.10711 4.75 5.49586 4.75C5.83442 4.75 6.17211 4.83362 6.46586 5.00694L8.60023 6.2425C9.41273 5.62562 10.3002 5.11562 11.194 4.71688V2.24437C11.194 0.270937 13.4815 0 16.0002 0C18.4821 0 20.694 0.255188 20.694 2.24437V4.71688C21.6421 5.11531 22.5284 5.625 23.3415 6.2425L25.4852 5.00625C25.774 4.83731 26.109 4.75544 26.4459 4.75544C28.7252 4.75544 31.2109 10.5398 31.2109 11.5429C31.2109 12.2211 30.848 12.8767 30.229 13.2348L28.0934 14.4673C28.1617 14.9888 28.1949 15.4948 28.1949 15.9967C28.1949 16.4986 28.1617 17.0048 28.0934 17.5261L30.2302 18.7604C30.8487 19.1169 31.2115 19.7723 31.2115 20.4511C31.2115 21.2379 28.8377 27.2448 26.4484 27.2448C26.1096 27.2448 25.7715 27.1612 25.479 26.9879L23.3421 25.7554C22.5284 26.3726 21.6427 26.8822 20.6946 27.281V29.7535C20.7502 31.2875 19.5065 32 15.944 32ZM8.80648 23.325C11.0515 25.2513 12.0777 25.4725 13.2471 25.8875V29.7531C14.129 29.8996 15.0484 29.9861 15.9821 29.9861C16.9165 29.9861 17.8652 29.8996 18.8065 29.7004L18.7469 25.8879C19.7513 25.5315 20.9457 25.2491 23.1875 23.3254L26.5382 25.261C27.7119 23.8822 28.6488 22.2629 29.25 20.4754L25.9413 18.5654C26.1128 17.6285 26.245 16.976 26.245 16.1235C26.245 15.4391 26.1597 14.6254 25.9413 13.4323L29.2825 11.5041C28.6682 9.76975 27.725 8.131 26.4638 6.70913L23.1869 8.67225C20.9419 6.746 19.9157 6.52475 18.7463 6.10975V2.24437C17.8644 2.09787 16.945 2.01144 16.0113 2.01144C15.0769 2.01144 14.1282 2.09788 13.1869 2.29713L13.2465 6.10962C12.244 6.46875 11.0502 6.69375 8.80648 8.675L5.45836 6.7375C4.27148 8.13188 3.32836 9.77063 2.72773 11.5794L6.05523 13.4331C5.88398 14.3687 5.75148 15.025 5.75148 15.8188C5.75148 16.5031 5.83673 17.3169 6.05517 18.51L2.71392 20.4381C3.32823 22.1725 4.27142 23.8113 5.53267 25.2331L8.80648 23.325ZM16.0002 21.9438C12.6915 21.9438 10.0002 19.2525 10.0002 15.9438C10.0002 12.635 12.694 9.94375 16.0002 9.94375C19.3065 9.94375 22.0002 12.635 22.0002 15.9438C22.0002 19.2525 19.3065 21.9438 16.0002 21.9438ZM16.0002 11.9438C13.794 11.9438 12.0002 13.7388 12.0002 15.9438C12.0002 18.1488 13.794 19.9438 16.0002 19.9438C18.2065 19.9438 20.0002 18.1488 20.0002 15.9438C20.0002 13.7388 18.2065 11.9438 16.0002 11.9438Z" fill="#252525"/>
</svg>
