<svg width="32" height="29" viewBox="0 0 32 29" fill="none" xmlns="http://www.w3.org/2000/svg">
<path d="M12.8889 12.4624C12.1528 12.4624 11.5556 13.2597 11.5556 14.1927C11.5556 15.1257 12.15 16.0231 12.8889 16.0231C13.6278 16.0231 14.2222 15.2275 14.2222 14.2428C14.2222 13.258 13.6278 12.4624 12.8889 12.4624ZM14.4667 0.0802663L5.57778 2.3057C4.33889 2.60319 3.55556 3.62188 3.55556 4.89761V26.7052H0.888889C0.398 26.7052 0 27.1058 0 27.5954C0 28.085 0.398 28.4855 0.888889 28.4855H16C16.9817 28.4855 17.7778 27.6883 17.7778 26.7052V2.73449C17.7778 2.17034 17.6327 1.60285 17.3043 1.14386C16.6333 0.206226 15.5167 -0.182446 14.4667 0.0802663ZM16 26.7052H5.33333V4.89816C5.33333 4.48796 5.61111 4.13317 6.00667 4.03414L14.8956 1.80871C15.1611 1.73694 15.4389 1.80147 15.6556 1.97005C15.8778 2.1403 16 2.39622 16 2.67273V26.7052ZM31.1111 26.7052H28.4444V8.01155C28.4444 5.55355 26.4544 3.61075 24.05 3.61075H20.4444C19.9536 3.61075 19.5556 4.00921 19.5556 4.45085C19.5556 4.89249 19.9536 5.34103 20.4444 5.34103H24C25.4728 5.34103 26.6667 6.53664 26.6667 8.01155V26.7052C26.6667 27.6883 27.4628 28.4855 28.4444 28.4855H31.1111C31.602 28.4855 32 28.087 32 27.6454C32 27.1058 31.6 26.7052 31.1111 26.7052Z" fill="#252525"/>
</svg>
