<svg width="32" height="32" viewBox="0 0 32 32" fill="none" xmlns="http://www.w3.org/2000/svg">
<path d="M1 8.99999H22L21.9984 14.5C21.9984 15.0967 22.3521 15.6369 22.899 15.875C23.4459 16.1132 24.0827 16.0049 24.5196 15.5996L31.5196 9.09961C31.8375 8.79999 32 8.39999 32 7.94374C32 7.48749 31.8401 7.14186 31.5204 6.84499L24.5204 0.34499C24.0839 -0.0602604 23.4466 -0.168823 22.8997 0.0694896C22.3529 0.307802 21.9991 0.84824 21.9991 1.44449L22 6.99999H1C0.44725 6.99999 0 7.44999 0 7.94374C0 8.43749 0.44725 8.99999 1 8.99999ZM24 2.64624L29.7656 7.99999L24 13.3562V2.64624ZM31 22.9437H10L10.0016 17.5C10.0016 16.9033 9.6479 16.3631 9.10102 16.125C8.55415 15.8869 7.91875 15.9937 7.48125 16.4L0.48125 22.9C0.159938 23.2 0 23.6 0 23.9437C0 24.2875 0.159938 24.7469 0.479625 25.0437L7.47963 31.5437C7.91613 31.949 8.55338 32.0574 9.10025 31.8191C9.65 31.6375 10 31.0937 10 30.5V24.9437H31C31.5527 24.9437 32 24.4965 32 24C32 23.5035 31.55 22.9437 31 22.9437ZM8 29.3562L2.23438 24L8 18.6437V29.3562Z" fill="#252525"/>
</svg>
