<svg width="32" height="28" viewBox="0 0 32 28" fill="none" xmlns="http://www.w3.org/2000/svg">
<path d="M10 24H6C4.89563 24 4 23.1044 4 22V6C4 4.89563 4.89563 4 6 4H10C11.1044 4 12 3.10437 12 2C12 0.895625 11.1062 0 10 0H6C2.68625 0 0 2.68625 0 6V22C0 25.3137 2.68625 28 6 28H10C11.1044 28 12 27.1044 12 26C12 24.8956 11.1062 24 10 24ZM31.4125 12.5875L23.4125 4.5875C22.6306 3.80562 21.365 3.80688 20.5844 4.5875C19.8031 5.36875 19.8031 6.63437 20.5844 7.41562L25.175 12H12C10.8938 12 10 12.8938 10 14C10 15.1062 10.8944 16 12 16H25.175L20.5888 20.5863C19.8075 21.3675 19.8075 22.6331 20.5888 23.4144C21.37 24.1956 22.6356 24.1956 23.4169 23.4144L31.4169 15.4144C32.1938 14.6313 32.1937 13.3687 31.4125 12.5875Z" fill="#252525"/>
</svg>
