<svg width="32" height="26" viewBox="0 0 32 26" fill="none" xmlns="http://www.w3.org/2000/svg">
<path d="M3.2 1.40001C3.2 0.737512 3.7375 0.200012 4.4 0.200012H8C8.575 0.200012 9.07 0.609512 9.18 1.17551L9.255 1.80001H30.29C31.305 1.80001 32.115 2.81251 31.83 3.83301L29.13 13.435C28.935 14.125 28.305 14.6 27.59 14.6H11.735L12.195 17H27.6C28.265 17 28.8 17.535 28.8 18.2C28.8 18.865 28.265 19.4 27.6 19.4H11.155C10.625 19.4 10.13 18.99 10.02 18.425L7.005 2.60001H4.4C3.7375 2.60001 3.2 2.06251 3.2 1.40001ZM9.755 4.20001L11.28 12.2H26.98L29.23 4.20001H9.755ZM14.4 23.4C14.4 24.725 13.325 25.8 12 25.8C10.675 25.8 9.6 24.725 9.6 23.4C9.6 22.075 10.675 21 12 21C13.325 21 14.4 22.075 14.4 23.4ZM24 23.4C24 22.075 25.075 21 26.4 21C27.725 21 28.8 22.075 28.8 23.4C28.8 24.725 27.725 25.8 26.4 25.8C25.075 25.8 24 24.725 24 23.4ZM5.2 5.00001C5.865 5.00001 6.4 5.53501 6.4 6.20001C6.4 6.86501 5.865 7.40001 5.2 7.40001H1.2C0.5375 7.40001 0 6.86501 0 6.20001C0 5.53501 0.5375 5.00001 1.2 5.00001H5.2ZM6 9.00001C6.665 9.00001 7.2 9.53501 7.2 10.2C7.2 10.865 6.665 11.4 6 11.4H1.2C0.5375 11.4 0 10.865 0 10.2C0 9.53501 0.5375 9.00001 1.2 9.00001H6ZM6.8 13C7.465 13 8 13.535 8 14.2C8 14.865 7.465 15.4 6.8 15.4H1.2C0.5375 15.4 0 14.865 0 14.2C0 13.535 0.5375 13 1.2 13H6.8Z" fill="#252525"/>
</svg>
