<svg width="32" height="29" viewBox="0 0 32 29" fill="none" xmlns="http://www.w3.org/2000/svg">
<path d="M16.0001 0.943726C7.16258 0.943726 0.0563256 6.76435 0.0563256 13.9437C0.0563256 16.92 1.3007 19.6468 3.3632 21.8375C2.43383 24.3062 0.496326 26.3925 0.465076 26.4156C0.0511381 26.8531 -0.058237 27.4937 0.176138 28.0406C0.363576 28.6437 0.898826 29 1.50008 29C5.3432 29 8.31883 27.3906 10.1938 26.1093C11.9982 26.6718 13.9538 27 16.0001 27C24.8376 27 31.9438 21.1793 31.9438 14.0562C31.9438 6.9331 24.8376 0.943726 16.0001 0.943726ZM16.0001 24C14.3282 24 12.6801 23.7422 11.1026 23.2425L9.6807 22.7972L8.46258 23.6562C7.57195 24.2887 6.3457 24.9925 4.86945 25.4687C5.33026 24.7112 5.76758 23.8593 6.11133 22.9531L6.77508 21.2031L5.48633 19.8356C4.3632 18.6312 3.00383 16.6437 3.00383 14C3.00383 8.48435 8.83133 3.99998 15.9476 3.99998C23.1163 3.99998 28.8913 8.48435 28.8913 14C28.8913 19.5156 23.1751 24 16.0001 24ZM16.0001 18C14.8957 18 14.0001 18.8956 14.0001 20C14.0001 21.1043 14.8957 22 16.0001 22C17.1045 22 18.0001 21.1043 18.0001 20C18.0001 18.8956 17.1063 18 16.0001 18ZM16.0001 16C16.8282 16 17.5001 15.3281 17.5001 14.5V7.49997C17.5001 6.67185 16.8282 5.99997 16.0001 5.99997C15.172 5.99997 14.5001 6.67497 14.5001 7.49997V14.5C14.5001 15.3312 15.1751 16 16.0001 16Z" fill="#252525"/>
</svg>
