<svg width="20" height="20" viewBox="0 0 20 20" fill="none" xmlns="http://www.w3.org/2000/svg">
<path d="M5.27734 8.27734L5.64629 7.61328C5.94902 7.08125 6.39824 6.76875 6.87598 6.76875C7.3584 6.76875 7.80801 7.08125 8.10566 7.61328L8.47934 8.27734C8.64016 8.56543 9.08949 8.43359 9.06098 8.10156C8.93359 6.45703 7.80078 5.3125 6.83984 5.3125C5.90781 5.3125 4.78086 6.45508 4.65313 8.10078C4.66406 8.43359 5.11328 8.56641 5.27734 8.27734ZM11.5273 8.27734L11.8975 7.61328C12.1955 7.08125 12.6448 6.76875 13.1272 6.76875C13.6049 6.76875 14.058 7.08125 14.3608 7.61328L14.7297 8.27734C14.8905 8.56543 15.3399 8.43359 15.3114 8.10156C15.1836 6.45703 14.0508 5.3125 13.125 5.3125C12.193 5.3125 11.0676 6.45508 10.9352 8.10078C10.9102 8.4375 11.332 8.56641 11.5273 8.27734ZM15.2734 10.625H4.69141C4.31773 10.625 4.02461 10.9521 4.07188 11.3281C4.41797 14.1016 6.81641 16.25 9.65234 16.25H10.2789C13.1453 16.25 15.5133 14.1016 15.8609 11.3281C15.9414 10.9531 15.6484 10.625 15.2734 10.625ZM10.2773 15H9.6875C7.72461 15 6.03594 13.7012 5.49219 11.875H14.5078C13.9648 13.7031 12.2734 15 10.2773 15ZM10 0C4.47656 0 0 4.47656 0 10C0 15.5234 4.47656 20 10 20C15.5234 20 20 15.5234 20 10C20 4.47656 15.5234 0 10 0ZM10 18.75C5.17578 18.75 1.25 14.8242 1.25 10C1.25 5.17578 5.17578 1.25 10 1.25C14.8242 1.25 18.75 5.17578 18.75 10C18.75 14.8242 14.8242 18.75 10 18.75Z" fill="black"/>
</svg>
