<svg width="32" height="32" viewBox="0 0 32 32" fill="none" xmlns="http://www.w3.org/2000/svg">
<path d="M30.8259 3.51625L28.4815 1.17188C27.7009 0.39075 26.6759 0 25.6572 0C24.6334 0 23.6097 0.390625 22.8284 1.17188L2.82028 21.1812C2.28478 21.7166 1.91216 22.3931 1.74653 23.1319L0.0209061 30.8069C-0.105344 31.3813 0.385781 32 0.997781 32C1.06322 32 1.13003 31.9935 1.19766 31.98C1.19766 31.98 6.48578 30.8581 8.87266 30.2969C9.59391 30.127 10.2395 29.7642 10.7633 29.2406L30.8383 9.16561C32.3947 7.60625 32.3884 5.07875 30.8259 3.51625ZM9.34466 27.825C9.08097 28.0887 8.76641 28.2649 8.40966 28.3489C6.86716 28.7121 4.05716 29.3208 2.31841 29.6939L3.69591 23.5683C3.77916 23.1984 3.96484 22.8614 4.23303 22.5933L19.708 7.11831L24.8805 12.2908L9.34466 27.825ZM29.4197 7.75L26.2928 10.8763L21.1203 5.70375L24.2409 2.58313C24.6197 2.20813 25.1197 2 25.6572 2C26.1947 2 26.6934 2.20813 27.0715 2.58594L29.4159 4.93031C30.1947 5.71063 30.1947 6.975 29.4197 7.75Z" fill="#252525"/>
</svg>
