<svg width="29" height="32" viewBox="0 0 29 32" fill="none" xmlns="http://www.w3.org/2000/svg">
<path d="M27.3086 5H22.6729L20.5538 1.45312C20.0103 0.554688 19.0381 0 17.9848 0H11.7024C10.6504 0 9.67686 0.554688 9.13152 1.45312L7.01434 5H2.37861C1.55281 5 0.882812 5.67125 0.882812 6.5C0.882812 7.33125 1.55281 8 2.37861 8H2.87721L4.19912 29.1875C4.29261 30.7687 5.60268 32 7.18386 32H22.5033C24.0851 32 25.3952 30.7656 25.4887 29.1875L26.81 8H27.3086C28.1375 8 28.8044 7.33125 28.8044 6.5C28.8044 5.67125 28.1375 5 27.3086 5ZM11.7024 3H17.9848L19.1845 5H10.5058L11.7024 3ZM22.5033 29H7.18386L5.87691 8H23.814L22.5033 29ZM9.79528 24.0063C10.3794 24.5919 11.326 24.5924 11.9106 24.0063L14.8417 21.0669L17.7729 24.0063C18.357 24.5919 19.3036 24.5924 19.8882 24.0063C20.4725 23.4203 20.4725 22.4713 19.8882 21.885L16.9564 19L19.8876 16.0606C20.4718 15.4747 20.4718 14.5256 19.8876 13.9394C19.3033 13.3531 18.3569 13.3534 17.7722 13.9394L14.8411 16.8787L11.8582 13.9375C11.2739 13.3516 10.3275 13.3516 9.74292 13.9375C9.15832 14.5234 9.15863 15.4725 9.74292 16.0588L12.7308 19L9.79964 21.9394C9.21566 22.525 9.21566 23.475 9.79528 24.0063Z" fill="#252525"/>
</svg>
