<svg width="32" height="30" viewBox="0 0 32 30" fill="none" xmlns="http://www.w3.org/2000/svg">
<path d="M10.9222 6.21277C10.2278 5.96722 9.86667 5.20555 10.1111 4.5111C10.8778 2.33777 12.95 0.777771 15.3944 0.777771C17.7833 0.777771 19.9056 2.33777 20.6722 4.5111C20.9167 5.20555 20.5056 5.96722 19.8611 6.21277C19.1167 6.45555 18.4056 6.09444 18.1611 5.39999C17.7556 4.25888 16.6667 3.44444 15.3944 3.44444C14.1167 3.44444 13.0278 4.25888 12.6278 5.39999C12.3778 6.09444 11.6167 6.45555 10.9222 6.21277ZM22.2222 15.4444C22.2222 14.7055 22.8167 14.1111 23.5556 14.1111C24.2944 14.1111 24.8889 14.7055 24.8889 15.4444C24.8889 16.1833 24.2944 16.7778 23.5556 16.7778C22.8167 16.7778 22.2222 16.1833 22.2222 15.4444ZM12.4444 7.88888H20.9111C21.8889 6.79999 23.3111 6.1111 24.8889 6.1111H25.85C26.7167 6.1111 27.35 6.92777 27.1389 7.76666L26.6667 9.61666C27.8389 10.5833 28.8667 11.8055 29.4833 13.2222H30.2222C31.2056 13.2222 32 14.0167 32 15V20.3333C32 21.3167 31.2056 22.1111 30.2222 22.1111H28.4444C27.7278 23.0667 26.8167 23.8778 25.7778 24.4778V26.5555C25.7778 28.0278 24.5833 29.2222 23.1111 29.2222H20.4444C18.9722 29.2222 17.7778 28.0278 17.7778 26.5555V25.6667H15.1111V26.5555C15.1111 28.0278 13.9167 29.2222 12.4444 29.2222H9.77778C8.30556 29.2222 7.11111 28.0278 7.11111 26.5555V23.8889C5.05444 22.3444 3.69 19.9278 3.565 17.1889C1.555 16.9389 0 15.1722 0 13.1444C0 11.5944 0.873333 10.1833 2.25556 9.49444L2.515 9.3611C3.17333 9.03333 3.97444 9.29999 4.30389 9.9611C4.63278 10.6167 4.36611 11.4167 3.70722 11.75L3.44778 11.8778C2.96889 12.1167 2.66667 12.6055 2.66667 13.1444C2.66667 13.8389 3.17389 14.4222 3.84056 14.5333C4.83444 10.7111 8.31111 7.88888 12.4444 7.88888ZM12.4444 10.5555C9.00556 10.5555 6.22222 13.3389 6.22222 16.7778C6.22222 18.8111 7.19444 20.6167 8.71111 21.7555C9.38333 22.2611 9.77778 23.05 9.77778 23.8889V26.5555H12.4444V25.6667C12.4444 24.1944 13.6389 23 15.1111 23H17.7778C19.25 23 20.4444 24.1944 20.4444 25.6667V26.5555H23.1111V24.4778C23.1111 23.5278 23.6167 22.6444 24.3944 22.1667C25.1722 21.75 25.8111 21.1833 26.3111 20.5111C26.8167 19.8389 27.6056 19.4444 28.4444 19.4444H29.3333V15.8833C28.3333 15.8278 27.3944 15.2167 27.0389 14.2889C26.6056 13.3 25.9222 12.3944 25.0667 11.8C24.2056 11.1555 23.8222 10.0611 24.0778 9.01666L24.1111 8.89444C23.6389 9.03333 23.2222 9.30555 22.9 9.66666C22.3944 10.2333 21.6722 10.5555 20.9111 10.5555H12.4444Z" fill="#252525"/>
</svg>
