<svg width="32" height="30" viewBox="0 0 32 30" fill="none" xmlns="http://www.w3.org/2000/svg">
<path d="M31.9889 14.9722C31.9889 15.9722 31.1556 16.7555 30.2111 16.7555H28.4333L28.4722 25.65C28.4722 25.8055 28.4611 25.95 28.4444 26.1V27C28.4444 28.2278 27.45 29.2222 26.2222 29.2222H25.3333C25.2722 29.2222 25.2111 29.1722 25.15 29.2167C25.0722 29.1722 24.9944 29.2222 24.9167 29.2222H21.7778C20.55 29.2222 19.5556 28.2278 19.5556 27V22.1111C19.5556 21.1278 18.7611 20.3333 17.7778 20.3333H14.2222C13.2389 20.3333 12.4444 21.1278 12.4444 22.1111V27C12.4444 28.2278 11.45 29.2222 10.2222 29.2222H7.11667C7.03333 29.2222 6.95 29.2167 6.86667 29.2111C6.8 29.2167 6.73333 29.2222 6.66667 29.2222H5.77778C4.55056 29.2222 3.55556 28.2278 3.55556 27V20.7778C3.55556 20.7278 3.55722 20.6722 3.56056 20.6222V16.7555H1.78056C0.778889 16.7555 0 15.9722 0 14.9722C0 14.4722 0.166889 14.0278 0.556111 13.6389L14.8 1.2231C15.1889 0.833438 15.6333 0.777771 16.0222 0.777771C16.4111 0.777771 16.8556 0.889104 17.1944 1.16744L31.3778 13.6389C31.8222 14.0278 32.05 14.4722 31.9889 14.9722Z" fill="#252525"/>
</svg>
