<svg width="32" height="30" viewBox="0 0 32 30" fill="none" xmlns="http://www.w3.org/2000/svg">
<path d="M12.4444 22.5556C12.4444 23.2945 11.85 23.8889 11.1111 23.8889C10.3722 23.8889 9.77778 23.2945 9.77778 22.5556V18.1111C9.77778 17.3722 10.3722 16.7778 11.1111 16.7778C11.85 16.7778 12.4444 17.3722 12.4444 18.1111V22.5556ZM16 16.7778C16.7389 16.7778 17.3333 17.3722 17.3333 18.1111V22.5556C17.3333 23.2945 16.7389 23.8889 16 23.8889C15.2611 23.8889 14.6667 23.2945 14.6667 22.5556V18.1111C14.6667 17.3722 15.2611 16.7778 16 16.7778ZM22.2222 22.5556C22.2222 23.2945 21.6278 23.8889 20.8889 23.8889C20.15 23.8889 19.5556 23.2945 19.5556 22.5556V18.1111C19.5556 17.3722 20.15 16.7778 20.8889 16.7778C21.6278 16.7778 22.2222 17.3722 22.2222 18.1111V22.5556ZM13.5056 0.928233C14.1556 1.26796 14.4111 2.07279 14.0722 2.72612L9.53889 11.4445H22.4611L17.9278 2.72612C17.5889 2.07279 17.8444 1.26796 18.4944 0.928233C19.15 0.588511 19.9556 0.842733 20.2944 1.49612L25.4667 11.4445H30.6667C31.4056 11.4445 32 12.0389 32 12.7778C32 13.5167 31.4056 14.1111 30.6667 14.1111H29.5556L26.45 26.5278C26.0056 28.1111 24.6333 29.2222 23 29.2222H8.95C7.36667 29.2222 5.94444 28.1111 5.54889 26.5278L2.44444 14.1111H1.33333C0.597222 14.1111 0 13.5167 0 12.7778C0 12.0389 0.597222 11.4445 1.33333 11.4445H6.53333L11.7056 1.49612C12.0444 0.842733 12.85 0.588511 13.5056 0.928233ZM8.13333 25.8833C8.23333 26.2778 8.58889 26.5556 8.95 26.5556H23C23.4111 26.5556 23.7667 26.2778 23.8667 25.8833L26.8056 14.1111H5.19333L8.13333 25.8833Z" fill="#252525"/>
</svg>
