<svg width="28" height="24" viewBox="0 0 28 24" fill="none" xmlns="http://www.w3.org/2000/svg">
<path d="M27.9438 12C27.9438 12.8281 27.2713 13.5006 26.4431 13.5006H5.24375L13.5375 21.4131C14.1391 21.9853 14.1606 22.9387 13.5883 23.5343C13.016 24.134 12.067 24.1555 11.467 23.5851L0.467032 13.0851C0.168438 12.8062 0.000488281 12.4125 0.000488281 12C0.000488281 11.5875 0.168438 11.2 0.465313 10.9125L11.4653 0.412478C12.0625 -0.155647 13.0125 -0.134397 13.5875 0.465602C14.1598 1.05935 14.1383 2.01248 13.5367 2.58685L5.24297 10.4994H26.4992C27.325 10.5 27.9438 11.175 27.9438 12Z" fill="#252525"/>
</svg>
