<svg width="32" height="32" viewBox="0 0 32 32" fill="none" xmlns="http://www.w3.org/2000/svg">
<path d="M16 0C7.1625 0 0 7.1625 0 16C0 24.8375 7.1625 32 16 32C24.8375 32 32 24.8375 32 16C32 7.1625 24.8375 0 16 0ZM22 17.5H17.5V22C17.5 22.825 16.825 23.5 16.0562 23.5C15.175 23.5 14.5 22.825 14.5 22V17.5H10C9.175 17.5 8.5 16.825 8.5 16C8.5 15.175 9.175 14.5 10 14.5H14.5V10C14.5 9.175 15.175 8.5 16 8.5C16.825 8.5 17.5 9.175 17.5 10V14.5H22C22.825 14.5 23.5 15.175 23.5 16C23.5 16.825 22.825 17.5 22 17.5Z" fill="#252525"/>
</svg>
