<svg width="32" height="30" viewBox="0 0 32 30" fill="none" xmlns="http://www.w3.org/2000/svg">
<path d="M23.9999 14.5555C23.271 14.5555 22.6666 15.16 22.6666 15.8889C22.6666 16.6178 23.271 17.2222 23.9999 17.2222C24.7288 17.2222 25.3333 16.6178 25.3333 15.8889C25.3333 15.16 24.7277 14.5555 23.9999 14.5555ZM30.2222 13.2222L29.4705 13.2219C28.8527 11.8191 27.8749 10.618 26.6666 9.70136L26.6666 6.11081L25.7277 6.11166C23.1372 6.11166 21.1094 7.62555 20.7622 7.83944H12.3944C10.0955 7.83944 7.80382 8.80444 6.18327 10.3878C4.94049 11.6033 4.04438 13.1794 3.67604 14.95L3.10993 15C2.28327 15 1.63771 14.2494 1.80438 13.4022C1.8941 12.9164 2.27715 12.4911 2.86715 12.3689C3.27049 12.2851 3.55382 11.9196 3.55382 11.5078C3.55382 10.9444 3.0296 10.5139 2.47993 10.6394C1.21827 10.9278 0.195488 11.9389 0.0261994 13.2555C-0.216856 15.1517 1.25564 16.7767 3.11009 16.7767L3.5542 16.7768C3.5542 19.6796 4.9642 22.228 7.10975 23.8435V26.5518C7.06104 28.0222 8.31104 29.2222 9.72771 29.2222H12.3944C13.861 29.2222 15.011 28.0222 15.011 26.6055V25.6667H18.5666V26.5055C18.6166 28.0222 19.8666 29.2222 21.2833 29.2222H23.9505C25.4172 29.2222 26.6172 28.0222 26.6172 26.6055L26.6172 23.8978C27.2633 23.3978 27.8645 22.8139 28.3572 22.1611L30.1728 22.1612C31.1506 22.1612 31.9506 21.3612 31.9506 20.3835V15C31.9999 14.0222 31.1999 13.2222 30.2222 13.2222ZM30.1722 20.3333H27.4638C26.5194 21.5767 26.5194 21.6733 24.8388 22.9583V26.5555C24.8388 27.0465 24.4409 27.4444 23.9499 27.4444H21.2833C20.7923 27.4444 20.3944 27.0465 20.3944 26.5555V23.8889H13.2833V26.5555C13.2833 27.0465 12.8853 27.4444 12.3944 27.4444H9.72771C9.23677 27.4444 8.83882 27.0465 8.83882 26.5555V22.9583C5.28327 20.2389 5.33271 17.7667 5.33271 16.7778C5.33271 12.8539 8.51993 9.66666 12.3938 9.66666H21.3827C22.3205 8.91666 23.2233 8.19444 24.841 7.95833V10.5833C27.0944 12.2555 27.2833 12.7667 28.311 15H30.221V20.3333H30.1722ZM9.66104 6.98888C9.71104 6.99444 9.75549 6.99999 9.80549 6.99999C10.2469 6.99999 10.6366 6.69055 10.7077 6.2561C11.061 4.10499 12.961 2.54277 15.2277 2.54277C17.1827 2.54277 18.921 3.73999 19.5555 5.52055C19.7199 5.98083 20.236 6.22388 20.7172 6.0696C21.196 5.91099 21.4499 5.4096 21.2855 4.94794C20.3944 2.45444 17.961 0.777771 15.2277 0.777771C12.0555 0.777771 9.39438 2.96555 8.89993 5.97888C8.82215 6.4611 9.16104 6.9111 9.66104 6.98888Z" fill="#252525"/>
</svg>
