<svg width="32" height="22" viewBox="0 0 32 22" fill="none" xmlns="http://www.w3.org/2000/svg">
<path d="M16 4.77776C13.0611 4.77776 10.6667 7.5722 10.6667 11C10.6667 14.4278 13.0589 17.2222 16 17.2222C18.9411 17.2222 21.3333 14.4305 21.3333 11C21.3333 7.56942 18.9389 4.77776 16 4.77776ZM16 15.4444C14.0389 15.4444 12.4444 13.4505 12.4444 11C12.4444 8.54942 14.0389 6.55553 16 6.55553C17.9611 6.55553 19.5556 8.54942 19.5556 11C19.5556 13.4505 17.9611 15.4444 16 15.4444ZM28.4444 0.333313H3.55556C1.59167 0.333313 0 1.92498 0 3.88887V18.1111C0 20.075 1.59167 21.6666 3.55556 21.6666H28.4444C30.4083 21.6666 32 20.075 32 18.1111V3.88887C32 1.92498 30.4056 0.333313 28.4444 0.333313ZM1.77778 3.88887C1.77778 2.90887 2.57556 2.11109 3.55556 2.11109H5.33333C5.33333 4.0722 3.73889 5.66665 1.77778 5.66665V3.88887ZM3.55556 19.8889C2.57556 19.8889 1.77778 19.0911 1.77778 18.1111V16.3333C3.73889 16.3333 5.33333 17.9278 5.33333 19.8889H3.55556ZM30.2222 18.1111C30.2222 19.0911 29.4244 19.8889 28.4444 19.8889H26.6667C26.6667 17.9278 28.2611 16.3333 30.2222 16.3333V18.1111ZM30.2222 14.5555C27.2811 14.5555 24.8889 16.9478 24.8889 19.8889H7.11111C7.11111 16.9478 4.71889 14.5555 1.77778 14.5555V7.44442C4.71889 7.44442 7.11111 5.0522 7.11111 2.11109H24.8889C24.8889 5.0522 27.2811 7.44442 30.2222 7.44442V14.5555ZM30.2222 5.66665C28.2611 5.66665 26.6667 4.0722 26.6667 2.11109H28.4444C29.4244 2.11109 30.2222 2.90887 30.2222 3.88887V5.66665Z" fill="#252525"/>
</svg>
