<svg width="32" height="26" viewBox="0 0 32 26" fill="none" xmlns="http://www.w3.org/2000/svg">
<path d="M11.2 13C14.735 13 17.6 10.1345 17.6 6.60001C17.6 3.06551 14.735 0.200012 11.2 0.200012C7.665 0.200012 4.8 3.06551 4.8 6.60001C4.8 10.1345 7.665 13 11.2 13ZM11.2 2.60001C13.4055 2.60001 15.2 4.39451 15.2 6.60001C15.2 8.80551 13.4055 10.6 11.2 10.6C8.995 10.6 7.2 8.80501 7.2 6.60001C7.2 4.39451 8.995 2.60001 11.2 2.60001ZM13.735 15.4H8.665C3.8805 15.4 0 19.28 0 24.065C0 25.025 0.776 25.8 1.733 25.8H20.668C21.625 25.8 22.4 25.025 22.4 24.065C22.4 19.28 18.52 15.4 13.735 15.4ZM2.4355 23.4C2.769 20.255 5.435 17.8 8.665 17.8H13.735C16.9655 17.8 19.59 20.2565 19.965 23.4H2.4355ZM30.8 10.2H28.4V7.80001C28.4 7.14001 27.865 6.60001 27.2 6.60001C26.535 6.60001 26 7.13751 26 7.80001V10.2H23.6C22.94 10.2 22.4 10.74 22.4 11.4C22.4 12.06 22.9375 12.6 23.6 12.6H26V15C26 15.665 26.54 16.2 27.2 16.2C27.86 16.2 28.4 15.6625 28.4 15V12.6H30.8C31.465 12.6 32 12.065 32 11.4C32 10.735 31.465 10.2 30.8 10.2Z" fill="#252525"/>
</svg>
