<svg width="32" height="26" viewBox="0 0 32 26" fill="none" xmlns="http://www.w3.org/2000/svg">
<path d="M13.95 10.2833C13.95 9.67223 14.45 9.17223 15.0611 9.17223H15.95C16.6111 9.17223 17.1111 9.67223 17.1111 10.2833V14.0611H17.3333C17.9444 14.0611 18.4444 14.5611 18.4444 15.1722C18.4444 15.8333 17.9444 16.2833 17.3333 16.2833H14.6167C14.0056 16.2833 13.5056 15.8333 13.5056 15.1722C13.5056 14.5611 14.0056 14.0611 14.6167 14.0611H14.8389V11.4222C14.3833 11.3167 13.95 10.8722 13.95 10.2833ZM2.70333 3.1739C7.13333 4.38334 11.5667 3.25501 16 2.12501C20.8333 0.893343 25.6667 -0.338879 30.5 1.46556C31.4389 1.81612 32 2.75668 32 3.7589V20.9722C32 22.3 30.5778 23.1778 29.2944 22.8278C24.8667 21.6167 20.4333 22.7444 16 23.8722C11.1167 25.1056 6.28333 26.3389 1.49833 24.5333C0.558889 24.1833 0 23.2444 0 22.2389V5.02779C0 3.69945 1.42278 2.8239 2.70333 3.1739ZM7.06111 21.8889C7.06111 19.9278 5.51944 18.3333 3.50556 18.3333V21.8889H7.06111ZM3.50556 11.1722C5.51944 11.1722 7.06111 9.62778 7.06111 7.61667H3.50556V11.1722ZM28.4444 18.3333V14.7278C26.4833 14.7278 24.8889 16.3722 24.8889 18.3333H28.4444ZM28.4444 4.06112H24.8889C24.8889 6.07223 26.4833 7.61667 28.4444 7.61667V4.06112ZM15.95 6.72778C13.0056 6.72778 10.6167 9.56112 10.6167 12.95C10.6167 16.4389 13.0056 19.2222 15.95 19.2222C18.9444 19.2222 21.3333 16.4389 21.3333 12.95C21.3333 9.56112 18.9444 6.72778 15.95 6.72778Z" fill="#252525"/>
</svg>
