<svg width="32" height="30" viewBox="0 0 32 30" fill="none" xmlns="http://www.w3.org/2000/svg">
<path d="M31.5278 13.5389C32.0889 14.0167 32.1611 14.8555 31.6834 15.4167C31.2056 15.9778 30.3667 16.05 29.8056 15.5722L28.4445 14.4167V24.7778C28.4445 27.2333 26.4556 29.2222 24 29.2222H8.00002C5.54558 29.2222 3.55558 27.2333 3.55558 24.7778V14.4167L2.19613 15.5722C1.63446 16.05 0.793354 15.9778 0.316687 15.4167C-0.159757 14.8555 -0.0907574 14.0167 0.470743 13.5389L15.1389 1.09444C15.6334 0.672215 16.3667 0.672215 16.8611 1.09444L31.5278 13.5389ZM8.00002 26.5555H10.6667V18.1111C10.6667 16.8833 11.6611 15.8889 12.8889 15.8889H19.1111C20.3389 15.8889 21.3334 16.8833 21.3334 18.1111V26.5555H24C24.9834 26.5555 25.7778 25.7611 25.7778 24.7778V12.1555L16 3.85944L6.22224 12.1555V24.7778C6.22224 25.7611 7.01669 26.5555 8.00002 26.5555ZM13.3334 26.5555H18.6667V18.5555H13.3334V26.5555Z" fill="#252525"/>
</svg>
