<svg width="32" height="23" viewBox="0 0 32 23" fill="none" xmlns="http://www.w3.org/2000/svg">
<path d="M10.6667 11.3556C10.6667 8.36113 13.0056 6.02224 16 6.02224C18.9444 6.02224 21.3333 8.36113 21.3333 11.3556C21.3333 14.3 18.9444 16.6889 16 16.6889C13.0056 16.6889 10.6667 14.3 10.6667 11.3556ZM0 4.24446C0 2.28057 1.59167 0.688904 3.55556 0.688904H28.4444C30.4056 0.688904 32 2.28057 32 4.24446V18.4667C32 20.4278 30.4056 22.0222 28.4444 22.0222H3.55556C1.59167 22.0222 0 20.4278 0 18.4667V4.24446ZM2.66667 6.91113V15.8C4.63056 15.8 6.22222 17.3945 6.22222 19.3556H25.7778C25.7778 17.3945 27.3722 15.8 29.3333 15.8V6.91113C27.3722 6.91113 25.7778 5.31668 25.7778 3.35557H6.22222C6.22222 5.31668 4.63056 6.91113 2.66667 6.91113Z" fill="#252525"/>
</svg>
