<svg width="32" height="32" viewBox="0 0 32 32" fill="none" xmlns="http://www.w3.org/2000/svg">
<g clip-path="url(#clip0_45_73)">
<path d="M8.82074 11.5707C9.09473 11.228 9.28066 10.7679 9.23162 10.2977C8.83054 10.3176 8.34109 10.5623 8.05772 10.9053C7.80329 11.199 7.5781 11.6784 7.6368 12.1289C8.08704 12.1679 8.53687 11.9038 8.82074 11.5707Z" fill="black"/>
<path d="M9.22652 12.2169C8.57266 12.1779 8.01672 12.588 7.70447 12.588C7.39204 12.588 6.91388 12.2365 6.39671 12.246C5.72359 12.2559 5.099 12.6364 4.75742 13.2418C4.05484 14.4527 4.57201 16.2489 5.25523 17.2352C5.58702 17.7231 5.98688 18.2604 6.51376 18.2411C7.01157 18.2215 7.20669 17.9187 7.8118 17.9187C8.41646 17.9187 8.59223 18.2411 9.11919 18.2313C9.66566 18.2215 10.0073 17.7431 10.3391 17.2547C10.7197 16.6985 10.8755 16.1614 10.8853 16.132C10.8755 16.1222 9.83157 15.7217 9.82189 14.5208C9.81203 13.5153 10.6415 13.0371 10.6805 13.0074C10.2121 12.3146 9.48025 12.2365 9.22652 12.2169Z" fill="black"/>
<path d="M14.9198 10.8561C16.341 10.8561 17.3306 11.8357 17.3306 13.2619C17.3306 14.6933 16.3206 15.678 14.8842 15.678H13.3107V18.1803H12.1738V10.8561H14.9198V10.8561ZM13.3107 14.7237H14.6151C15.6049 14.7237 16.1683 14.1908 16.1683 13.267C16.1683 12.3433 15.6049 11.8154 14.6202 11.8154H13.3107V14.7237V14.7237Z" fill="black"/>
<path d="M17.6276 16.6627C17.6276 15.7287 18.3433 15.1552 19.6123 15.0841L21.074 14.9978V14.5867C21.074 13.9929 20.673 13.6376 20.0031 13.6376C19.3685 13.6376 18.9726 13.9421 18.8762 14.4192H17.8408C17.9017 13.4548 18.7239 12.7442 20.0436 12.7442C21.3379 12.7442 22.1652 13.4294 22.1652 14.5004V18.1803H21.1145V17.3022H21.0892C20.7797 17.896 20.1045 18.2716 19.4041 18.2716C18.3585 18.2716 17.6276 17.6219 17.6276 16.6627ZM21.074 16.1805V15.7592L19.7593 15.8404C19.1046 15.8861 18.7341 16.1754 18.7341 16.6322C18.7341 17.0991 19.1198 17.4037 19.7086 17.4037C20.475 17.4037 21.074 16.8758 21.074 16.1805Z" fill="black"/>
<path d="M23.1571 20.1446V19.2563C23.2382 19.2766 23.4209 19.2766 23.5123 19.2766C24.0199 19.2766 24.294 19.0634 24.4614 18.5153C24.4614 18.5051 24.5579 18.1904 24.5579 18.1853L22.6292 12.8406H23.8168L25.1671 17.1855H25.1872L26.5375 12.8406H27.6947L25.6948 18.4594C25.2381 19.7537 24.7103 20.1699 23.6038 20.1699C23.5123 20.1699 23.2382 20.1597 23.1571 20.1446Z" fill="black"/>
<path d="M2.0266 5.5H30.0905C30.9189 5.5 31.5905 6.17157 31.5905 7V23.4676C31.5905 24.296 30.9189 24.9676 30.0905 24.9676H2.0266C1.19817 24.9676 0.526596 24.296 0.526596 23.4676V7C0.526596 6.17157 1.19817 5.5 2.0266 5.5Z" stroke="black"/>
</g>
<defs>
<clipPath id="clip0_45_73">
<rect width="32" height="32" fill="white"/>
</clipPath>
</defs>
</svg>
