<svg width="28" height="32" viewBox="0 0 28 32" fill="none" xmlns="http://www.w3.org/2000/svg">
<path d="M26 10H21.5V7.5C21.5 3.36438 18.1375 0 14 0C9.8625 0 6.5 3.36438 6.5 7.5V10H2C0.895625 10 0 10.8937 0 12V27C0 29.7625 2.23875 32 5 32H23C25.7613 32 28 29.7613 28 27V12C28 10.8937 27.1063 10 26 10ZM9.5 7.5C9.5 5.01875 11.5187 3 14 3C16.4813 3 18.5 5.01875 18.5 7.5V10H9.5V7.5ZM8 15.5C7.175 15.5 6.5 14.8313 6.5 14C6.5 13.1687 7.175 12.5 8 12.5C8.825 12.5 9.5 13.175 9.5 14C9.5 14.825 8.83125 15.5 8 15.5ZM20 15.5C19.1719 15.5 18.5 14.8281 18.5 14C18.5 13.1719 19.175 12.5 20 12.5C20.825 12.5 21.5 13.175 21.5 14C21.5 14.825 20.8313 15.5 20 15.5Z" fill="#252525"/>
</svg>
