<svg width="28" height="25" viewBox="0 0 28 25" fill="none" xmlns="http://www.w3.org/2000/svg">
<path d="M27.7331 12.6781L17.3637 23.6789C17.1574 23.8976 16.8199 24.0039 16.5949 24.0039C16.3457 24.0039 16.0956 23.918 15.8973 23.7441C15.474 23.373 15.4426 22.7403 15.8274 22.3322L24.6204 13.0032H1.03694C0.463719 13.0032 0 12.5559 0 12.0593C0 11.5627 0.463844 11.003 1.03694 11.003H24.6198L15.8254 1.67114C15.4406 1.26293 15.472 0.629823 15.8953 0.259173C16.3197 -0.109977 16.9748 -0.0826623 17.361 0.327553L27.7305 11.3283C28.0894 11.7093 28.0894 12.2969 27.7331 12.6781Z" fill="#252525"/>
</svg>
