<svg width="32" height="32" viewBox="0 0 32 32" fill="none" xmlns="http://www.w3.org/2000/svg">
<path d="M2 9.99926H21.9937L21.9987 14.4993C21.9987 15.0959 22.3519 15.6361 22.8993 15.8743C23.4464 16.1125 24.0824 16.0041 24.5199 15.5989L31.5199 9.09888C32.1599 8.50513 32.1599 7.49326 31.5199 6.89951L24.5199 0.399505C24.0829 -0.00574479 23.4468 -0.114057 22.8993 0.124005C22.3519 0.362505 21.9987 0.902755 21.9987 1.49901L21.9937 5.99926H2C0.894375 5.99926 0 6.89301 0 7.94301C0 8.99301 0.894375 9.99926 2 9.99926ZM30 21.9993H10.0063L10 17.443C10 16.8463 9.64675 16.3061 9.09937 16.068C8.55625 15.8868 7.91875 15.993 7.48125 16.3993L0.48125 22.8993C-0.15875 23.493 -0.15875 24.5049 0.48125 25.0986L7.48125 31.5986C7.91825 32.0039 8.55438 32.1123 9.10188 31.874C9.65 31.6368 10 31.093 10 30.4993L10.0063 25.9993H30C31.1056 25.9993 32 25.1049 32 23.9993C32 22.8936 31.1063 21.9993 30 21.9993Z" fill="#252525"/>
</svg>
