<svg width="32" height="32" viewBox="0 0 32 32" fill="none" xmlns="http://www.w3.org/2000/svg">
<path d="M31.7063 30.2938L22.8625 21.45C24.8125 19.175 25.9438 16.2313 25.9438 13C25.9438 5.81875 20.1231 0 12.9438 0C5.76439 0 0 5.82062 0 13C0 20.1794 5.82001 26 12.9438 26C16.1738 26 19.1219 24.815 21.3938 22.8656L30.2375 31.7094C30.4875 31.9 30.7438 32 31 32C31.2563 32 31.5118 31.9024 31.7069 31.707C32.1 31.3188 32.1 30.6813 31.7063 30.2938ZM13 24C6.88126 24 2.00001 19.0625 2.00001 13C2.00001 6.9375 6.88126 2 13 2C19.1188 2 24 6.88125 24 13C24 19.1187 19.0625 24 13 24Z" fill="#252525"/>
</svg>
