<svg width="32" height="32" viewBox="0 0 32 32" fill="none" xmlns="http://www.w3.org/2000/svg">
<path d="M16 16C20.4188 16 24 12.4181 24 8C24 3.58187 20.4188 0 16 0C11.5813 0 8 3.58187 8 8C8 12.4181 11.5813 16 16 16ZM16 2C19.3088 2 22 4.69125 22 8C22 11.3081 19.3088 14 16 14C12.6912 14 10 11.3062 10 8C10 4.69125 12.6938 2 16 2ZM19.1688 19H12.8313C6.85063 19 2 23.85 2 29.8312C2 31.0275 2.97 31.9981 4.16625 31.9981H27.835C29.0312 32 30 31.0312 30 29.8312C30 23.85 25.15 19 19.1688 19ZM27.8312 30H4.16625C4.075 30 4 29.925 4 29.8312C4 24.9625 7.9625 21 12.8313 21H19.1625C24.0375 21 28 24.9625 28 29.8312C28 29.925 27.925 30 27.8312 30Z" fill="#252525"/>
</svg>
