<svg width="32" height="32" viewBox="0 0 32 32" fill="none" xmlns="http://www.w3.org/2000/svg">
<path d="M17.0003 26C16.4503 26 16.0003 26.45 16.0003 27V28C16.0003 29.1044 15.1047 30 14.0004 30H4.00055C2.89619 30 2.00059 29.1044 2.00059 28V12C2.00059 10.8956 2.89619 10 4.00055 10H11.0004C11.5504 10 12.0004 9.55 12.0004 9C12.0004 8.45 11.5504 8 11.0004 8H3.99992C1.79059 8 0 9.79062 0 12L0.000612488 28C0.000624988 30.2062 1.79122 32 4.00055 32H14.0004C16.2097 32 18.0003 30.2094 18.0003 28V27C18.0003 26.45 17.5503 26 17.0003 26ZM31.4125 5.41437L26.5845 0.58625C26.2126 0.210688 25.7001 0 25.1689 0H18.0003C15.7941 0 14.0004 1.79063 14.0004 4V20C14.0004 22.2094 15.7909 24 18.0003 24H28.0001C30.2094 24 32 22.2094 32 20V6.83125C32 6.3 31.7875 5.78937 31.4125 5.41437ZM26.0001 2.82812L29.1688 6H26.0001V2.82812ZM30 20C30 21.1044 29.1044 22 28.0001 22H18.0003C16.8959 22 16.0003 21.1044 16.0003 20V4C16.0003 2.89563 16.8959 2 18.0003 2H24.0002L24.0003 6C24.0003 7.10437 24.8959 8 26.0003 8H30V20Z" fill="#252525"/>
</svg>
