<svg width="32" height="32" viewBox="0 0 32 32" fill="none" xmlns="http://www.w3.org/2000/svg">
<path d="M14 16C18.4187 16 22 12.4181 22 8C22 3.58187 18.4187 0 14 0C9.58125 0 6 3.58187 6 8C6 12.4181 9.58125 16 14 16ZM14 2C17.3087 2 20 4.69125 20 8C20 11.3081 17.3087 14 14 14C10.6913 14 8 11.3063 8 8C8 4.69125 10.6937 2 14 2ZM17.1688 19H10.8313C4.85063 19 0 23.85 0 29.8312C0 31.0275 0.97 31.9981 2.16625 31.9981H25.835C27.0312 32 28 31.0312 28 29.8312C28 23.85 23.15 19 17.1688 19ZM25.8312 30H2.16625C2.075 30 2 29.925 2 29.8312C2 24.9625 5.9625 21 10.8313 21H17.1625C22.0375 21 26 24.9625 26 29.8312C26 29.925 25.925 30 25.8312 30Z" fill="#252525"/>
<path d="M27.8333 12.1667H31.1667C31.625 12.1667 32 12.5417 32 13C32 13.4583 31.625 13.8333 31.1667 13.8333H27.8333V17.1667C27.8333 17.6273 27.4606 18 27 18C26.5394 18 26.1667 17.6273 26.1667 17.1667V13.8333H22.8333C22.3727 13.8333 22 13.4583 22 13C22 12.5417 22.375 12.1667 22.8333 12.1667H26.1667V8.83333C26.1667 8.37271 26.5417 8 27 8C27.4583 8 27.8333 8.375 27.8333 8.83333V12.1667Z" fill="#252525"/>
</svg>
