<svg width="32" height="26" viewBox="0 0 32 26" fill="none" xmlns="http://www.w3.org/2000/svg">
<path d="M28.4444 0.555542H3.55556C1.59167 0.555542 0 2.14721 0 4.1111V21.8889C0 23.8528 1.59167 25.4444 3.55556 25.4444H28.4444C30.4083 25.4444 32 23.8528 32 21.8889V4.1111C32 2.14721 30.4056 0.555542 28.4444 0.555542ZM3.50556 13.8889C3.50556 13.3979 3.90356 13 4.39444 13H9.72778C10.2187 13 10.6167 13.3979 10.6167 13.8889V15.6667C10.6167 16.1575 10.2187 16.5555 9.72778 16.5555H4.39444C3.90356 16.5555 3.50556 16.1575 3.50556 15.6667V13.8889ZM8.88889 21.4444C8.88889 21.6889 8.68889 21.8889 8.44444 21.8889H4C3.75444 21.8889 3.55556 21.6889 3.55556 21.4444V20.5555C3.55556 20.31 3.75456 20.1111 4 20.1111H8.44444C8.68989 20.1111 8.88889 20.31 8.88889 20.5555V21.4444ZM19.5556 21.4444C19.5556 21.6899 19.3566 21.8889 19.1111 21.8889H11.1111C10.8667 21.8889 10.6667 21.6889 10.6667 21.4444V20.5555C10.6667 20.31 10.8657 20.1111 11.1111 20.1111H19.0611C19.3066 20.1111 19.5056 20.31 19.5056 20.5555L19.5556 21.4444ZM21.3333 15.6667C21.3333 16.1575 20.9353 16.5555 20.4444 16.5555H13.3333C12.8424 16.5555 12.4444 16.1575 12.4444 15.6667V13.8889C12.4444 13.3979 12.8424 13 13.2833 13H20.3944C20.8853 13 21.2833 13.3979 21.2833 13.8889L21.3333 15.6667ZM28.4444 15.6667C28.4444 16.1575 28.0464 16.5555 27.5556 16.5555H24C23.5111 16.5555 23.1111 16.1555 23.1111 15.6667V13.8889C23.1111 13.3979 23.5091 13 24 13H27.5556C28.0444 13 28.4444 13.4 28.4444 13.8889V15.6667ZM28.4444 8.55554C28.4444 9.04443 28.0444 9.44443 27.5556 9.44443H22.2222C21.7313 9.44443 21.3333 9.04643 21.3333 8.55554V4.99999C21.3333 4.50899 21.7313 4.1111 22.2222 4.1111H27.5556C28.0444 4.1111 28.4444 4.5111 28.4444 4.99999V8.55554Z" fill="#252525"/>
</svg>
