<svg width="32" height="26" viewBox="0 0 32 26" fill="none" xmlns="http://www.w3.org/2000/svg">
<path d="M16 5.88888C12.0722 5.88888 8.88889 9.07221 8.88889 13C8.88889 16.9278 12.0739 20.1111 16 20.1111C19.9244 20.1111 23.1111 16.9267 23.1111 13.0055C23.1111 9.07776 19.9278 5.88888 16 5.88888ZM16 18.3333C13.0594 18.3333 10.6667 15.9411 10.6667 13C10.6667 10.0589 13.0594 7.66665 16 7.66665C18.9411 7.66665 21.3333 10.0567 21.3333 13.0005C21.3333 15.9389 18.8944 18.3333 16 18.3333ZM31.8056 12.0055C28.7944 5.19443 22.8278 0.555542 16 0.555542C9.17222 0.555542 3.205 5.19999 0.192722 12.0055C0.0868333 12.3 0 12.7222 0 13C0 13.2765 0.0867778 13.7 0.192722 13.9461C3.20667 20.8055 9.17222 25.4444 16 25.4444C22.8278 25.4444 28.7944 20.8011 31.8056 13.9944C31.9111 13.7 32 13.2278 32 13C32 12.7222 31.9111 12.3 31.8056 12.0055ZM30.1778 13.2333C27.35 19.6667 21.9167 23.6667 16 23.6667C10.0833 23.6667 4.65 19.6678 1.83333 13.2611C1.81 13.2 1.78056 13.05 1.72778 13.0111C1.73082 12.9474 1.76033 12.8009 1.77053 12.7687C4.64889 6.28332 10.0833 2.33332 16 2.33332C21.9167 2.33332 27.35 6.33221 30.1667 12.7389C30.1886 12.7989 30.218 12.9452 30.221 12.9857C30.2167 13.05 30.1889 13.2 30.1778 13.2333Z" fill="#252525"/>
</svg>
