<svg width="24" height="24" viewBox="0 0 24 24" fill="none" xmlns="http://www.w3.org/2000/svg">
<path d="M8.20781 10.875C8.87344 10.875 9.375 10.3734 9.375 9.75C9.375 9.12656 8.87344 8.625 8.20781 8.625C7.62656 8.625 7.125 9.12656 7.125 9.75C7.125 10.3734 7.62656 10.875 8.20781 10.875ZM15.7078 10.875C16.3734 10.875 16.875 10.3734 16.875 9.75C16.875 9.12656 16.3734 8.625 15.75 8.625C15.1266 8.625 14.625 9.12656 14.625 9.75C14.625 10.3734 15.1266 10.875 15.7078 10.875ZM17.775 14.2875C16.3547 14.7422 14.2078 15 12 15C9.79219 15 7.64531 14.7422 6.225 14.2875C5.98125 14.2125 5.70938 14.2641 5.50781 14.4328C5.31094 14.6109 5.21719 14.8641 5.25937 15.1312C5.69062 17.7094 9.15469 19.5 12 19.5C14.8359 19.5 18.3094 17.7094 18.7406 15.1312C18.7875 14.8734 18.6891 14.6109 18.4969 14.4328C18.2953 14.2641 18.0188 14.2031 17.775 14.2875ZM12 18C10.4016 18 8.39063 17.2406 7.3875 16.1156C10.0781 16.6219 13.9266 16.6219 16.6219 16.1156C15.6094 17.2406 13.5984 18 12 18ZM12 0C5.37188 0 0 5.37188 0 12C0 18.6281 5.37188 24 12 24C18.6281 24 24 18.6281 24 12C24 5.37188 18.6281 0 12 0ZM12 22.5C6.21094 22.5 1.5 17.7891 1.5 12C1.5 6.21094 6.21094 1.5 12 1.5C17.7891 1.5 22.5 6.21094 22.5 12C22.5 17.7891 17.7891 22.5 12 22.5Z" fill="#252525"/>
</svg>
