<svg width="32" height="32" viewBox="0 0 32 32" fill="none" xmlns="http://www.w3.org/2000/svg">
<path d="M28 4H23.9531C22.0688 1.58625 19.2562 0 16 0C12.7438 0 9.81875 1.58625 8.05 4H4C1.79688 4 0 5.79688 0 8V28C0 30.2031 1.79688 32 4 32H28C30.2031 32 32 30.2031 32 28V8C32 5.79688 30.2062 4 28 4ZM16 2C20.4219 2 24 5.57812 24 10C24 14.4219 20.4219 18 16 18C11.5781 18 8 14.425 8 10C8 5.575 11.575 2 16 2ZM30 28C30 29.1013 29.1013 30 28 30H4C2.89875 30 2 29.1013 2 28V8C2 6.89875 2.89875 6 4 6H6.84375C6.3125 7.225 6 8.575 6 10C6 15.5156 10.4844 20 16 20C21.5156 20 26 15.5156 26 10C26 8.57812 25.6875 7.22625 25.1562 6H28C29.1013 6 30 6.89875 30 8V28ZM16 16C17.6562 16 19 14.6562 19 13C19 12.1325 18.625 11.3513 18.0312 10.805L19.9219 6.39062C20.1328 5.89062 19.8984 5.29688 19.3906 5.07812C18.8906 4.86719 18.2969 5.10156 18.0781 5.60938L16.1875 10.0125C13.975 9.875 13 11.7875 13 13C13 14.6562 14.3438 16 16 16ZM16 12C16.5547 12 17 12.4453 17 13C17 13.5547 16.5562 14 16 14C15.4438 14 15 13.5562 15 13C15 12.4438 15.4438 12 16 12Z" fill="#252525"/>
</svg>
