<svg width="32" height="32" viewBox="0 0 32 32" fill="none" xmlns="http://www.w3.org/2000/svg">
<path d="M16 0C7.1625 0 0 7.1625 0 16C0 24.8375 7.1625 32 16 32C24.8375 32 32 24.8375 32 16C32 7.1625 24.8375 0 16 0ZM21.0063 18.9375C21.5922 19.5234 21.5922 20.4725 21.0063 21.0588C20.4199 21.6451 19.4713 21.6446 18.885 21.0588L16 18.1187L13.0606 21.0581C12.4743 21.6444 11.5256 21.6439 10.9394 21.0581C10.3534 20.4722 10.3534 19.5231 10.9394 18.9369L13.8787 15.9975L10.9375 13.0063C10.3516 12.4203 10.3516 11.4713 10.9375 10.885C11.5234 10.2988 12.4725 10.2991 13.0588 10.885L16 13.8813L18.9394 10.9419C19.5253 10.3559 20.4744 10.3559 21.0606 10.9419C21.6469 11.5278 21.6466 12.4769 21.0606 13.0631L18.1213 16.0025L21.0063 18.9375Z" fill="#252525"/>
</svg>
