<svg width="16" height="16" viewBox="0 0 16 16" fill="none" xmlns="http://www.w3.org/2000/svg">
<path d="M4.5 9C4.5 7.06562 6.06562 5.5 8 5.5C9.93438 5.5 11.5 7.06562 11.5 9C11.5 10.9344 9.93438 12.5 8 12.5C6.06562 12.5 4.5 10.9344 4.5 9ZM8 6.5C6.61875 6.5 5.5 7.61875 5.5 9C5.5 10.3813 6.61875 11.5 8 11.5C9.38125 11.5 10.5 10.3813 10.5 9C10.5 7.61875 9.38125 6.5 8 6.5ZM11.3406 2.02562L11.6656 3H14C15.1031 3 16 3.89688 16 5V13C16 14.1031 15.1031 15 14 15H2C0.895313 15 0 14.1031 0 13V5C0 3.89688 0.895313 3 2 3H4.33437L4.65938 2.02562C4.8625 1.41312 5.43438 1 6.08125 1H9.91875C10.5656 1 11.1375 1.41312 11.3406 2.02562ZM2 4C1.44781 4 1 4.44687 1 5V13C1 13.5531 1.44781 14 2 14H14C14.5531 14 15 13.5531 15 13V5C15 4.44687 14.5531 4 14 4H10.9469L10.3938 2.34188C10.325 2.13781 10.1344 2 9.91875 2H6.08125C5.86563 2 5.675 2.13781 5.60625 2.34188L5.05312 4H2Z" fill="#272841"/>
</svg>
